<svg fill="none" height="64" viewBox="0 0 64 64" width="64" xmlns="http://www.w3.org/2000/svg"><path clip-rule="evenodd" d="m14.0001 21.6667c0-.4591.0179-.9163.0532-1.3707l3.253 3.253c-.2488 8.5281-2.1718 14.2407-4.1763 17.9158-.1952.3577-.3908.6956-.5853 1.0143-.1884.3087-.1954.695-.0184 1.0103.177.3154.5104.5106.872.5106h24.359l3.3334 3.3333h-33.42391c-.73444 0-1.38232-.4807-1.59515-1.1837-.21056-.6954.05384-1.4462.6512-1.8565l.00839-.0058.00577-.0041-.00072.0007.00406-.0027c.03692-.0247.07167-.0514.1042-.0799.02823-.0224.06135-.0492.09903-.0806.17073-.1423.43522-.379.7633-.7253.6553-.6917 1.56877-1.8255 2.49673-3.5268 1.8514-3.3942 3.7965-9.1141 3.7965-18.2019zm36.8072 21.8227c-.1.1782-.2499.318-.4267.406l3.438 3.4379h1.8482c.7344 0 1.3823-.4807 1.5951-1.1837.2106-.6954-.0538-1.4462-.6512-1.8565l-.0124-.0087-.0115-.0083-.0144-.0106c-.0348-.0259-.097-.0737-.1824-.1448-.1707-.1423-.4352-.379-.7633-.7253-.6553-.6917-1.5688-1.8255-2.4967-3.5268-1.8514-3.3942-3.7965-9.1141-3.7965-18.2019 0-4.6855-1.8613-9.1791-5.1745-12.49225-3.3131-3.31315-7.8067-5.17445-12.4922-5.17445s-9.1791 1.8613-12.4922 5.17445c-.5915.59146-1.1367 1.22055-1.6333 1.88165l2.3863 2.3863c.4749-.6779 1.0108-1.3177 1.604-1.9109 2.688-2.68805 6.3338-4.19817 10.1352-4.19817s7.4472 1.51012 10.1352 4.19817c2.688 2.688 4.1981 6.3337 4.1981 10.1352 0 9.5789 2.0549 15.8589 4.2035 19.7981.1952.3577.3908.6956.5853 1.0143.1883.3087.1954.695.0184 1.0103zm-22.3122 12.0076c-.4618-.7962-1.4817-1.0672-2.2779-.6053-.7962.4618-1.0673 1.4817-.6054 2.2779.6153 1.0608 1.4985 1.9413 2.5612 2.5534 1.0627.612 2.2675.9342 3.4938.9342s2.4311-.3222 3.4938-.9342c1.0626-.6121 1.9459-1.4926 2.5612-2.5534.4619-.7962.1908-1.8161-.6054-2.2779-.7962-.4619-1.8161-.1909-2.2779.6053-.3224.5557-.785 1.0169-1.3416 1.3375s-1.1877.4894-1.8301.4894-1.2735-.1688-1.8301-.4894-1.0193-.7818-1.3416-1.3375zm-20.4951-45.497 2.1213-2.12132 45.0116 45.01162-2.1213 2.1213z" fill="#9789cd" fill-rule="evenodd"/></svg>