<svg fill="none" height="36" viewBox="0 0 52 36" width="52" xmlns="http://www.w3.org/2000/svg"><path clip-rule="evenodd" d="m14.8418 12.5147c-.4281.5279-1.113.9442-1.7979.8847-.0856-.7137.2497-1.472.6421-1.9404.4281-.5427 1.1772-.9293 1.7836-.959.0714.7434-.2069 1.472-.6278 2.0147zm.6206 1.026c-.6034-.0362-1.1539.1891-1.5987.371-.2861.1171-.5285.2163-.7129.2163-.2069 0-.4592-.1045-.7426-.2217-.3712-.1537-.7957-.3294-1.2408-.321-1.0202.0149-1.96911.6171-2.48993 1.5761-1.07018 1.9181-.27825 4.758.75626 6.3193.50656.7732 1.11297 1.6207 1.91207 1.5909.3515-.0138.6044-.1256.8661-.2413.3013-.1332.6143-.2716 1.103-.2716.4718 0 .7711.1348 1.0584.2641.2732.1231.5356.2412.925.234.8276-.0149 1.3485-.7732 1.855-1.5464.5467-.8298.7869-1.6397.8234-1.7626l.0042-.0142c-.0008-.0009-.0076-.0042-.0195-.0098-.1828-.0872-1.5795-.7535-1.5929-2.5402-.0134-1.4997 1.1079-2.2596 1.2844-2.3792.0107-.0073.018-.0122.0212-.0147-.7134-1.1003-1.8264-1.2193-2.2117-1.249zm5.7291 9.4343v-11.5903h4.1737c2.1547 0 3.6601 1.5464 3.6601 3.8064 0 2.2601-1.534 3.8213-3.7171 3.8213h-2.3901v3.9626zm1.7264-10.0737h1.9906c1.4982 0 2.3544.8327 2.3544 2.2973s-.8562 2.3046-2.3615 2.3046h-1.9835zm11.808 8.6835c-.4567.907-1.4626 1.4794-2.5471 1.4794-1.6053 0-2.7254-.9962-2.7254-2.498 0-1.4868 1.0845-2.3418 3.0893-2.4682l2.1546-.1338v-.6394c0-.9441-.5921-1.4571-1.6481-1.4571-.8704 0-1.5054.4683-1.6338 1.1821h-1.5553c.0499-1.5018 1.4055-2.5947 3.2391-2.5947 1.9762 0 3.2605 1.078 3.2605 2.7508v5.7691h-1.5982v-1.3902zm-2.0835.104c-.9203 0-1.5053-.4609-1.5053-1.1672 0-.7285.5636-1.1523 1.6409-1.2192l1.9192-.1264v.6542c0 1.0855-.8847 1.8586-2.0548 1.8586zm9.0182 1.7397c-.6921 2.0296-1.484 2.6987-3.1678 2.6987-.1284 0-.5565-.0149-.6563-.0446v-1.3902c.107.0148.3709.0297.5065.0297.7634 0 1.1915-.3345 1.4555-1.2044l.1569-.513-2.9252-8.438h1.8051l2.0333 6.8471h.0357l2.0334-6.8471h1.7551z" fill="#fff" fill-rule="evenodd"/></svg>