<svg fill="none" height="36" viewBox="0 0 52 36" width="52" xmlns="http://www.w3.org/2000/svg"><path clip-rule="evenodd" d="m24.4181 23.2917v-4.4019h2.2719c.931 0 1.7168-.312 2.3574-.9272l.1537-.156c1.1702-1.2738 1.0933-3.2582-.1537-4.4366-.6235-.6239-1.4776-.9619-2.3574-.9446h-3.647v10.8663zm.0001-5.7365v-3.7954h2.3065c.4955 0 .9653.1906 1.3156.5373.7432.7278.7602 1.941.0427 2.6949-.3503.3726-.8457.5805-1.3583.5632zm11.1973-1.1178c-.5893-.5459-1.3922-.8232-2.4085-.8232-1.3068 0-2.2891.4853-2.9382 1.4471l1.2128.7713c.4442-.6586 1.0506-.9879 1.8193-.9879.4868 0 .9566.182 1.3239.5113.3587.3119.5637.7625.5637 1.2391v.3206c-.5296-.2946-1.1958-.4506-2.0157-.4506-.9566 0-1.7253.2253-2.2976.6846-.5722.4592-.8626 1.0658-.8626 1.837-.0171.7019.2818 1.3691.8114 1.8197.5381.4853 1.2214.7279 2.0242.7279.9481 0 1.6997-.4246 2.272-1.2738h.0598v1.0312h1.3153v-4.5839c0-.9619-.2904-1.7244-.8798-2.2704zm-3.7322 5.4852c-.2819-.208-.4527-.5459-.4527-.9098 0-.4073.1879-.7453.5552-1.0139.3759-.2686.8457-.4073 1.401-.4073.7688-.0086 1.3668.1647 1.7939.5113 0 .5892-.2306 1.1005-.6834 1.5338-.41.4159-.9653.6498-1.5462.6498-.3844.0087-.7603-.1213-1.0678-.3639zm7.5672 4.6359 4.5952-10.7016h-1.4947l-2.1268 5.3378h-.0256l-2.178-5.3378h-1.4947l3.015 6.9582-1.7082 3.7434z" fill="#fff" fill-rule="evenodd"/><path d="m19.6715 17.937c0-.4246-.0342-.8492-.1025-1.2651h-5.7995v2.4003h3.3225c-.1366.7712-.5808 1.4644-1.2299 1.8977v1.5597h1.9815c1.1616-1.0831 1.8279-2.6862 1.8279-4.5926z" fill="#4285f4"/><path d="m13.7693 24.0374c1.657 0 3.0577-.5546 4.0741-1.5078l-1.9815-1.5598c-.5552.3813-1.2641.5979-2.0926.5979-1.6057 0-2.9638-1.1005-3.4506-2.5736h-2.04136v1.6118c1.04202 2.1057 3.16876 3.4315 5.49196 3.4315z" fill="#34a853"/><path d="m10.3187 18.9937c-.2562-.7712-.2562-1.6117 0-2.3916v-1.6031h-2.04161c-.87987 1.7591-.87987 3.8388 0 5.5978z" fill="#fbbc04"/><path d="m13.7693 14.0286c.8797-.0173 1.7253.3206 2.3573.9358l1.7595-1.785c-1.1189-1.0572-2.5879-1.6378-4.1168-1.6204-2.3232 0-4.44994 1.3344-5.49196 3.4401l2.04136 1.6117c.4868-1.4817 1.8449-2.5822 3.4506-2.5822z" fill="#ea4335"/></svg>