<svg fill="none" height="64" viewBox="0 0 64 64" width="64" xmlns="http://www.w3.org/2000/svg" xmlns:xlink="http://www.w3.org/1999/xlink"><clipPath id="a"><path d="m0 0h64v64h-64z"/></clipPath><g clip-path="url(#a)"><path clip-rule="evenodd" d="m7.1828 15.1597 24.8159 17.3711 24.8159-17.3711c-.382-1.5665-1.8049-2.7427-3.4826-2.7427h-42.6666c-1.67776 0-3.10057 1.1762-3.4826 2.7427zm49.7326 4.2018-23.9131 16.7391c-.6026.4218-1.4046.4218-2.0072 0l-23.91307-16.7391v28.6388c0 1.9669 1.6165 3.5834 3.58337 3.5834h42.6666c1.9669 0 3.5834-1.6165 3.5834-3.5834zm-53.33337-3.3612c0-3.8998 3.1835-7.08331 7.08337-7.08331h42.6666c3.8999 0 7.0834 3.18351 7.0834 7.08331v32c0 3.8999-3.1835 7.0834-7.0834 7.0834h-42.6666c-3.89987 0-7.08337-3.1835-7.08337-7.0834z" fill="#ffc01f" fill-rule="evenodd"/></g></svg>