<svg fill="none" height="36" viewBox="0 0 51 36" width="51" xmlns="http://www.w3.org/2000/svg"><g clip-rule="evenodd" fill-rule="evenodd"><path d="m25.7685 25.2441c-1.7761 1.4971-4.08 2.4008-6.5975 2.4008-5.6173 0-10.171-4.4995-10.171-10.05 0-5.5504 4.5537-10.04998 10.171-10.04998 2.5175 0 4.8214.90375 6.5975 2.40081 1.776-1.49706 4.0799-2.40081 6.5974-2.40081 5.6173 0 10.171 4.49958 10.171 10.04998 0 5.5505-4.5537 10.05-10.171 10.05-2.5175 0-4.8214-.9037-6.5974-2.4008z" fill="#ed0006"/><path d="m25.7695 25.2441c2.1869-1.8433 3.5736-4.5862 3.5736-7.6492 0-3.0629-1.3867-5.8058-3.5736-7.64917 1.7761-1.49706 4.08-2.40081 6.5975-2.40081 5.6173 0 10.171 4.49958 10.171 10.04998 0 5.5505-4.5537 10.05-10.171 10.05-2.5175 0-4.8214-.9037-6.5975-2.4008z" fill="#f9a000"/><path d="m25.7689 25.2436c2.1869-1.8433 3.5735-4.5862 3.5735-7.6491s-1.3866-5.8058-3.5735-7.64919c-2.1869 1.84339-3.5736 4.58629-3.5736 7.64919s1.3867 5.8058 3.5736 7.6491z" fill="#ff5e00"/></g></svg>