<svg fill="none" height="64" viewBox="0 0 64 64" width="64" xmlns="http://www.w3.org/2000/svg"><path d="m32.8111 57.5875c-5.1298.1629-10.1902-1.2198-14.5244-3.9689-4.3341-2.749-7.7419-6.7373-9.78106-11.4473-2.03913-4.71-2.61545-9.9241-1.65414-14.9657.9613-5.0417 3.4158-9.6779 7.045-13.3071s8.2655-6.08375 13.3071-7.04505 10.2558-.38499 14.9658 1.65414c4.71 2.03911 8.6983 5.44691 11.4473 9.78111 2.749 4.3341 4.1318 9.3945 3.9689 14.5244-.9948-.8199-2.0764-1.5281-3.2256-2.112-.1297-2.2941-.6133-4.5544-1.4336-6.7008h-8.7456c.2496 1.568.4288 3.2.528 4.88-1.0744.1024-2.1371.3038-3.1745.6016-.0892-1.8374-.2879-3.6679-.5952-5.4816h-17.8816c-.4446 2.6433-.6651 5.3195-.6592 8 0 2.8256.2336 5.52.6592 8h6.9409c-.4041 1.0353-.7084 2.1069-.9089 3.2h-5.3504c.4897 1.888 1.0944 3.6032 1.792 5.0944 1.5361 3.2896 3.3312 5.1648 5.0464 5.8272.608 1.248 1.36 2.4064 2.2336 3.4656zm5.6577-41.8816c-1.9681-4.2176-4.3681-6.1056-6.4704-6.1056-2.1025 0-4.5024 1.888-6.4704 6.1056-.7492 1.6402-1.3468 3.3454-1.7857 5.0944h16.5184c-.4407-1.7492-1.0406-3.4544-1.7919-5.0944zm-18.0257 5.0944c.5632-2.3776 1.3024-4.5504 2.1856-6.448.5952-1.2768 1.2832-2.4736 2.0544-3.5296-5.0968 1.7669-9.388 5.3084-12.0896 9.9776zm-1.2448 11.2c0-2.784.2144-5.4784.6176-8h-8.7456c-.9759 2.5542-1.4748 5.2657-1.47195 8 0 2.816.52155 5.5168 1.47195 8h8.7456c-.4152-2.6464-.6217-5.3213-.6176-8zm3.4304 17.648c-.9449-2.0698-1.6772-4.2302-2.1856-6.448h-7.8496c2.7016 4.6692 6.9928 8.2107 12.0896 9.9776-.7967-1.1077-1.4846-2.2897-2.0544-3.5296zm28.7744-28.848c-2.7013-4.6694-6.9925-8.211-12.0896-9.9776.7713 1.056 1.4593 2.2528 2.0545 3.5296.8832 1.8976 1.6223 4.0704 2.1856 6.448zm-19.4047 25.6c0 3.8191 1.5171 7.4818 4.2176 10.1823 2.7005 2.7006 6.3632 4.2177 10.1823 4.2177 3.8192 0 7.4819-1.5171 10.1824-4.2177 2.7005-2.7005 4.2177-6.3632 4.2177-10.1823s-1.5172-7.4818-4.2177-10.1823c-2.7005-2.7006-6.3632-4.2177-10.1824-4.2177-3.8191 0-7.4818 1.5171-10.1823 4.2177-2.7005 2.7005-4.2176 6.3632-4.2176 10.1823zm7.6928 8.9696 15.68-15.68c1.6176 2.1568 2.4029 4.8247 2.2118 7.514-.1911 2.6892-1.3459 5.2192-3.2523 7.1256-1.9063 1.9064-4.4364 3.0611-7.1256 3.2522s-5.3571-.5942-7.5139-2.2118zm-2.2625-2.2624c-1.6176-2.1568-2.4029-4.8247-2.2118-7.514.1911-2.6892 1.3459-5.2192 3.2523-7.1256 1.9063-1.9064 4.4364-3.0611 7.1256-3.2522s5.3571.5942 7.5139 2.2118z" fill="#ffc01f"/></svg>
