<svg fill="none" height="64" viewBox="0 0 64 64" width="64" xmlns="http://www.w3.org/2000/svg"><path clip-rule="evenodd" d="m42.3216 55.1663 12.8457-12.8457v-20.6418l-12.8457-12.84579h-20.6419l-12.84571 12.84579v20.6418l12.84571 12.8457zm-36.20628-35.7186 13.33338-13.33336c.2472-.24811.541-.44488.8646-.57897.3235-.1341.6704-.20287 1.0207-.20236h21.3333c.3503-.00051.6972.06826 1.0207.20236.3236.13409.6174.33086.8647.57897l13.3333 13.33336c.2481.2472.4449.541.579.8646s.2028.6705.2023 1.0207v21.3333c.0005.3503-.0682.6972-.2023 1.0207-.1341.3236-.3309.6175-.579.8647l-13.3333 13.3333c-.4987.5013-1.1761.7813-1.8854.7813h-21.3333c-.3503.0005-.6972-.0682-1.0207-.2023-.3236-.1341-.6174-.3309-.8646-.579l-13.33338-13.3333c-.50133-.4987-.78133-1.176-.78133-1.8854v-21.3333c-.00051-.3502.06826-.6971.20236-1.0207.13409-.3236.33086-.6174.57897-.8646zm28.55198 25.8853h-5.3333v-5.3333h5.3333zm0-10.6666h-5.3333v-16h5.3333z" fill="#f11f5e" fill-rule="evenodd"/></svg>