<svg fill="none" height="36" viewBox="0 0 51 36" width="51" xmlns="http://www.w3.org/2000/svg"><path clip-rule="evenodd" d="m16.1246 23.7878h-3.0896l-2.3168-9.0988c-.11-.4186-.3435-.7886-.687-.963-.8571-.4383-1.80161-.7871-2.83198-.963v-.3503h4.97708c.687 0 1.2021.5262 1.288 1.1374l1.2021 6.5633 3.0881-7.7007h3.0038zm6.351 0h-2.9179l2.4027-11.3751h2.9179zm6.1777-8.2238c.0858-.6127.601-.963 1.2021-.963.9445-.088 1.9733.088 2.832.5247l.5152-2.4491c-.8587-.3503-1.8032-.5262-2.6603-.5262-2.832 0-4.8928 1.5756-4.8928 3.7623 0 1.6636 1.4597 2.5371 2.4901 3.0633 1.1147.5247 1.544.875 1.4582 1.3997 0 .7871-.8587 1.1374-1.7158 1.1374-1.0304 0-2.0607-.2624-3.0037-.7006l-.5152 2.4506c1.0303.4367 2.1451.6126 3.1754.6126 3.1755.0865 5.1489-1.4876 5.1489-3.8503 0-2.9753-4.0341-3.1497-4.0341-4.4614zm14.2459 8.2238-2.3168-11.3751h-2.4886c-.5152 0-1.0303.3503-1.2021.875l-4.2902 10.5001h3.0038l.5995-1.6621h3.6907l.3434 1.6621zm-4.376-8.3118.8571 4.2871h-2.4027z" fill="#fff" fill-rule="evenodd"/></svg>