<svg fill="none" height="37" viewBox="0 0 157 37" width="157" xmlns="http://www.w3.org/2000/svg" xmlns:xlink="http://www.w3.org/1999/xlink"><filter id="a" color-interpolation-filters="sRGB" filterUnits="userSpaceOnUse" height="40" width="157" x="0" y=".550781"><feFlood flood-opacity="0" result="BackgroundImageFix"/><feColorMatrix in="SourceAlpha" result="hardAlpha" type="matrix" values="0 0 0 0 0 0 0 0 0 0 0 0 0 0 0 0 0 0 127 0"/><feOffset dy="4"/><feComposite in2="hardAlpha" operator="out"/><feColorMatrix type="matrix" values="0 0 0 0 0.388235 0 0 0 0 0.133333 0 0 0 0 0.0745098 0 0 0 1 0"/><feBlend in2="BackgroundImageFix" mode="normal" result="effect1_dropShadow_443_46094"/><feBlend in="SourceGraphic" in2="effect1_dropShadow_443_46094" mode="normal" result="shape"/></filter><g filter="url(#a)"><path d="m1.036 28.8228.28-5.18c1.344.532 3.276.98 5.46.98 1.848 0 2.716-.42 2.716-1.092 0-.616-.672-.896-2.66-1.316-3.724-.784-6.132-2.352-6.132-6.356 0-3.92 2.296-6.86002 7.756-6.86002 2.548 0 4.004.336 5.516.952l-.28 5.88002c-1.54-.476-3.136-.812-4.872-.812-1.568 0-2.38.336-2.38 1.148 0 .616.588.896 2.436 1.288 4.004.84 6.356 2.268 6.356 5.964 0 3.724-2.548 6.524-8.092 6.524-2.968 0-4.34-.476-6.104-1.12zm15.8646.728v-21.28002h5.32v21.28002zm7.1477-7.784c0-4.732 3.444-8.204 8.344-8.204s8.316 3.472 8.316 8.204-3.416 8.176-8.316 8.176-8.344-3.444-8.344-8.176zm8.344 3.276c1.484 0 2.716-1.12 2.716-2.968 0-1.736-1.148-3.052-2.716-3.052-1.596 0-2.744 1.316-2.744 3.052 0 1.848 1.232 2.968 2.744 2.968zm11.2774-1.848v-4.2h-2.268v-5.04h2.688l.56-3.78h4.34v3.78h3.836v5.04h-3.836v3.864c0 1.596.616 2.184 1.848 2.184.84 0 1.428-.112 1.988-.252l.364 4.76c-.868.252-2.184.392-3.36.392-4.872 0-6.16-2.828-6.16-6.748z" fill="#fff"/><g fill="#ffc01f"><path d="m69.008 24.4828h-1.008v5.068h-5.6v-20.16002h6.412c5.348 0 9.156 2.29602 9.156 7.47602 0 5.152-3.612 7.616-8.96 7.616zm.28-9.352h-1.288v4.452h1.288c1.848 0 2.94-.7 2.94-2.24s-1.12-2.212-2.94-2.212zm9.7993 6.636c0-4.732 3.444-8.204 8.344-8.204s8.316 3.472 8.316 8.204-3.416 8.176-8.316 8.176-8.344-3.444-8.344-8.176zm8.344 3.276c1.484 0 2.716-1.12 2.716-2.968 0-1.736-1.148-3.052-2.716-3.052-1.596 0-2.744 1.316-2.744 3.052 0 1.848 1.232 2.968 2.744 2.968zm11.2775-1.848v-4.2h-2.268v-5.04h2.688l.56-3.78h4.3402v3.78h3.836v5.04h-3.836v3.864c0 1.596.616 2.184 1.848 2.184.84 0 1.428-.112 1.988-.252l.364 4.76c-.868.252-2.184.392-3.36.392-4.8722 0-6.1602-2.828-6.1602-6.748zm19.0272-3.22c0-.644-.84-.952-2.408-.952-1.848 0-3.612.532-5.04 1.176l-.364-5.32c1.344-.7 3.444-1.316 5.936-1.316 5.068 0 7.336 2.296 7.336 6.86v9.128h-5.46v-1.624c-1.148 1.316-2.408 2.016-4.508 2.016-2.52 0-4.312-1.316-4.312-3.892 0-3.444 2.968-4.368 5.936-4.872 1.176-.196 1.708-.336 2.24-.504.504-.168.644-.364.644-.7zm0 3.36c-.308.168-.784.392-1.4.56-1.064.28-1.82.532-1.82 1.568 0 .784.616 1.12 1.456 1.12.812 0 1.428-.448 1.764-1.12zm9-.14v-4.2h-2.268v-5.04h2.688l.56-3.78h4.34v3.78h3.836v5.04h-3.836v3.864c0 1.596.616 2.184 1.848 2.184.84 0 1.428-.112 1.988-.252l.364 4.76c-.868.252-2.184.392-3.36.392-4.872 0-6.16-2.828-6.16-6.748z"/><path d="m142.035 20.0341c.311-1.7119 1.284-3.5961 2.856-4.6208-.633 1.2135-.818 3.2649-.935 4.6208h11.786c0-2.9705-.265-7.4191-3.13-9.6786.203.5986.055 2.6935-.552 4.5909-.564 1.7448-1.519 3.2921-2.958 3.2921-1.913 0-1.54-1.9902-.798-3.4447 1.76-3.4417 2.08-3.9385 2.425-5.18947.971-3.52847 0-5.87781-1.889-8.05355.25 1.49638-.419 5.0877-3.414 7.98171l-4.855 4.71061c-1.205 1.1702-2.57 4.4235-2.57 5.791z"/><path clip-rule="evenodd" d="m138 22.0125c.058 1.4649.433 2.7834 1.127 3.9552.756 1.278 1.8 2.2849 3.133 3.0207 1.352.7359 2.894 1.1038 4.625 1.1038 1.75 0 3.282-.3679 4.595-1.1038 1.333-.7358 2.377-1.7427 3.133-3.0207.693-1.1718 1.069-2.4903 1.126-3.9552h-5.96c-.011.6043-.14 1.1288-.388 1.5735-.258.4454-.606.7939-1.044 1.0457-.438.2517-.925.3776-1.462.3776s-1.035-.1259-1.492-.3776c-.438-.2518-.786-.6003-1.045-1.0457-.247-.4447-.376-.9692-.387-1.5735zm17.747-.3131c0-.0294 0-.0589 0-.0884 0-.0299 0-.0598 0-.0895z" fill-rule="evenodd"/></g></g></svg>