<svg width="80" height="80" viewBox="0 0 80 80" fill="none" xmlns="http://www.w3.org/2000/svg">
<circle cx="40" cy="40" r="40" fill="#DDB43F" fill-opacity="0.2"/>
<path d="M52.4915 27.2881V51.8644H57.4068V27.2881H52.4915ZM45.1186 59.2373H35.2881V64.1525H45.1186V59.2373ZM27.9153 51.8644V27.2881H23V51.8644H27.9153ZM35.2881 19.9153H45.1186V15H35.2881V19.9153ZM35.2881 59.2373C32.9018 59.2373 31.3584 59.2323 30.223 59.08C29.1564 58.935 28.8221 58.7039 28.6353 58.5172L25.1603 61.9923C26.4137 63.2456 27.957 63.7347 29.5668 63.951C31.1102 64.1574 33.0394 64.1525 35.2881 64.1525V59.2373ZM23 51.8644C23 54.1131 22.9951 56.0448 23.2015 57.5857C23.4178 59.1955 23.9069 60.7413 25.1603 61.9923L28.6353 58.5172C28.4486 58.3304 28.2175 57.9962 28.0725 56.9295C27.9202 55.7966 27.9153 54.2507 27.9153 51.8644H23ZM52.4915 51.8644C52.4915 54.2507 52.4866 55.7941 52.3342 56.9295C52.1892 57.9962 51.9582 58.3304 51.7714 58.5172L55.2465 61.9923C56.4999 60.7389 56.989 59.1955 57.2052 57.5857C57.4117 56.0423 57.4068 54.1131 57.4068 51.8644H52.4915ZM45.1186 64.1525C47.3674 64.1525 49.299 64.1574 50.84 63.951C52.4497 63.7347 53.9956 63.2456 55.2465 61.9923L51.7714 58.5172C51.5846 58.7039 51.2504 58.935 50.1838 59.08C49.0484 59.2323 47.505 59.2373 45.1186 59.2373V64.1525ZM57.4068 27.2881C57.4068 25.0394 57.4117 23.1077 57.2052 21.5668C56.989 19.957 56.4999 18.4112 55.2465 17.1603L51.7714 20.6353C51.9582 20.8221 52.1892 21.1564 52.3342 22.223C52.4866 23.3559 52.4915 24.9018 52.4915 27.2881H57.4068ZM45.1186 19.9153C47.505 19.9153 49.0484 19.9202 50.1838 20.0725C51.2504 20.2175 51.5846 20.4486 51.7714 20.6353L55.2465 17.1603C53.9931 15.9069 52.4497 15.4178 50.84 15.2015C49.2966 14.9951 47.3674 15 45.1186 15V19.9153ZM27.9153 27.2881C27.9153 24.9018 27.9202 23.3584 28.0725 22.223C28.2175 21.1564 28.4486 20.8221 28.6353 20.6353L25.1603 17.1603C23.9069 18.4137 23.4178 19.957 23.2015 21.5668C22.9951 23.1102 23 25.0394 23 27.2881H27.9153ZM35.2881 15C33.0394 15 31.1077 14.9951 29.5668 15.2015C27.957 15.4178 26.4112 15.9069 25.1603 17.1603L28.6353 20.6353C28.8221 20.4486 29.1564 20.2175 30.223 20.0725C31.3559 19.9202 32.9018 19.9153 35.2881 19.9153V15Z" fill="#DDB43F"/>
<path d="M35.2881 22.3728H45.1186C45.7704 22.3728 46.3955 22.1138 46.8564 21.6529C47.3173 21.1921 47.5763 20.5669 47.5763 19.9151C47.5763 19.2633 47.3173 18.6382 46.8564 18.1773C46.3955 17.7164 45.7704 17.4575 45.1186 17.4575H35.2881C34.6363 17.4575 34.0112 17.7164 33.5503 18.1773C33.0894 18.6382 32.8305 19.2633 32.8305 19.9151C32.8305 20.5669 33.0894 21.1921 33.5503 21.6529C34.0112 22.1138 34.6363 22.3728 35.2881 22.3728Z" fill="#DDB43F"/>
<path d="M32.8305 54.322H47.5763H32.8305Z" fill="#DDB43F"/>
<path d="M32.8305 54.322H47.5763" stroke="#DDB43F" stroke-width="3" stroke-linecap="round"/>
<path d="M39.5361 32.5491V32C39.5251 32 39.5136 32 39.5026 32.0011L39.5361 32.5491ZM34.5438 32.5491L34.5773 32.0011C34.5663 32.0004 34.5553 32 34.5443 32L34.5438 32.5491ZM37.0399 42.4326L36.727 42.8834C36.8185 42.9469 36.9272 42.9811 37.0386 42.9814C37.15 42.9817 37.2588 42.9481 37.3507 42.885L37.0399 42.4326ZM39.5026 32.0011C38.9036 32.0382 38.3233 32.2239 37.8141 32.5414L38.394 33.4737C38.7483 33.2525 39.1521 33.1231 39.569 33.0971L39.5026 32.0011ZM37.8141 32.5414C37.3074 32.8579 36.8837 33.2909 36.5782 33.8043L37.5209 34.3671C37.7406 33.9998 38.0404 33.6939 38.394 33.4737L37.8141 32.5414ZM37.5017 33.8043C37.1964 33.2909 36.7728 32.858 36.2663 32.5414L35.6853 33.4737C36.039 33.6939 36.3393 33.9998 36.5589 34.3671L37.5017 33.8043ZM36.2663 32.5414C35.7569 32.2238 35.1764 32.0381 34.5773 32.0011L34.5103 33.0971C34.9272 33.1231 35.331 33.2525 35.6853 33.4737L36.2663 32.5414ZM34.5432 32C33.5972 32 32.6934 32.3898 32.0306 33.0773L32.8213 33.8394C33.0437 33.6063 33.3108 33.4205 33.6067 33.2932C33.9026 33.1658 34.2211 33.0995 34.5432 33.0982V32ZM32.0306 33.0773C31.3667 33.7706 30.9977 34.6942 31 35.6542H32.0982C32.0982 34.97 32.3606 34.3177 32.8213 33.8394L32.0306 33.0773ZM31 35.6542C31 36.5541 31.4113 37.4579 31.9499 38.2678C32.4952 39.0881 33.2117 39.8739 33.9134 40.5503C34.7887 41.3893 35.7227 42.1647 36.7083 42.8708L36.7215 42.8801L36.7253 42.8823L36.727 42.8834L37.0399 42.4326L37.3529 41.9818L37.3507 41.9796C37.3326 41.9672 37.3146 41.9546 37.2969 41.9417C37.0343 41.7525 36.7756 41.5579 36.521 41.358C35.8798 40.8566 35.264 40.3233 34.6761 39.7602C34.0046 39.1123 33.3484 38.3886 32.8641 37.66C32.3733 36.9214 32.0982 36.2362 32.0982 35.6542H31ZM37.0399 42.4326L37.3507 42.885L37.3524 42.8839L37.3562 42.8812L37.3694 42.8724L37.4182 42.8384C37.4605 42.8082 37.5215 42.7648 37.5983 42.7088C38.5011 42.0528 39.3589 41.337 40.1659 40.5662C40.8676 39.8914 41.5852 39.1068 42.1305 38.2843C42.6697 37.4711 43.0798 36.5629 43.0798 35.6542H41.9817C41.9817 36.2472 41.7055 36.9379 41.2152 37.6775C40.7314 38.4078 40.0758 39.1293 39.4048 39.7745C38.5842 40.5579 37.7088 41.2817 36.7852 41.9406L36.7418 41.9708L36.7313 41.9785L36.7291 41.9796L37.0399 42.4326ZM43.0798 35.6542C43.0822 34.6942 42.7126 33.7706 42.0487 33.0773L41.258 33.8394C41.7246 34.3281 41.984 34.9785 41.9817 35.6542H43.0798ZM42.0487 33.0773C41.7239 32.7379 41.3339 32.4676 40.9022 32.2825C40.4705 32.0974 40.0058 32.0013 39.5361 32V33.0982C40.1785 33.0982 40.7973 33.3623 41.258 33.8394L42.0487 33.0773ZM36.5782 33.8043C36.5666 33.8235 36.5897 33.7834 36.6193 33.7466C36.6703 33.6843 36.7345 33.6342 36.8072 33.5997C36.88 33.5652 36.9594 33.5473 37.0399 33.5473V34.6455C37.1364 34.6455 37.2312 34.6203 37.315 34.5724C37.3988 34.5246 37.4686 34.4557 37.5176 34.3726L37.5209 34.3671L36.5782 33.8043ZM36.5589 34.3671L36.5628 34.3726C36.5771 34.3964 36.5931 34.4191 36.6105 34.4407C36.6468 34.4846 36.7879 34.6455 37.0399 34.6455V33.5473C37.1205 33.5472 37.2007 33.5651 37.2735 33.5996C37.3463 33.634 37.4106 33.6843 37.4616 33.7466C37.4918 33.7834 37.5132 33.8241 37.5017 33.8043L36.5589 34.3671Z" fill="#DDB43F"/>
<path d="M40.8284 32.5L41.8096 31.1125C42.1995 30.5611 43.0125 30.5467 43.4216 31.084L47.1578 35.9904C47.4304 36.3483 47.4304 36.8441 47.1578 37.202L43.4216 42.1084C43.0125 42.6457 42.1995 42.6313 41.8096 42.0799L40.2641 39.8943" stroke="#DDB43F" stroke-linejoin="round"/>
</svg>
