<svg width="80" height="80" viewBox="0 0 80 80" fill="none" xmlns="http://www.w3.org/2000/svg">
<circle cx="40" cy="40" r="40" fill="#DDB43F" fill-opacity="0.2"/>
<path d="M58.625 58.5H20.375C18.5143 58.5 17 56.9857 17 55.125V25.875C17 24.0142 18.5143 22.5 20.375 22.5H58.625C60.4858 22.5 62 24.0142 62 25.875V55.125C62 56.9857 60.4858 58.5 58.625 58.5ZM20.375 24.75C20.0766 24.75 19.7905 24.8685 19.5795 25.0795C19.3685 25.2905 19.25 25.5766 19.25 25.875V55.125C19.25 55.4234 19.3685 55.7095 19.5795 55.9205C19.7905 56.1315 20.0766 56.25 20.375 56.25H58.625C58.9234 56.25 59.2095 56.1315 59.4205 55.9205C59.6315 55.7095 59.75 55.4234 59.75 55.125V25.875C59.75 25.5766 59.6315 25.2905 59.4205 25.0795C59.2095 24.8685 58.9234 24.75 58.625 24.75H20.375Z" fill="#DDB43F"/>
<path d="M38.375 31.5001H24.875C24.5766 31.5001 24.2905 31.3815 24.0795 31.1706C23.8685 30.9596 23.75 30.6734 23.75 30.3751C23.75 30.0767 23.8685 29.7906 24.0795 29.5796C24.2905 29.3686 24.5766 29.2501 24.875 29.2501H38.375C38.6734 29.2501 38.9595 29.3686 39.1705 29.5796C39.3815 29.7906 39.5 30.0767 39.5 30.3751C39.5 30.6734 39.3815 30.9596 39.1705 31.1706C38.9595 31.3815 38.6734 31.5001 38.375 31.5001ZM38.375 38.2501H24.875C24.5766 38.2501 24.2905 38.1315 24.0795 37.9206C23.8685 37.7096 23.75 37.4234 23.75 37.1251C23.75 36.8267 23.8685 36.5406 24.0795 36.3296C24.2905 36.1186 24.5766 36.0001 24.875 36.0001H38.375C38.6734 36.0001 38.9595 36.1186 39.1705 36.3296C39.3815 36.5406 39.5 36.8267 39.5 37.1251C39.5 37.4234 39.3815 37.7096 39.1705 37.9206C38.9595 38.1315 38.6734 38.2501 38.375 38.2501ZM38.375 42.7501H24.875C24.5766 42.7501 24.2905 42.6315 24.0795 42.4206C23.8685 42.2096 23.75 41.9234 23.75 41.6251C23.75 41.3267 23.8685 41.0406 24.0795 40.8296C24.2905 40.6186 24.5766 40.5001 24.875 40.5001H38.375C38.6734 40.5001 38.9595 40.6186 39.1705 40.8296C39.3815 41.0406 39.5 41.3267 39.5 41.6251C39.5 41.9234 39.3815 42.2096 39.1705 42.4206C38.9595 42.6315 38.6734 42.7501 38.375 42.7501ZM38.375 47.2501H24.875C24.5766 47.2501 24.2905 47.1315 24.0795 46.9206C23.8685 46.7096 23.75 46.4234 23.75 46.1251C23.75 45.8267 23.8685 45.5406 24.0795 45.3296C24.2905 45.1186 24.5766 45.0001 24.875 45.0001H38.375C38.6734 45.0001 38.9595 45.1186 39.1705 45.3296C39.3815 45.5406 39.5 45.8267 39.5 46.1251C39.5 46.4234 39.3815 46.7096 39.1705 46.9206C38.9595 47.1315 38.6734 47.2501 38.375 47.2501ZM36.125 51.7501H24.875C24.5766 51.7501 24.2905 51.6315 24.0795 51.4206C23.8685 51.2096 23.75 50.9234 23.75 50.6251C23.75 50.3267 23.8685 50.0406 24.0795 49.8296C24.2905 49.6186 24.5766 49.5001 24.875 49.5001H36.125C36.4234 49.5001 36.7095 49.6186 36.9205 49.8296C37.1315 50.0406 37.25 50.3267 37.25 50.6251C37.25 50.9234 37.1315 51.2096 36.9205 51.4206C36.7095 51.6315 36.4234 51.7501 36.125 51.7501ZM57.3717 32.7241L55.5425 31.3943L54.8428 29.2433H52.5815L50.7522 27.9136L48.923 29.2433H46.6618L45.962 31.3943L44.1327 32.7241L44.8325 34.8751L44.1327 37.0261L45.962 38.3558L46.259 39.2693C46.2545 39.3053 46.2545 39.3391 46.2545 39.3751V50.6251C46.2541 50.8479 46.3199 51.0658 46.4435 51.2511C46.567 51.4365 46.7429 51.581 46.9487 51.6663C47.1545 51.7516 47.381 51.7739 47.5995 51.7304C47.818 51.6868 48.0187 51.5793 48.176 51.4216L50.7545 48.8431L53.333 51.4216C53.4895 51.5804 53.6901 51.6885 53.9087 51.7318C54.1274 51.7751 54.3541 51.7517 54.5592 51.6646C54.765 51.5795 54.9409 51.4354 55.0646 51.2503C55.1884 51.0653 55.2545 50.8477 55.2545 50.6251V39.3751C55.2542 39.3398 55.2527 39.3045 55.25 39.2693L55.547 38.3558L57.3762 37.0261L56.6765 34.8751L57.3762 32.7241H57.3717ZM46.7742 33.5836L47.8722 32.7848L48.293 31.4933H49.652L50.75 30.6946L51.848 31.4933H53.207L53.6277 32.7848L54.7257 33.5836L54.305 34.8751L54.7257 36.1666L53.6277 36.9653L53.207 38.2568H51.848L50.75 39.0556L49.652 38.2568H48.293L47.8722 36.9653L46.7742 36.1666L47.195 34.8751L46.7742 33.5836ZM51.5465 46.4536C51.3355 46.2427 51.0494 46.1242 50.7511 46.1242C50.4528 46.1242 50.1667 46.2427 49.9558 46.4536L48.5023 47.9071V40.5046H48.923L50.7522 41.8343L52.5815 40.5046H53.0023V47.9071L51.5488 46.4536H51.5465Z" fill="#DDB43F"/>
</svg>
