<svg width="80" height="80" viewBox="0 0 80 80" fill="none" xmlns="http://www.w3.org/2000/svg">
<circle cx="40" cy="40" r="40" fill="#DDB43F" fill-opacity="0.2"/>
<rect x="33" y="30.5" width="33.2085" height="18.0835" rx="1.5" stroke="#DDB43F" stroke-width="3"/>
<path d="M49.2948 45C48.7425 45 48.2948 44.5523 48.2948 44V42.4064H46.3147C46.0072 42.4064 45.7579 42.1571 45.7579 41.8495C45.7579 41.542 46.0072 41.2926 46.3147 41.2926H48.2948V40.301H46.3147C46.0072 40.301 45.7579 40.0517 45.7579 39.7441C45.7579 39.4366 46.0072 39.1872 46.3147 39.1872H47.8191L46.01 35.3801C45.7056 34.7393 46.1728 34 46.8822 34C47.2817 34 47.6399 34.246 47.7834 34.6188L48.4966 36.4716C48.7705 37.2344 49.0443 37.9972 49.347 38.7601H49.4191C49.7074 37.982 49.9957 37.2191 50.284 36.4716L51.0054 34.5974C51.1439 34.2375 51.4898 34 51.8754 34C52.5612 34 53.0123 34.7155 52.7165 35.3343L50.875 39.1872H52.4082C52.7157 39.1872 52.9651 39.4366 52.9651 39.7441C52.9651 40.0517 52.7157 40.301 52.4082 40.301H50.3993V41.2926H52.4082C52.7157 41.2926 52.9651 41.542 52.9651 41.8495C52.9651 42.1571 52.7157 42.4064 52.4082 42.4064H50.3993V44C50.3993 44.5523 49.9516 45 49.3993 45H49.2948Z" fill="#DDB43F"/>
<path d="M27.2083 44.8124L21.2499 44.8124" stroke="#DDB43F" stroke-width="3" stroke-linecap="round"/>
<path d="M27.2083 39.3125L17.1249 39.3125" stroke="#DDB43F" stroke-width="3" stroke-linecap="round"/>
<path d="M27.2083 34.0417L12.9998 34.0417" stroke="#DDB43F" stroke-width="3" stroke-linecap="round"/>
</svg>
