<svg fill="none" height="64" viewBox="0 0 64 64" width="64" xmlns="http://www.w3.org/2000/svg"><path d="m0 32c0-17.6731 14.3269-32 32-32 17.6731 0 32 14.3269 32 32 0 17.6731-14.3269 32-32 32-17.6731 0-32-14.3269-32-32z" fill="#1bb34e"/><path clip-rule="evenodd" d="m50 20h-36v24h36zm-29.1716 6.8284c.7502-.7501 1.1716-1.7675 1.1716-2.8284h20c0 1.0609.4214 2.0783 1.1716 2.8284.7501.7502 1.7675 1.1716 2.8284 1.1716v8c-1.0609 0-2.0783.4214-2.8284 1.1716-.7502.7501-1.1716 1.7675-1.1716 2.8284h-20c0-1.0609-.4214-2.0783-1.1716-2.8284-.7501-.7502-1.7675-1.1716-2.8284-1.1716v-8c1.0609 0 2.0783-.4214 2.8284-1.1716zm11.1716.1716c1.3261 0 2.5979.5268 3.5355 1.4645.9377.9376 1.4645 2.2094 1.4645 3.5355s-.5268 2.5979-1.4645 3.5355c-.9376.9377-2.2094 1.4645-3.5355 1.4645s-2.5979-.5268-3.5355-1.4645c-.9377-.9376-1.4645-2.2094-1.4645-3.5355s.5268-2.5979 1.4645-3.5355c.9376-.9377 2.2094-1.4645 3.5355-1.4645z" fill="#fff" fill-rule="evenodd"/></svg>