<svg enable-background="new 0 0 100 100" viewBox="0 0 100 100" xmlns="http://www.w3.org/2000/svg" xmlns:xlink="http://www.w3.org/1999/xlink"><filter id="a" height="103%" width="103%" x="-1.5%" y="-1.5%"><feGaussianBlur in="SourceAlpha" result="shadowBlurInner1" stdDeviation="1"/><feOffset dx="1" dy="1" in="shadowBlurInner1" result="shadowOffsetInner1"/><feComposite in="shadowOffsetInner1" in2="SourceAlpha" k2="-1" k3="1" operator="arithmetic" result="shadowInnerInner1"/><feColorMatrix in="shadowInnerInner1" type="matrix" values="0 0 0 0 0   0 0 0 0 0   0 0 0 0 0  0 0 0 0.3 0"/></filter><linearGradient id="b" gradientTransform="matrix(100 0 0 -100 0 10000)" gradientUnits="userSpaceOnUse" x1="1" x2="0" y1="99.5" y2="99.5"><stop offset="0" stop-color="#b3b3b3"/><stop offset="1" stop-color="#777"/></linearGradient><radialGradient id="c" cx=".5" cy="99.5" gradientTransform="matrix(100 0 0 -100 0 10000)" gradientUnits="userSpaceOnUse" r=".5522"><stop offset="0" stop-opacity="0"/><stop offset="1"/></radialGradient><circle cx="50" cy="50" fill="url(#b)" r="50"/><path d="m49 5.6h2.1c1.2 0 2.4.1 3.5.2-.5 1.8-1 3.6-1.4 5.4-6.7-.5-13.4.7-19.5 3.5-.9-1.6-1.9-3.2-2.8-4.8 5.6-2.7 11.8-4.2 18.1-4.3zm13.3 7.5c.5-1.8 1-3.6 1.4-5.3 5 1.7 9.7 4.1 13.8 7.4 2.6 2.1 5 4.4 7.1 7-1.6.9-3.2 1.9-4.9 2.8-4.5-5.6-10.6-9.7-17.4-11.9zm-53.5 20.2c3-7.3 7.9-13.7 14.1-18.5.9 1.6 1.9 3.2 2.8 4.8-5 4-9 9.3-11.5 15.1-1.8-.5-3.6-.9-5.4-1.4zm38-17.5c6-.6 12.2.4 17.7 3 5.2 2.4 9.8 6.2 13.2 10.8 3.4 4.7 5.7 10.2 6.4 16 .9 6.7-.3 13.7-3.4 19.8s-8 11.2-13.9 14.5c-5.6 3.1-12.1 4.7-18.5 4.3-5.3-.2-10.7-1.8-15.4-4.5-5.3-3.1-9.8-7.6-12.8-13-3.1-5.5-4.6-11.9-4.3-18.3.3-5.8 2.1-11.6 5.2-16.6 3.6-5.7 8.9-10.4 15-13.1 3.4-1.5 7.1-2.5 10.8-2.9zm-3.3 5.8c-5.4 1.1-10.4 3.9-14.2 7.8-4.1 3.9-7 9.2-8 14.8-.5 2.6-.5 5.3-.4 7.9.2 5.8 2.3 11.4 6 15.9 1 1.2 2.1 2.4 3.2 3.5 3.8 3.6 8.6 6.1 13.7 7.1 2.8.5 5.7.5 8.5.4-.6-3.2-1-6.5-2.1-9.7-.5-1.4-1.2-2.7-2.1-4-.2-.3-.4-.6-.6-.7-1-.6-2.1-1.1-3.3-1.4-1.7-.6-3.5-1.1-4.7-2.6-1.1-1.2-1.3-2.9-1.3-4.5 0-2.2.8-4.3 1.4-6.3-1.8-.1-3.5-.2-5.3-.7-1.5-.3-2.8-1-4.1-1.7-1.4-.7-2.5-1.9-3.5-3.1s-1.4-2.7-1.7-4.2c0-.5-.4-1.3.3-1.5 1.7-.3 3.4-.2 5.1-.2 2.4 0 4.8.5 7.1 1 2.8.7 5.4 2.1 7.5 4.1.6-.5 1.3-.8 2-1.1 0-1.3.2-2.7.4-4 .5-3.6 2.2-6.8 4.4-9.7.3-.4.8-.8 1.4-.6s1.1.7 1.6 1.2c1 1.4 2 2.8 2.3 4.5.6 2.7.3 5.5-.1 8.2.8.2 1.7.4 2.4.9.6.5.9 1.2 1.2 1.9.5 0 .9.2 1.2.5.8.9 1.2 2.2 1.2 3.4.4.3.7.5 1.1.6 2 .7 4.1 1 6 1.7.9.5 1.9 0 2.8.1.8 0 1.9.2 2.1 1.1s.2 1.8-.3 2.6c-.4.5-.2 1.3-.6 1.8-.8 1.8-2.5 2.8-4 4-.4.4-1.1.4-1.3.9-.6 1.2-1.6 2.2-2.6 3.1-1 .8-2.2 1.3-3.5 1.5-1.4.2-2.7.1-4.1 0 .7 3.6 1.8 7 3 10.4 4.2-1.8 7.8-4.9 10.8-8.4 4.8-5.9 7.1-13.7 6.4-21.2-.5-4.8-2.2-9.6-4.9-13.6-3.5-5.2-8.8-9.2-14.7-11.2-4.9-1.5-10.4-1.7-15.7-.5zm-37.9 27.2c.1-2.2.3-4.4.7-6.5 1.8.5 3.5 1 5.3 1.4-.3 2.6-.5 5.1-.4 7.7.1 3.8.9 7.6 2.1 11.2.2.4-.1.8-.5 1-1.4.7-2.7 1.7-4.2 2.4-1.8-4.7-2.8-9.6-3-14.6zm80.9 15.1c.3-.1.5 0 .8.1 1.5.5 3 .7 4.5 1.2-1.7 4.9-4.4 9.5-7.8 13.5-2.5 3-5.5 5.6-8.7 7.9-.9-1.6-1.8-3.2-2.7-4.8 2-1.5 3.9-3.1 5.7-4.9 3.4-3.5 6.1-7.8 7.9-12.3 0-.2.1-.5.3-.7zm-73.6 10.5c1.6-1 3.2-1.9 4.7-2.8 3.9 5.8 9.4 10.6 15.7 13.6-.5 1.8-1 3.6-1.4 5.4-3.9-1.8-7.7-4.1-10.9-7-3.1-2.6-5.8-5.8-8.1-9.2zm29.3 13.8c7.3 1.5 15 .8 22-1.9.9 1.6 1.9 3.2 2.8 4.8-5 2-10.4 3.2-15.8 3.4h-2.4c-2.7-.1-5.4-.4-8-.9.5-1.9 1-3.7 1.4-5.4zm42.7-55.5c1.6-.9 3.2-1.8 4.8-2.7 3.1 6.1 4.8 12.9 4.8 19.8 0 2.1-.1 4.2-.4 6.3-1.8-.5-3.6-1-5.4-1.4.9-7.5-.4-15.2-3.8-22z" fill="#ccc"/><circle cx="50" cy="50" fill="url(#c)" fill-opacity=".05" r="50"/><g filter="url(#a)"><circle cx="50" cy="50" fill="#8e3f3f" r="50"/></g></svg>