<svg height="100" viewBox="0 0 100 100" width="100" xmlns="http://www.w3.org/2000/svg" xmlns:xlink="http://www.w3.org/1999/xlink"><defs><linearGradient id="a" x1="100%" x2="0%" y1="50%" y2="50%"><stop offset="0" stop-color="#ddbb1a"/><stop offset="1" stop-color="#b8860b"/></linearGradient><radialGradient id="b" cx="50%" cy="50%" r="55.220703%"><stop offset="0" stop-opacity="0"/><stop offset="1"/></radialGradient><circle id="c" cx="50" cy="50" r="50"/><filter id="d" height="103%" width="103%" x="-1.5%" y="-1.5%"><feGaussianBlur in="SourceAlpha" result="shadowBlurInner1" stdDeviation="1"/><feOffset dx="1" dy="1" in="shadowBlurInner1" result="shadowOffsetInner1"/><feComposite in="shadowOffsetInner1" in2="SourceAlpha" k2="-1" k3="1" operator="arithmetic" result="shadowInnerInner1"/><feColorMatrix in="shadowInnerInner1" type="matrix" values="0 0 0 0 0   0 0 0 0 0   0 0 0 0 0  0 0 0 0.3 0"/></filter></defs><g fill="none" fill-rule="evenodd"><circle cx="50" cy="50" fill="url(#a)" r="50"/><path d="m48.95669 5.55555556h2.0998885c1.1815097.0412637 2.3612996.10487857 3.5376499.21663442-.4712281 1.8035676-.9648136 3.60369654-1.4308822 5.40898342-6.6539464-.5312701-13.4248398.6722545-19.4888911 3.4609929-.9149392-1.5989684-1.8539556-3.1841822-2.784373-4.77455401 5.6358186-2.67526327 11.8271359-4.17107242 18.0666079-4.31205673zm13.376685 7.49623894c.4884262-1.7760584.9665335-3.55383619 1.4377615-5.33505261 4.9633727 1.65054803 9.6704937 4.10917691 13.7739612 7.36385131 2.6055127 2.0563077 4.9650926 4.4186546 7.0632612 6.9907586-1.6217812.926714-3.2298039 1.8723404-4.8567445 2.7870191-4.5936135-5.4210187-10.6697035-9.5663013-17.4182394-11.8065764zm-53.54457595 20.2278101c2.98903045-7.2641307 7.87501165-13.7459704 14.11964315-18.5274017.9372966 1.6006877 1.8522357 3.21513 2.7860928 4.8192564-5.0201265 3.992263-9.0014875 9.2533849-11.5313286 15.1420589-1.7903225-.4779712-3.5806451-.9628197-5.37440735-1.4339136zm37.96825345-17.4493875c6.039974-.5931657 12.234731.4401461 17.7381242 3.0053728 5.2299433 2.4208038 9.8269964 6.1878358 13.24082 10.8300022 3.4413405 4.6593595 5.6719346 10.2058887 6.3925351 15.9552976.8667844 6.7328606-.3112857 13.7184613-3.3897462 19.7739094-3.056103 6.0709219-7.9610022 11.1910595-13.8926282 14.5110681-5.5825044 3.1497958-12.0679093 4.6576402-18.4673237 4.3258113-5.4242819-.2596175-10.7780516-1.843112-15.4696942-4.5768322-5.3348518-3.0896196-9.8080786-7.6441005-12.8039882-13.0307328-3.0939389-5.5276166-4.5867343-11.9286482-4.2788882-18.2523104.2579715-5.840533 2.0568932-11.6002579 5.1645905-16.5501826 3.5754858-5.7287772 8.8742215-10.3675049 15.036302-13.1356115 3.3880265-1.5319149 7.028865-2.4981732 10.7298969-2.8557919zm-3.2091661 5.7408123c-5.369248 1.1003654-10.3704565 3.868472-14.1591988 7.8263486-4.1344241 3.9458414-6.9927489 9.2086826-7.9902389 14.8394584-.5056243 2.6064905-.45403 5.2714378-.4110347 7.9123147.2235753 5.7597249 2.3423817 11.4266065 5.967742 15.9105953.9837315 1.243069 2.1188063 2.3520309 3.2470019 3.4627122 3.7560659 3.6260477 8.5852934 6.1207823 13.7172075 7.0870406 2.8084504.5484634 5.6874129.5433054 8.5354189.4349882-.6225714-3.2271652-1.0043693-6.521384-2.0551734-9.650548-.5073441-1.4064045-1.2399833-2.7216849-2.0534536-3.9750699-.1788603-.2699333-.36288-.551902-.6432091-.7255534-1.0353258-.5880077-2.1119271-1.1192778-3.2762387-1.3943692-1.6578972-.6069203-3.5428094-1.0762948-4.6606861-2.5583494-1.1350749-1.1846121-1.2864182-2.9108103-1.3190946-4.4667957-.0378358-2.2007307.8151901-4.2621964 1.4033653-6.3425746-1.7628056-.1220718-3.5445292-.2200731-5.2574603-.6791318-1.460119-.3490221-2.8136098-1.0264345-4.1430232-1.7090049-1.3930464-.7238341-2.4868458-1.8671825-3.4894952-3.0517946-.9854514-1.1828927-1.3552106-2.7234042-1.731849-4.1813883-.0395557-.4762519-.3560008-1.3049646.2837687-1.5009671 1.6991726-.2578982 3.4258622-.2235117 5.1405131-.2080379 2.3956959.0137546 4.7501163.5123577 7.0752999 1.0315926 2.7637353.7307113 5.4036442 2.0752203 7.4777355 4.0610359.6156921-.4642167 1.2984568-.830432 2.0156177-1.1158393-.0395556-1.3427896.2459329-2.6615087.4093149-3.9871051.498745-3.5589942 2.249512-6.7981947 4.3511202-9.6608639.3130055-.4143564.8323882-.7805717 1.3758483-.6223942.626011.2028799 1.1333551.6602192 1.551269 1.151945 1.0215673 1.3565442 2.0156177 2.8300021 2.3114251 4.5355684.6105327 2.6838599.3456819 5.4657211-.1186669 8.1513003.8220693.2321083 1.6940132.4143563 2.3905364.9421878.6174119.4573394.9097797 1.1966473 1.2485823 1.8585859.4591894-.0292285.889142.1805287 1.1918286.5175155.8375477.9026435 1.1797899 2.1680637 1.1952682 3.3767462.3577206.2527402.7240402.5003224 1.1419541.6413067 1.986381.6567806 4.0518732 1.0436278 6.0365344 1.7021277.897741.4590587 1.886632-.0498603 2.8376871.0670535.7962722.0464217 1.8797527.2424242 2.122246 1.1433484.1754207.8579411.2098169 1.837954-.3216045 2.5858586-.3783583.5381474-.2442131 1.2533849-.5726969 1.8173221-.7721949 1.7880937-2.5229618 2.7973351-3.9693223 3.9785085-.3886772.3730926-1.0800409.3868472-1.2795389.9439072-.5744167 1.2413496-1.6080227 2.1732215-2.6003533 3.0775843-1.0095287.7599398-2.2185554 1.2602622-3.4619783 1.4683-1.3638096.1719321-2.7448173.1323877-4.1120666.0309478.6879242 3.5589942 1.8264386 7.0148292 2.9735522 10.4483129 4.2358929-1.8121642 7.8182579-4.8742746 10.7728921-8.364496 4.8361067-5.8525682 7.1440923-13.6857941 6.3994144-21.2284548-.4609092-4.8433268-2.1789998-9.559424-4.9306964-13.5705996-3.5393697-5.1837524-8.7744724-9.2121212-14.7336154-11.2082527-5.087199-1.7313561-10.6456261-1.982377-15.8824487-.8029229zm-37.99233084 27.2495165c.09458957-2.1852568.28892814-4.367075.65352794-6.5248227 1.76968486.4624973 3.53077068.9507844 5.2935763 1.4339136-.2682904 2.566946-.5331412 5.1476467-.4247932 7.7335053.1152273 3.8117343.8685043 7.587363 2.0998885 11.1910595.1977782.4143563-.0980292.8132388-.4763875.969697-1.424003.7427466-2.74653712 1.6643026-4.18773821 2.3709434-1.79032259-4.6662368-2.79125223-9.6247582-2.95807383-14.6193853zm80.90331934 15.1111111c.2562517-.1427036.5383006.0240705.7945524.0790888 1.4755973.4607779 3.001069.7496239 4.4697871 1.2293144-1.7387283 4.9344509-4.407874 9.5422308-7.7976202 13.5276166-2.5401599 2.9864603-5.4947941 5.6118633-8.7091197 7.8538577-.9235382-1.5869332-1.8419169-3.177305-2.7379381-4.779712 1.9915404-1.5181603 3.945245-3.1033742 5.6702148-4.9275736 3.4172632-3.5435203 6.112206-7.7678917 7.9369248-12.3361273.1066283-.2235117.1668216-.4917257.3731989-.6464646zm-73.5769272 10.4431549c1.5615878-.959381 3.1575719-1.8603051 4.7380776-2.7870191 3.9074091 5.835375 9.3936042 10.5944552 15.7465837 13.5981088-.4832667 1.8018482-.961374 3.6071352-1.4343218 5.4124221-3.9435252-1.794971-7.6583156-4.1143349-10.9328345-6.9546529-3.1231757-2.6907372-5.8335968-5.8422524-8.117505-9.2688589zm29.3399649 13.7889534c7.3160733 1.4803353 15.0345822.8046422 21.9877755-1.9067268.925258 1.6058457 1.850516 3.2134107 2.7878126 4.8140984-4.9994887 2.0442725-10.3584178 3.220288-15.762062 3.3733075h-2.4042949c-2.7001022-.1031592-5.3933253-.4057597-8.0401134-.9473458.471228-1.7794971.9682532-3.5521169 1.4308822-5.3333333zm42.6908527-55.44294c1.6011435-.8992048 3.17477-1.8465506 4.7741936-2.7474748 3.0578229 6.119063 4.7673144 12.9310123 4.7569955 19.7825059.0103189 2.1199227-.1427443 4.238126-.4196337 6.3408554-1.7954821-.465936-3.5858046-.9525038-5.3761272-1.4339136.9544947-7.4756071-.3817979-15.1970772-3.7354282-21.9419729z" fill="#ffd700" fill-rule="nonzero"/><use fill="url(#b)" fill-opacity=".05" fill-rule="evenodd" xlink:href="#c"/><use fill="#000" filter="url(#d)" xlink:href="#c"/></g></svg>