<svg enable-background="new 0 0 344.5 345.1" viewBox="0 0 344.5 345.1" xmlns="http://www.w3.org/2000/svg"><g fill="#ddb43f"><path d="m168.8 25.7h6.9c3.9.1 7.8.3 11.7.7-1.6 6-3.2 11.9-4.7 17.9-22-1.8-44.3 2.2-64.4 11.4-3-5.3-6.1-10.5-9.2-15.8 18.6-8.8 39.1-13.7 59.7-14.2z"/><path d="m213 50.5c1.6-5.9 3.2-11.7 4.7-17.6 16.4 5.5 31.9 13.6 45.5 24.3 8.6 6.8 16.4 14.6 23.3 23.1-5.4 3.1-10.7 6.2-16 9.2-15.1-17.9-35.2-31.6-57.5-39z"/><path d="m36.1 117.3c9.9-24 26-45.4 46.6-61.2 3.1 5.3 6.1 10.6 9.2 15.9-16.6 13.2-29.7 30.6-38.1 50-5.8-1.5-11.8-3.1-17.7-4.7z"/><path d="m25.4 168.7c.3-7.2 1-14.4 2.2-21.6 5.8 1.5 11.7 3.1 17.5 4.7-.9 8.5-1.8 17-1.4 25.6.4 12.6 2.9 25.1 6.9 37 .7 1.4-.3 2.7-1.6 3.2-4.7 2.5-9.1 5.5-13.8 7.8-5.9-15.4-9.2-31.8-9.8-48.3z"/><path d="m49.6 253.1c5.2-3.2 10.4-6.1 15.7-9.2 12.9 19.3 31 35 52 44.9-1.6 6-3.2 11.9-4.7 17.9-13-5.9-25.3-13.6-36.1-23-10.4-8.9-19.3-19.3-26.9-30.6z"/><path d="m161.5 59.6c20-2 40.4 1.5 58.6 9.9 17.3 8 32.5 20.4 43.7 35.8 11.4 15.4 18.7 33.7 21.1 52.7 2.9 22.2-1 45.3-11.2 65.3-10.1 20.1-26.3 37-45.9 47.9-18.4 10.4-39.9 15.4-61 14.3-17.9-.9-35.6-6.1-51.1-15.1-17.6-10.2-32.4-25.3-42.3-43.1-10.2-18.3-15.2-39.4-14.1-60.3.9-19.3 6.8-38.3 17.1-54.7 11.8-18.9 29.3-34.3 49.7-43.4 11.2-4.9 23.2-8.1 35.4-9.3m-10.6 19c-17.7 3.6-34.3 12.8-46.8 25.9-13.7 13-23.1 30.4-26.4 49-1.7 8.6-1.5 17.4-1.4 26.1.7 19 7.7 37.8 19.7 52.6 3.2 4.1 7 7.8 10.7 11.4 12.4 12 28.4 20.2 45.3 23.4 9.3 1.8 18.8 1.8 28.2 1.4-2.1-10.7-3.3-21.5-6.8-31.9-1.7-4.6-4.1-9-6.8-13.1-.6-.9-1.2-1.8-2.1-2.4-3.4-1.9-7-3.7-10.8-4.6-5.5-2-11.7-3.6-15.4-8.5-3.7-3.9-4.2-9.6-4.4-14.8-.1-7.3 2.7-14.1 4.6-21-5.8-.4-11.7-.7-17.4-2.2-4.8-1.2-9.3-3.4-13.7-5.6-4.6-2.4-8.2-6.2-11.5-10.1s-4.5-9-5.7-13.8c-.1-1.6-1.2-4.3.9-5 5.6-.9 11.3-.7 17-.7 7.9 0 15.7 1.7 23.4 3.4 9.1 2.4 17.8 6.9 24.7 13.4 2-1.5 4.3-2.7 6.7-3.7-.1-4.4.8-8.8 1.4-13.2 1.6-11.8 7.4-22.5 14.4-31.9 1-1.4 2.7-2.6 4.5-2.1 2.1.7 3.7 2.2 5.1 3.8 3.4 4.5 6.7 9.4 7.6 15 2 8.9 1.1 18.1-.4 26.9 2.7.8 5.6 1.4 7.9 3.1 2 1.5 3 4 4.1 6.1 1.5-.1 2.9.6 3.9 1.7 2.8 3 3.9 7.2 3.9 11.2 1.2.8 2.4 1.7 3.8 2.1 6.6 2.2 13.4 3.4 19.9 5.6 3 1.5 6.2-.2 9.4.2 2.6.2 6.2.8 7 3.8.6 2.8.7 6.1-1.1 8.5-1.2 1.8-.8 4.1-1.9 6-2.6 5.9-8.3 9.2-13.1 13.1-1.3 1.2-3.6 1.3-4.2 3.1-1.9 4.1-5.3 7.2-8.6 10.2-3.3 2.5-7.3 4.2-11.4 4.9-4.5.6-9.1.4-13.6.1 2.3 11.8 6 23.2 9.8 34.5 14-6 25.8-16.1 35.6-27.6 16-19.3 23.6-45.2 21.1-70.1-1.5-16-7.2-31.6-16.3-44.8-11.7-17.1-29-30.4-48.7-37-16.4-5.5-34.8-6.3-52.1-2.4z"/><path d="m287.6 115.5c5.3-3 10.5-6.1 15.8-9.1 10.1 20.2 15.7 42.7 15.7 65.4 0 7-.5 14-1.4 21-5.9-1.5-11.8-3.1-17.8-4.7 3.2-24.8-1.2-50.4-12.3-72.6z"/><path d="m292.7 218.6c.8-.5 1.8.1 2.6.3 4.9 1.5 9.9 2.5 14.8 4.1-5.7 16.3-14.6 31.5-25.8 44.7-8.4 9.9-18.2 18.5-28.8 26-3.1-5.2-6.1-10.5-9-15.8 6.6-5 13-10.3 18.7-16.3 11.3-11.7 20.2-25.7 26.2-40.8.4-.8.6-1.7 1.3-2.2z"/><path d="m146.6 298.6c24.2 4.9 49.7 2.7 72.6-6.3 3.1 5.3 6.1 10.6 9.2 15.9-16.5 6.8-34.2 10.6-52.1 11.1h-7.9c-8.9-.3-17.8-1.3-26.6-3.1 1.6-5.8 3.2-11.7 4.8-17.6z"/></g></svg>