<svg fill="none" height="36" viewBox="0 0 36 36" width="36" xmlns="http://www.w3.org/2000/svg">
<path clip-rule="evenodd" d="m30.725 30.71c-7.03 7.03-18.42 7.03-25.45 0-7.03-7.02-7.03-18.42 0-25.44 7.03-7.03 18.42-7.03 25.45 0s7.03 18.42 0 25.45zm-8.41 1.58c2.29-.69 4.44-1.93 6.25-3.74 2.44-2.44 3.85-5.52 4.24-8.7-2.97-1.6-3.68 3.73-7.14 2.81-3.34-.89-6.71-1.47-6.71 3.04 0 2.71 1.33 5.11 3.36 6.59zm-14.87-3.74c2.78 2.78 6.37 4.21 10.01 4.35.08-.4.21-.81.12-1.22-.68-3.12-3.84-1.71-5.29-5.56-.66-1.77-4.8-.15-6 1.13.35.45.73.88 1.14 1.3zm5.49-6.16c0-.63-.51-1.15-1.15-1.15s-1.15.52-1.15 1.15.52 1.15 1.15 1.15 1.15-.52 1.15-1.15zm-5.49-14.95c-4.25 4.25-5.39 10.43-3.44 15.73 2.38-.23 3.63-.78 4.17-4.54.42-2.9 5.58-3.03 5.58-6.19 0-2.91-1.16-5.54-3.02-7.47-1.18.66-2.29 1.47-3.29 2.47zm5.02-3.31c.52 1.73 1.49 3.2 3.39 3.2 2.19 0 4.58-1.88 4.78-4.02-2.73-.49-5.57-.21-8.17.83zm9.09 7.74c-1.41 0-3.31 2.44-3.31 3.84s1.86 2.81 2.94 1.57c.93-1.06 2.66-.56 2.66-1.96s-.89-3.44-2.29-3.44zm7.02-4.44c-.71-.71-1.47-1.33-2.27-1.86-1.6 1.07-2.66 2.89-2.66 4.96 0 3.29 2.67 5.96 5.96 5.96 1.16 0 2.23-.34 3.14-.91-.49-2.99-1.86-5.85-4.16-8.15z" fill="#757575" fill-rule="evenodd"/>
</svg>