<svg fill="none" height="33" viewBox="0 0 32 33" width="32" xmlns="http://www.w3.org/2000/svg" xmlns:xlink="http://www.w3.org/1999/xlink"><linearGradient id="a"><stop offset="0" stop-color="#ffa100"/><stop offset="1" stop-color="#ffd800"/></linearGradient><linearGradient id="b" gradientUnits="userSpaceOnUse" x1="3.96528" x2="18.6381" xlink:href="#a" y1="39.285" y2="10.8967"/><linearGradient id="c" gradientUnits="userSpaceOnUse" x1="6.99112" x2="24.9208" xlink:href="#a" y1="25.0406" y2="25.0406"/><path d="m29.6028 8.42675c-1.8129-2.92805-4.5223-5.19299-7.7253-6.45822-3.203-1.265236-6.7288-1.463234-10.0533-.56457-3.32453.89867-6.27038 2.84603-8.39977 5.55268-2.12938 2.70666-3.3286412 6.02816-3.41954719 9.47086.00459332.1664.01162289.3323.02108949.4975.2361297 4.0766 2.0218977 7.9095 4.9915577 10.7121 2.96966 2.8027 6.89847 4.3639 10.98177 4.3639 4.0834 0 8.0122-1.5612 10.9819-4.3639 2.9696-2.8026 4.7554-6.6346 4.9915-10.7112.0096-.165.0167-.3318.0211-.4984-.0708-2.8322-.8962-5.5942-2.391-8.00075zm.4659 8.42675c.0016 1.8486-.3612 3.6794-1.0675 5.3878-.7064 1.7084-1.7425 3.2608-3.0491 4.5685s-2.8581 2.3452-4.5659 3.053c-1.7077.7078-3.5382 1.0721-5.3869 1.0721-1.8486 0-3.6791-.3643-5.3868-1.0721-1.70777-.7078-3.25929-1.7453-4.56591-3.053s-2.34271-2.8601-3.04907-4.5685c-.70635-1.7084-1.06912-3.5392-1.06756-5.3878 0-.1413.00229-.282.00687-.4224v-.0036c-.00458-.1417-.00687-.2839-.00687-.4265-.00156-1.8486.36121-3.6795 1.06756-5.3878.70636-1.70839 1.74245-3.26081 3.04907-4.56854s2.85814-2.34515 4.56591-3.05295c1.7077-.7078 3.5382-1.07212 5.3868-1.07212 1.8487 0 3.6792.36432 5.3869 1.07212 1.7078.7078 3.2593 1.74522 4.5659 3.05295s2.3427 2.86015 3.0491 4.56854c.7063 1.7083 1.0691 3.5392 1.0675 5.3878 0 .1426-.0023.2848-.0069.4265v.0036c.0046.1404.0069.2811.0069.4224z" fill="#c66a00"/><path d="m31.9999 16.0001c0 .1426-.0018.2848-.0055.4265-.0046.1665-.0116.3323-.0211.4975-.2361 4.0766-2.0218 7.9095-4.9915 10.7122-2.9697 2.8026-6.8985 4.3638-10.9818 4.3638-4.0834 0-8.01218-1.5612-10.98184-4.3638-2.96966-2.8027-4.755423-6.6347-4.9915519-10.7112-.0096333-.1651-.01666283-.3319-.02108949-.4985-.00366666-.1417-.00549887-.2839-.00549887-.4265-.00442197-2.8089.73424626-5.569 2.14105026-8.00023l.01468-.02432c.05319-.09217.10776-.18342.16279-.27422l.0321-.05274c.06191-.10133.12504-.20206.18939-.30219l.011-.01743c.09126-.1417.18512-.28187.28157-.42051.04907-.07062.09859-.14125.14857-.21095s.10043-.1394.15179-.20865c.15317-.20727.31137-.41057.47462-.60989.05457-.0665.10914-.13253.16463-.19811.11006-.13115.22287-.26032.33842-.3875.11419-.12748.23098-.25313.35035-.37694.05962-.06191.11954-.12321.17976-.18389.06008-.06053.12107-.12106.18206-.18113l.00091-.00046c.061-.05962.1229-.11923.18527-.17792.061-.05778.122-.11465.18388-.17152l.00734-.00688c.18893-.17333.38198-.34162.57916-.50488.13161-.11006.26536-.21767.40126-.32283.20314-.15867.41026-.31199.62136-.45996.07062-.04952.14139-.09843.21232-.14674.1417-.09722.28537-.19153.431-.28294l.0023-.00183c.072-.0454.1449-.0908.21782-.13574.07383-.04494.14766-.089.22195-.133.07429-.04448.14904-.08774.22424-.12978.0752-.04264.15041-.08483.22653-.1261l.08805-.04816.06007-.0321.08025-.04219c.03852-.02018.07658-.04036.1151-.06007l.116-.05916c.1151-.0587.23066-.1151.3476-.17059.05227-.02476.10455-.04906.15729-.07337.06419-.02981.12885-.05915.19351-.08758l.01559-.00688c.03669-.01651.07337-.03256.11052-.04861.15958-.0697.32038-.13665.48238-.20085.0408-.016.0812-.0321.122-.04769l.1225-.04678c.0408-.01559.0816-.030723.1229-.045863.0307-.01146.0614-.02247.0922-.03347.1343-.048614.2694-.095388.4053-.140321.0413-.013761.0821-.02706.1234-.04036.0568-.01834.1137-.03623.171-.05411.0458-.01421.0917-.028431.1376-.041732.0229-.00688.0463-.014209.0697-.020639.0495-.01467.099-.029341.1485-.043101.0505-.01467.1009-.028431.1514-.042191.0697-.01926.1398-.038059.21-.055939.0431-.011.0857-.022.1288-.032561l.1096-.027509.0706-.016522c.0532-.01283.1069-.02522.1605-.03714.0431-.01009.0867-.019719.1298-.028889.0596-.0133.1192-.025682.1788-.038062.0482-.01009.0968-.019718.1454-.028889.039-.00779.078-.01513.117-.02247.0586-.01146.1178-.022001.177-.032101.0527-.00963.1054-.0188.1586-.02751l.0152-.00276c.0596-.00962.1187-.019251.1783-.028431.0464-.00687.0922-.013749.1385-.020169.0427-.00642.0858-.012381.1284-.018341.0546-.00734.1092-.014681.1637-.021561.0606-.00779.1206-.014669.1816-.021549.0638-.0073402.128-.0146794.1926-.0210994l.0298-.0027504c.0482-.0050001.0963-.0096299.1449-.0142099l.0785-.0068799c.0545-.00459.1091-.00917.1641-.0133.0665-.00504.133-.0096283.1995-.0137616.0514-.0032101.1027-.0064187.1541-.0091687l.0458-.0022908.0656-.0032101c.0477-.00229.0959-.0041305.1436-.0060005.0486-.0018401.0976-.00366883.1462-.00504884.045-.00137001.0904-.00229008.1353-.00321009.0436-.00091001.0867-.00183074.1303-.00229075.0687-.00092.1375-.00137902.2068-.00137902.0692 0 .138.00045902.2068.00137902.0435.00046001.0866.00138074.1302.00229075.0454.00092001.0903.00184008.1353.00321009.0486.00138001.0977.00320874.1463.00504884.0477.00183.0958.0036705.1435.0060005l.0656.0032101.0458.0022908c.0514.00275.1028.0059986.1541.0091687.0665.0041267.133.0087149.1995.0137616.055.00413.1096.00871.1642.0133l.0784.0068799c.0486.00458.0967.0091698.1449.0142099l.0298.0027504c.0647.00642.1289.0137592.1926.0210994.061.00688.1211.013759.1816.021549.0546.00688.1091.014221.1637.021561.0426.006.0858.011921.1284.018341.0463.00642.0922.013299.1385.020169.0596.00918.1188.018811.1784.028431l.0151.00276c.0532.00871.1059.01788.1587.02751.0591.01009.1183.020641.177.032101.039.00734.078.01468.1169.02247.0486.009171.0972.018799.1454.028889.0596.01238.1192.024762.1788.038062.0431.00917.0867.018799.1298.028889.0537.01192.1073.02431.1605.03714l.0706.016522.1096.027509c.0431.010541.0858.021551.1289.032561.0701.01788.1403.036679.21.055939.0504.01376.1009.027521.1513.042191.0495.01376.099.028431.1486.043101.0234.00643.0468.013759.0697.020639.0458.013301.0917.027522.1376.041732.0573.01788.1141.03577.171.05411.0412.0133.082.026599.1233.04036.1357.04494.2709.091713.4054.140321.0307.011.0614.022.0922.03347.0412.01514.082.030273.1229.045863l.1224.04678c.0408.01559.0812.03164.122.04769.1623.0642.3231.13115.4824.20085.0372.016.0738.0321.1105.04861l.0156.00688c.0647.02889.1293.05777.1935.08758.0528.02431.105.04861.1573.07337.117.05549.2325.11189.3476.17059l.116.05916c.0385.01971.0766.03989.1151.06007l.0803.04219.06.0321.088.04816c.0757.04081.1512.08284.2266.1261.0752.04266.1499.08592.2242.12978.0743.044.1481.088.222.133.0729.04494.1458.09034.2178.13574l.0023.00183c.1453.09126.289.18558.431.28294.0711.04815.1419.09706.2123.14674.211.14813.4181.30144.6214.45996.1357.10501.2695.21262.4013.32283.1971.16326.3902.33155.5791.50488l.0074.00688c.0619.05687.1229.11374.1839.17152.0623.05869.1242.1183.1852.17792l.0009.00046c.0615.06007.122.12014.1821.18113.0601.06054.12.12184.1797.18389.1193.12381.2361.24946.3504.37694.1156.12703.2284.2562.3384.3875.0555.06558.1101.13161.1646.19811.1633.19902.3215.40232.4747.60989.0513.06925.1019.1388.1518.20865.05.0697.0995.14033.1485.21095.0963.13848.1902.27865.2816.42051l.011.01743c.0642.09996.1273.20069.1894.30219l.0321.05274c.055.0908.1096.182.1628.27422l.0146.02432c1.4069 2.43123 2.1456 5.19133 2.1413 8.00023z" fill="#ffc400"/><path d="m30.0633 16.0109c0 .1428-.0025.2847-.007.4265v.0036c-.1112 3.6556-1.6415 7.1243-4.2666 9.6708s-6.1386 3.9707-9.7959 3.9707-7.17081-1.4242-9.79591-3.9707c-2.62509-2.5465-4.15539-6.0152-4.26655-9.6708v-.0036c-.00453-.1418-.00653-.2836-.00653-.4265-.00156-1.8486.3612-3.6794 1.06755-5.3877.70635-1.70837 1.74243-3.26077 3.04904-4.56849 1.3066-1.30772 2.85811-2.34513 4.5658-3.05292 1.7078-.70779 3.5382-1.0721 5.3868-1.0721s3.6791.36431 5.3868 1.0721c1.7078.70779 3.2593 1.7452 4.5659 3.05292s2.3427 2.86012 3.049 4.56849c.7064 1.7083 1.0691 3.5391 1.0676 5.3877z" fill="#5a3dff"/><path d="m29.8588 7.99979c-.0353-.06098-.0713-.12182-.1078-.18251-.017-.02843-.0335-.0564-.0504-.08437-.0248-.04128-.0495-.08209-.0752-.1229-.0188-.03118-.038-.06191-.0578-.09309-.039-.06282-.0789-.12565-.1188-.188-.0912-.1417-.1851-.28187-.2815-.42052-.0491-.07062-.0986-.14123-.1486-.21094-.05-.0697-.1004-.13941-.1518-.20865-.0559-.07521-.1123-.14995-.1692-.22424-.0477-.06191-.0954-.12336-.144-.1848-.0532-.06741-.1073-.13436-.1614-.20086-.0546-.06649-.1092-.13252-.1646-.1981-.1101-.13116-.2229-.26032-.3385-.3875-.1142-.12748-.2309-.25313-.3503-.37694-.0596-.06191-.1195-.1232-.1798-.18389-.0601-.06053-.121-.12106-.182-.18113l-.0009-.00046c-.061-.05962-.1229-.11923-.1853-.17793-.061-.05778-.122-.11465-.1839-.17151l-.0073-.00688c-.0624-.0564-.1252-.11327-.1885-.16921-.1284-.11467-.2586-.22656-.3907-.33567-.1316-.11006-.2654-.21767-.4013-.32284-.0678-.05273-.1357-.105-.2045-.15637-.0651-.04907-.1311-.09813-.1972-.14628l-.0179-.01284c-.0669-.04862-.1342-.09677-.2017-.14446-.0706-.04953-.1414-.09844-.2123-.14674-.0711-.04861-.1425-.09645-.2142-.14353-.0591-.03898-.1189-.0772-.1784-.11465-.0853-.05548-.172-.10914-.2586-.16233-.0738-.04494-.1477-.089-.222-.133-.0742-.044-.149-.08713-.2242-.12978-.2628-.1495-.5301-.29135-.802-.42556-.039-.01926-.0779-.03852-.1169-.05732-.0505-.02476-.1009-.04907-.1518-.07292-.0385-.01834-.077-.03622-.116-.05411-.1468-.06786-.2946-.13343-.4435-.19672-.0802-.03394-.1606-.06742-.2412-.10043-.1916-.0775-.3852-.15224-.581-.222413-.067-.0243-.1348-.048139-.2022-.07153-.067-.02339-.1339-.045861-.2013-.068331-.4843-.160501-.9786-.29792-1.483-.412254-.0431-.01009-.0867-.019719-.1298-.028889-.2045-.04448-.4106-.084988-.6181-.121522-.0528-.00963-.1055-.018799-.1587-.027519-.0647-.011-.1289-.02109-.1935-.03118-.0463-.00688-.0922-.013752-.1385-.020182-.3682-.053647-.7404-.0943136-1.1166-.1220005-.0555-.00413-.111-.0077989-.1665-.0114689-.0417-.0027501-.0834-.0050015-.1252-.0073415-.0555-.00321-.1114-.0059993-.1669-.0082493-.039-.0018301-.078-.0036692-.1169-.0049992l-.1275-.00459106c-.0523-.00138001-.105-.00274976-.1578-.00366977-.0421-.00092001-.0843-.00183074-.1265-.00229075-.0688-.00092-.1376-.00137902-.2068-.00137902-.0693 0-.138.00045902-.2068.00137902-.0422.00046001-.0844.00137074-.1266.00229075-.0527.00092001-.1055.00228976-.1578.00366977l-.1274.00459106c-.039.00137-.078.0032091-.117.0049992-.0555.00229-.1114.0049993-.1669.0082493-.0417.0023-.0835.0045914-.1252.0073415-.0555.00321-.1105.0073389-.166.0114689-.3765.0275069-.7488.0681735-1.1171.1220005-.0463.00643-.0921.013302-.1385.020182-.0646.01009-.1288.02018-.1935.03118-.0532.00872-.1059.017889-.1586.027519-.2073.036227-.4134.076735-.6182.121522-.0431.00917-.0867.018799-.1298.028889-.504.113721-.9983.251139-1.483.412254-.0674.02247-.1343.044941-.2013.068331-.0674.023391-.1353.04723-.2022.07153-.1958.070173-.3893.144913-.58101.222413-.0807.03302-.16111.0665-.24121.10043-.08805.03714-.17563.07566-.26229.11464-.05916.02614-.11833.05319-.17701.08025l-.00413.00183c-.039.01789-.0775.03577-.11601.05411-.05091.02385-.10135.04816-.15178.07292-.039.0188-.078.03806-.11694.05732-.19444.09584-.38628.19566-.57551.29944-.07612.04129-.15133.08347-.22653.12612-.07521.04218-.14996.08544-.22425.12978-.07428.044-.14812.088-.22194.133-.08668.05319-.17334.10685-.25864.16233-.0596.03761-.11891.07583-.17792.11465-.07154.04723-.14338.09507-.21461.14353-.07108.04816-.14185.09707-.21232.14674-.06741.04769-.13467.09584-.20177.14446l-.01789.01284c-.066.04815-.13206.09721-.19718.14628-.06878.05136-.13665.10364-.20453.15637-.13572.10502-.26947.21263-.40125.32284-.13206.10914-.26228.22103-.39068.33567-.06329.05594-.12611.11281-.18848.16921l-.00733.00688c-.06191.05686-.12291.11373-.1839.17151-.06236.0587-.12427.11831-.18525.17793l-.00092.00046c-.061.06007-.122.1206-.18205.18113s-.12015.122-.17977.18389c-.11922.12381-.236.24946-.35034.37694-.11556.12704-.22837.2562-.33842.3875-.0555.06558-.11007.13161-.16463.1981-.05411.0665-.10823.13345-.16142.20086-.04861.06144-.09631.12289-.144.1848-.05687.07429-.11328.14904-.16922.22424-.05133.06924-.10192.13879-.15178.20865-.05.06971-.09952.14032-.14859.21094-.09629.13849-.19014.27867-.28155.42052-.03989.06236-.07979.12519-.11878.188-.01971.03118-.039.06191-.05778.09309-.02567.04081-.05043.08162-.0752.1229-.017.028-.03347.05594-.05045.08437-.03666.06053-.07258.12137-.10775.18251-1.406796 2.43121-2.14546925 5.19131-2.14107047 8.00021 0 .1427.00183509.2848.00550841.4265.00459336.1665.01162476.3323.02109146.4976.2361296 4.0765 2.0218906 7.9094 4.9915506 10.7121 2.96966 2.8026 6.89853 4.3638 10.98183 4.3638s8.0121-1.5612 10.9818-4.3638c2.9697-2.8027 4.7554-6.6347 4.9916-10.7112.0096-.1651.0166-.3319.021-.4985.0037-.1417.0055-.2838.0055-.4265.0044-2.8089-.7343-5.569-2.1411-8.00021zm.2036 8.42671v.0037c-.1117 3.6552-1.6423 7.1233-4.2673 9.6694-2.6251 2.546-6.1383 3.9699-9.7952 3.9699s-7.17014-1.4239-9.79517-3.9699c-2.62504-2.5461-4.1556-6.0142-4.26735-9.6694v-.0037c-.00458-.1417-.00687-.2838-.00687-.4265-.00155-1.8486.36121-3.6794 1.06757-5.3878.70635-1.70833 1.74245-3.26075 3.04907-4.56848 1.30661-1.30773 2.85813-2.34515 4.56585-3.05295 1.7078-.7078 3.5383-1.07212 5.3869-1.07212s3.6791.36432 5.3869 1.07212c1.7077.7078 3.2592 1.74522 4.5658 3.05295 1.3067 1.30773 2.3428 2.86015 3.0491 4.56848.7064 1.7084 1.0691 3.5392 1.0676 5.3878 0 .1427-.0023.2848-.0069.4265z" fill="url(#b)"/><path d="m28.1443 8.89956c-.5775.82144-1.2369 1.58214-1.968 2.27034-.5583-1.1567-1.3058-2.21218-2.2115-3.12285-2.114-2.11324-4.9807-3.30039-7.9697-3.30039-2.9891 0-5.8558 1.18715-7.96977 3.30039-.89636.8933-1.63642 1.93072-2.18933 3.06905-.72246-.6878-1.37388-1.44658-1.9444-2.26482.07544-.13178.15239-.26201.23185-.3893.02013-.03017.04024-.06035.06036-.09.15994-.25.32994-.48988.51-.73029.17209-.25036.36256-.48757.56985-.70967v-.01006c.18-.22029.37017-.43.56028-.63019.03147-.04145.06834-.0785.10964-.11016.17-.17955.35-.35961.54015-.52961.04981-.05029.11017-.10009.17-.15038.1362-.12816.27978-.24824.43-.35961.13982-.1202.28014-.23992.42-.34001.09921-.08209.20262-.15897.30981-.23034.14048-.10875.28745-.20886.44009-.29976.11073-.0825.22777-.15616.35005-.2203.17763-.11933.36128-.22946.55022-.32994.07988-.05252.16343-.09924.25-.13982.1491-.08461.30254-.16133.4597-.22985.152-.08323.309-.15681.4703-.22029.2664-.12613.5402-.23631.8198-.32994.1584-.06982.3222-.12667.4898-.17.1605-.05985.3204-.11015.4803-.15995.2897-.08.5799-.14987.8802-.21023.3191-.08014.643-.14012.9697-.17956 1.3526-.20051 2.7273-.20051 4.0799 0 .3269.03944.6509.09942.9702.17956.2998.06036.59.13026.8802.21023.1599.0498.3198.1001.4798.15995.1676.04332.3314.10017.4898.17.2798.09363.5537.20381.8204.32994.1611.06338.318.13696.4697.22029.1573.06862.3109.14534.4602.22985.0866.04057.1701.0873.25.13982.1888.10048.3723.21061.5497.32994.1224.06402.2394.13769.3501.2203.1527.09078.2997.19089.4401.29976.1074.07124.211.14813.3103.23034.1398.10009.2796.21981.4195.34001.1503.11124.2939.23133.43.35961.0603.05029.1202.10009.17.15038.1901.17.3701.35006.5401.52961.0475.03599.0882.08009.1202.13027.1571.14995.304.31025.4396.47982.0827.08484.1596.17506.2304.27008.1599.19012.3098.38024.4501.57991.1801.23035.3495.48032.51.73029.029.03281.0525.06998.0699.11014.0864.13579.1694.27561.2504.41744z" fill="#6b4aff" opacity=".29"/><path d="m29.2611 7.03532c-.3248.64595-.6964 1.26726-1.112 1.85892-.079-.13932-.163-.27763-.2545-.41192-.0173-.04016-.0409-.07734-.0699-.11014-.1544-.25397-.3247-.49789-.51-.7303-.1351-.20444-.2856-.3983-.4501-.5799-.0708-.09502-.1477-.18525-.2304-.27008-.1356-.16957-.2825-.32987-.4396-.47983-.032-.05017-.0727-.09427-.1202-.13026-.17-.17955-.35-.35961-.5401-.52961-.0498-.05029-.1097-.10009-.17-.15038-.1361-.12829-.2797-.24837-.43-.35962-.1399-.1202-.2797-.23991-.4195-.34-.0993-.08222-.2029-.1591-.3103-.23034-.1404-.10888-.2874-.20899-.4401-.29976-.1107-.08261-.2277-.15628-.3501-.22031-.1774-.11933-.3609-.22945-.5497-.32993-.0799-.05252-.1634-.09925-.25-.13982-.1493-.08452-.3029-.16124-.4602-.22985-.1517-.08333-.3086-.15691-.4697-.22029-.2667-.12614-.5406-.23631-.8203-.32994-.1585-.06983-.3223-.12668-.4899-.17001-.1599-.05985-.3199-.11015-.4798-.15994-.2902-.08-.5804-.14988-.8802-.21023-.3193-.08015-.6433-.14012-.9702-.17956-1.3526-.20051-2.7273-.20051-4.0799 0-.3267.03944-.6505.09941-.9697.17956-.3002.06035-.5904.13026-.8801.21023-.16.04979-.3199.10009-.4804.15994-.1676.04333-.3314.10019-.4898.17001-.2796.09363-.5534.20381-.8198.32994-.1613.06348-.3183.13705-.47029.22029-.15716.06851-.3106.14524-.4597.22985-.08657.04057-.17012.0873-.25.13982-.18894.10048-.37259.2106-.55022.32993-.12228.06414-.23933.13781-.35005.22031-.15264.0909-.29961.19101-.44009.29976-.10719.07137-.21059.14825-.30981.23034-.13983.10009-.28015.2198-.42.34-.15023.11138-.2938.23146-.43.35962-.05985.05029-.12019.10009-.16999.15038-.1901.17-.37016.35006-.54015.52961-.0413.03166-.07818.06871-.10965.11015-.2.19792-.38714.40841-.56028.6302v.01006c-.20729.22209-.39776.4593-.56985.70966-.18559.23217-.35595.47611-.51.7303-.02012.02967-.04023.05985-.06036.09-.084.12624-.16245.25249-.23689.38174-.41423-.59453-.78423-1.2187-1.107-1.86746.0176-.02565.03571-.05029.05431-.07444l.14988-.21023c.04979-.06991.10009-.13983.14988-.19968.06035-.08.11015-.14987.17-.22984.04979-.06036.09-.12022.14033-.18007.05984-.07041.10964-.14032.15993-.20017.05985-.06991.10964-.13982.17-.20017.10964-.12977.2198-.26.34-.38979.10965-.13027.22985-.25001.35-.38024l.17955-.17955.18006-.18006c.06036-.06035.1202-.12021.19012-.18006.05985-.06035.1202-.1202.18006-.17l.0007-.00387.00216-.00329.00327-.00218.00387-.00072c.05986-.06036.12021-.11015.19012-.17.1197-.11014.24963-.22012.38979-.32994.13026-.11015.26-.2203.39984-.33044.06036-.04979.13026-.09959.20018-.14988.0699-.0498.13026-.10009.20016-.14988.0052-.00551.01212-.00906.01962-.01006.06036-.04979.13026-.10009.20016-.14988s.14033-.10009.21025-.13982c.0699-.05031.1398-.10009.20972-.15039h.01006c.04979-.03973.11015-.06991.17-.10965.09-.06035.18005-.11014.26-.15993.08-.0503.14988-.09.2198-.14033.07894-.0393.15582-.08261.23034-.12976.06991-.04023.14988-.08.2198-.1202.19011-.11015.39029-.20973.5799-.29976l.1202-.06035c.04979-.01963.10009-.04981.14988-.06992.03783-.01781.07461-.0378.11014-.05985h.01006c.05986-.03017.1197-.05029.18006-.08.08399-.04274.17087-.07954.26-.11015.07822-.03741.15829-.07081.23991-.10009.19012-.08.37972-.15994.57992-.229849.0686-.017505.1356-.040895.2002-.069911.0684-.017424.1352-.040817.1996-.06991.4904-.160442.9803-.290203 1.4903-.410414.0402-.01005.08-.019611.1297-.029671.2002-.04023.4104-.079999.6101-.1202.0603-.01006.1102-.02012.1599-.02968.0699-.01006.1303-.020121.2002-.030171.0471-.002459.0939-.009192.1398-.020119.3601-.0498.7404-.090002 1.11-.1197022.0599 0 .1102-.0100595.17-.0100595.0403 0 .08-.0100594.1202-.0100594.0569.0019727.1138-.0013967.17-.0100613h.1197c.0437.0013057.0874-.0020662.1303-.01005948h.9805c.0393.00833598.0795.01171498.1197.01005948h.1201c.0563.0083737.1132.0117415.1701.0100613.0397 0 .08.0100594.1197.0100594.0603 0 .1202.0100595.17.0100595.3802.0296702.7499.0699022 1.12.1197022.0458.012366.0929.01912.1404.020119.0598.01.1196.020111.1896.030171.0503.00956.1101.01962.1599.02968.2102.040231.4104.08.6201.1202.0403.01006.08.019621.1303.029671.4999.120211.9898.250002 1.4797.410414.0651.027545.132.050896.2002.06991.0699.02968.1398.049801.2001.069911.1997.069909.3898.149879.5799.229849.0816.02928.1617.06268.2399.10009.1499.05985.2998.13026.4502.19012.0377.01781.0743.0378.1096.05986.0503.02011.1102.05029.1604.06991.0354.02222.072.04237.1097.06035.2701.12976.5402.27008.8002.42.08.04979.1499.09.2298.12976.0699.0503.1499.09.2203.14033.0896.04979.17.09958.2595.15993.0604.03974.1203.06992.1801.10965.0699.05029.1403.10009.2102.15039.07.03973.1399.09.2098.13982.0704.04979.1403.10009.2102.14988l.0101.01006c.0699.04979.1398.10008.1996.14988l.2103.14988c.1302.11014.26.22029.3998.33044.1303.10964.2604.21962.3903.32993.0598.05985.1197.10965.1901.17001v.01006c.068.05113.1314.10801.1896.17l.1801.18006c.0603.05985.1302.1197.1901.18006l.18.17955c.1097.13027.2299.25001.3501.38024.1101.12976.2201.25969.3299.38979.0599.06035.1102.13026.17.20017.0498.05985.1102.12976.16.20017.0498.05745.0965.11756.1398.18006.0604.08.1202.14989.17.22986.0503.05985.1101.12976.1599.19967.0503.07041.09.14032.1403.21023.0342.04427.0659.088.0966.13329z" fill="#fff" opacity=".25"/><path d="m19.8845.475143-.0069-.001371c-.039-.0078-.078-.015139-.1169-.022469-.0587-.01147-.1178-.022001-.177-.032101-.0527-.00963-.1055-.018799-.1587-.027519l-.0151-.00275c-.0597-.009631-.1188-.019262-.1784-.028432-.0463-.00688-.0922-.01376-.1385-.02018-.0427-.00642-.0858-.012379-.1284-.018339-.0546-.00734-.1091-.014671-.1637-.021551-.0606-.0078-.1206-.01468-.1816-.02155-.0638-.00734-.128-.014679-.1926-.021099l-.0298-.00275c-.0482-.00505-.0963-.009632-.1449-.014222l-.0784-.00687c-.0546-.00459-.1092-.00918-.1642-.0133-.0665-.005047-.133-.009633-.1995-.01376-.0514-.00321-.1027-.006418-.1541-.009168l-.0458-.002291-.0656-.00322c-.0477-.00229-.0958-.00412-.1435-.006-.0486-.00183-.0977-.003659-.1463-.005-.045-.00137-.0899-.00229-.1353-.00321-.0436-.00092-.0867-.00183-.1302-.00229-.0688-.00092-.1376-.001381-.2068-.001381-.0693 0-.138.000461-.2069.001381-.0435.00046-.0866.00137-.1302.00229-.0449.00092-.0903.00184-.1353.00321-.0486.001381-.0977.00321-.1463.005-.0477.00184-.0958.00367-.1435.006l-.0656.00322-.0458.002291c-.0514.00275-.1027.005998-.1541.009168-.0665.004134-.133.00872-.1995.01376-.055.00412-.1096.00871-.1641.0133l-.0785.00687c-.0486.00459-.0967.009172-.1449.014222l-.0298.00275c-.0646.00642-.1288.013759-.1926.021099-.061.00687-.121.01375-.1816.02155-.0545.00688-.1091.014211-.1637.021551-.0426.006-.0857.011919-.1284.018339-.0463.00642-.0922.0133-.1385.02018-.0596.00917-.1187.018801-.1783.028432l-.0152.00275c-.0532.00872-.1059.017889-.1587.027519-.0591.01009-.1183.020631-.177.032101-.039.00733-.078.014669-.1169.022469-.0486.00917-.0972.018801-.1454.028891-.0596.01238-.1192.024761-.1788.038061-.0431.00917-.0867.018799-.1298.028889-.0536.01192-.1073.0243-.1605.03714l-.0706.016511-.1096.02751c-.0431.01055-.0857.02156-.1289.03256-.0701.01789-.1403.036691-.2099.055951-.0505.01376-.1009.027511-.1514.042191-.0495.01375-.099.02843-.1486.0431-.0233.00642-.0467.01376-.0697.02064-.0458.0133-.0917.027511-.1375.041731-.0573.01788-.1142.03576-.1711.05411-.0412.0133-.0821.0266-.1233.04035-.1358.044943-.2709.091713-.4054.140323-.0307.011-.0615.022-.0922.03348-.0413.01513-.0821.03027-.1229.04586l-.1224.04677c-.0408.01559-.0812.03164-.122.04769-.1623.0642-.3231.13115-.4824.20085-.0372.01606-.0739.0321-.1105.04861l-.0156.00688c-.0647.02843-.1294.05778-.1936.08759-.0527.0243-.10495.04861-.15724.07337-.11694.05549-.2325.11189-.3476.17059l-.116.05915c-.03852.01972-.07658.03991-.1151.06009l-.08025.04218-.06007.0321-.088.04815c-.07612.04127-.15133.08346-.22653.12611-.07521.04218-.14995.08545-.22424.12978-.07429.044-.14812.088-.22195.133-.07291.04494-.14583.09034-.21782.13574l-.00229.00183c-.14536.09125-.28905.18557-.43106.28294-.07108.04816-.14185.09707-.21232.14674-.21094.14813-.41806.30144-.62136.45995-.13574.105-.26949.21261-.40125.32283-.19719.16326-.39025.33156-.57917.50489l-.00734.00689c-.06191.05686-.12289.11372-.18388.1715-.06237.0587-.12428.11831-.18526.17793l-.00092.00045c-.061.06008-.122.12061-.18206.18114s-.12014.122-.17975.18389c-.11924.12381-.23602.24946-.35035.37694-.11556.12703-.22837.25619-.33843.3875-.05548.06558-.11005.13161-.16462.1981-.16326.19902-.32147.40232-.47463.6099-.05133.06924-.10193.1388-.15178.20866-.05.0697-.09951.14031-.14858.21094-.0963.13848-.19015.27866-.28156.42051l-.011.01742c-.0642.1-.12733.20074-.18939.3022l-.0321.05273c-.055.0908-.1096.18207-.16279.27424l-.01467.0243c-1.40681 2.43126-2.145487 5.19136-2.141062 8.00026 0 .1426.001832.2848.005499.4265.004593.1664.011623.3323.021089.4975.197634 3.4036 1.476704 6.6562 3.650934 9.2823 2.17423 2.626 5.13005 4.4894 8.437 5.3186-3.47883-.6889-6.63035-2.5137-8.9598-5.1878-2.32945-2.674-3.704926-6.046-3.9104919-9.5864-.0096333-.1651-.01666283-.3319-.02108949-.4985-.00366666-.1417-.00549887-.2839-.00549887-.4265-.00442197-2.8089.73424626-5.569 2.14105026-8.00024l.01468-.02431c.05319-.09217.10776-.18342.16279-.27422l.0321-.05274c.06191-.10133.12504-.20206.18939-.30219l.011-.01743c.09126-.1417.18512-.28187.28157-.42051.04907-.07062.09859-.14125.14857-.21095s.10043-.1394.15179-.20865c.15317-.20727.31137-.41057.47462-.60989.05457-.0665.10914-.13253.16463-.19811.11006-.13115.22287-.26032.33842-.3875.11419-.12748.23098-.25313.35035-.37694.05962-.06191.11954-.12321.17976-.18389.06008-.06053.12107-.12106.18206-.18113l.00091-.00047c.061-.05961.1229-.11922.18527-.17791.061-.05778.122-.11465.18388-.17152l.00734-.00688c.18893-.17333.38198-.34162.57916-.50488.13161-.11006.26536-.21767.40126-.32283.20314-.15867.41026-.31199.62136-.45996.07062-.04952.14139-.09843.21232-.14674.1417-.09722.28537-.19154.431-.28294l.0023-.00183c.072-.0454.1449-.0908.21782-.13574.07383-.04494.14766-.089.22195-.133.0743-.04448.14904-.08774.22424-.12978.0752-.04264.15041-.08483.22653-.1261l.08805-.04816.06007-.0321.08025-.04219c.03852-.02018.07658-.04036.1151-.06007l.116-.05916c.1151-.0587.23066-.1151.3476-.17059.05227-.02476.10455-.04906.15729-.07337.06419-.02981.12885-.05915.19351-.08758l.01559-.00688c.03669-.01651.07337-.03256.11052-.04861.15958-.0697.32038-.13665.48238-.20085.0408-.016.0812-.0321.122-.04769l.1225-.04678c.0408-.01559.0816-.030723.1229-.045863.0307-.01146.0614-.022471.0922-.033471.1343-.048613.2694-.095387.4053-.140321.0413-.01376.0821-.027059.1234-.040359.0568-.018341.1137-.03623.171-.05411.0458-.014211.0917-.028431.1376-.041732.0229-.00688.0463-.014209.0697-.020639.0495-.01467.099-.029341.1485-.043101.0505-.01467.1009-.028431.1514-.042191.0697-.01926.1398-.038059.21-.055939.0431-.011.0857-.022.1288-.032561l.1096-.027509.0706-.016522c.0532-.01283.1069-.02522.1605-.03714.0431-.01009.0867-.019719.1298-.028889.0596-.0133.1192-.025682.1788-.038062.0482-.01009.0968-.019719.1454-.028889.039-.00779.078-.01513.117-.02247.0586-.01146.1178-.022001.177-.032101.0527-.00963.1054-.0188.1586-.02751l.0152-.00276c.0596-.00962.1187-.019251.1783-.028431.0464-.00687.0922-.013749.1385-.020169.0427-.00642.0858-.012381.1284-.018341.0546-.00734.1092-.014681.1637-.021561.0606-.00779.1206-.014669.1816-.021549.0638-.0073402.128-.0146794.1926-.0210994l.0298-.0027504c.0482-.0050001.0963-.0096299.1449-.0142099l.0785-.0068799c.0545-.00459.1091-.00917.1641-.0133.0665-.00504.133-.0096283.1995-.0137616.0514-.0032101.1027-.0064187.1541-.0091687l.0458-.0022908.0656-.0032101c.0477-.00229.0959-.0041305.1436-.0060005.0486-.0018401.0976-.00366883.1462-.00504884.045-.00137001.0904-.00229008.1353-.00321009.0436-.00091001.0867-.00183074.1303-.00229075.0687-.00092.1375-.00137902.2068-.00137902.0692 0 .138.00045902.2068.00137902.0435.00046001.0867.00138074.1302.00229075.0454.00092001.0904.00184008.1353.00321009.0486.00138001.0977.00320874.1463.00504884.0477.00183.0958.0036705.1435.0060005l.0656.0032101.0458.0022908c.0514.00275.1028.0059986.1541.0091687.0665.0041267.133.0087149.1995.0137616.055.00413.1096.00871.1642.0133l.0784.0068799c.0486.00458.0967.0091698.1449.0142099l.0298.0027504c.0647.00642.1289.0137592.1926.0210994.061.00688.1211.013759.1816.021549.0546.00688.1091.014221.1637.021561.0426.006.0858.011921.1284.018341.0463.00642.0922.013299.1385.020169.0596.00918.1188.018811.1784.028431l.0151.00276c.0532.00871.1059.01788.1587.02751.0591.01009.1183.020641.177.032101.039.00734.078.01468.1169.02247.0486.00917.0972.018799.1454.028889.0596.01238.1192.024762.1788.038062.0431.00917.0867.018799.1298.028889.0537.01192.1073.02431.1605.03714l.0706.016522z" fill="#ffffe7"/><path d="m29.8972 18.1967c-.5246 3.322-2.2216 6.3462-4.7836 8.5249s-5.8196 3.3677-9.1827 3.3517-6.60919-1.2359-9.15039-3.4389c-2.54119-2.2029-4.20938-5.2431-4.70239-8.5699 1.29457 1.8986 2.96706 3.5096 4.9128 4.7323.3224.2026.65234.3946.98982.5758.08902.0951.17988.1888.27259.2812 1.04587 1.0462 2.28757 1.876 3.65427 2.4422 1.3666.5662 2.8314.8577 4.3107.8577s2.9441-.2915 4.3107-.8577c1.3667-.5662 2.6084-1.396 3.6542-2.4422.2254-.2253.4431-.4622.6473-.7067.0302-.0181.0599-.0362.09-.0548 1.9652-1.205 3.6596-2.8037 4.9767-4.6956z" fill="#2d1f80" opacity=".25"/><path d="m30.5628 15.9781c0 .1427-.0023.2848-.0069.4265v.0037c-.1117 3.6552-1.6423 7.1233-4.2673 9.6694-2.625 2.546-6.1382 3.9699-9.7952 3.9699-.0995 0-.1985-.0011-.2971-.0032 3.6205-.0537 7.0809-1.5012 9.6614-4.0413 2.5804-2.5402 4.0822-5.9774 4.1929-9.5967v-.0036c.0046-.1417.0069-.2839.0069-.4265.0024-3.6793-1.4374-7.21294-4.0105-9.84276-2.5732-2.62983-6.0746-4.14627-9.753-4.22395.0665-.00092.133-.00138.1994-.00138 1.848-.00117 3.6781.36197 5.3856 1.06864 1.7076.70667 3.259 1.74302 4.5657 3.04977s2.343 2.85827 3.0496 4.56588c.7067 1.7075 1.0697 3.5376 1.0685 5.3856z" fill="#ffffdb"/><path clip-rule="evenodd" d="m27.3171 6.10301c-1.0396-1.07866-2.2221-2.00976-3.5145-2.76734-1.2089-.75181-2.5049-1.35358-3.8593-1.79202-1.1857-.366 1.1442-.428 4.2722 1.52701 3.128 1.95502 4.1276 4.18845 3.1016 3.03235z" fill="#fffff1" fill-rule="evenodd"/><path d="m30.0694 16.0013c0 .1426-.0023.2848-.0068.4265-.0625-2.1972-.6419-4.3488-1.6913-6.2802-1.1924-2.26465-2.969-4.16915-5.1454-5.516-2.1764-1.34684-4.6735-2.08701-7.2323-2.14375-2.5571.0569-5.0523.79726-7.22665 2.14422-2.17432 1.34695-3.94845 3.25138-5.1382 5.51553-1.04937 1.9315-1.62877 4.083-1.69121 6.2802-.00458-.1417-.00687-.2839-.00687-.4265-.00156-1.8486.36121-3.6794 1.06756-5.3878.70636-1.70836 1.74245-3.26078 3.04907-4.56851 1.30662-1.30774 2.85814-2.34515 4.5659-3.05295 1.7077-.7078 3.5382-1.07212 5.3869-1.07212 1.8486 0 3.6791.36432 5.3868 1.07212 1.7078.7078 3.2593 1.74521 4.5659 3.05295 1.3066 1.30773 2.3427 2.86015 3.0491 4.56851.7063 1.7084 1.0691 3.5392 1.0675 5.3878z" fill="#2d1f80" opacity=".37"/><path d="m27.2624 16.0156c.0064 2.1432-.6062 4.2427-1.7643 6.0461-.0342.0533-.0689.1061-.1046.1589-.084.1267-.171.2518-.261.3752-.3341.4771-.7085.9247-1.1191 1.3379l-.0513.0522c-1.0458 1.0462-2.2876 1.8761-3.6542 2.4423s-2.8314.8576-4.3107.8576-2.9441-.2914-4.3108-.8576c-1.3666-.5662-2.60832-1.3961-3.65418-2.4423l-.04326-.0442c-.24493-.2465-.48048-.5018-.70665-.766-.00073-.0077-.00431-.0149-.01005-.0201l-.03823-.0468c-1.13341-1.4015-1.91406-3.0544-2.27643-4.8201-.36237-1.7656-.29587-3.5924.1939-5.327.48978-1.7346 1.38854-3.32645 2.62084-4.64182 1.2323-1.31536 2.76216-2.3159 4.46116-2.91762 1.6991-.60171 3.5176-.78705 5.3031-.54044s3.4857.91796 4.958 1.9577c1.4723 1.03973 2.6737 2.41751 3.5034 4.01768.8296 1.6001 1.2632 3.376 1.2644 5.1784z" fill="#ffc400"/><path d="m25.9054 11.4196c-2.7226 2.4388-6.2516 3.7834-9.9067 3.7746s-7.1776-1.3704-9.88835-3.8224c.8826-1.88249 2.2843-3.47388 4.04035-4.58704 1.756-1.11317 3.7933-1.70186 5.8724-1.69684s4.1136.60353 5.8642 1.72516c1.7506 1.12164 3.1446 2.71977 4.0181 4.60652z" fill="#ffffc3" opacity=".29"/><path d="m26.3459 11.5383c-.5715-1.3003-1.3785-2.48351-2.3805-3.49008-1.2966-1.29178-2.8879-2.24901-4.6367-2.78925-1.7487-.54025-3.6026-.6473-5.4019-.31196s-3.4902 1.10304-4.92695 2.23697-2.57635 2.60011-3.32064 4.27232c-.05333.1197-.10446.2404-.1534.3621-.53204 1.3361-.80364 2.7616-.80016 4.1997-.00769 2.3289.71354 4.6018 2.06259 6.5002.02817.0402.05683.08.086.1197.02615.0362.0528.0719.07947.1076.02363.0322.04778.0639.07192.0951s.04828.0628.07292.094c.02817.0362.05735.0724.086.1087.02263.0281.04577.0563.0684.084.24305.2966.50105.5806.773.851.41653.4237.86792.8116 1.34942 1.1598l.03269.0231c.03772.0272.07494.0538.11266.0805.03119.0221.06286.0442.09455.0659.07141.0498.14384.098.21626.1458l.09101.0589c.03119.0201.06186.0397.09296.0593.4972.3117 1.0178.5843 1.5572.8153.1011.0428.2027.0843.3048.1247l.097.0378.1087.0407c.0789.0292.1582.0573.2378.0845 2.1154.7261 4.3983.8098 6.561.2404.0468-.0121.0936-.0246.1399-.0377 1.8706-.5231 3.5737-1.5219 4.9434-2.899.5852-.5854 1.1049-1.2326 1.5501-1.9304 1.1482-1.8011 1.7557-3.8939 1.7504-6.0299.0009-1.5403-.3121-3.0646-.9199-4.4798zm-1.5521 10.9508c-.1433.1946-.2927.3844-.4481.5693-1.3761 1.6315-3.1999 2.8242-5.2462 3.4309s-4.2254.6007-6.2684-.0171c-2.0429-.6179-3.86011-1.8206-5.22723-3.4596-1.36711-1.639-2.22424-3.6426-2.46553-5.7632-.24129-2.1207.14383-4.2656 1.10779-6.1698.96395-1.9043 2.46454-3.48451 4.31647-4.54554 1.8519-1.06103 3.974-1.55641 6.1043-1.42497 2.1302.13145 4.1754.88396 5.8828 2.16462l.0558.04174c.2963.22553.5808.46609.8525.72073l.0101.00956c.1343.12573.2655.25501.3923.38778l.006.00599c1.7845 1.85759 2.856 4.28539 3.0256 6.85569.1697 2.5702-.5734 5.1179-2.0982 7.1939z" fill="#fff700" opacity=".9"/><path d="m24.9208 22.8924c-.2954.382-.6148.7449-.9562 1.0864-1.3697 1.3772-3.0728 2.376-4.9434 2.899-.0463.0131-.0931.0257-.1398.0378-2.1635.5632-4.4446.4796-6.561-.2404-.0795-.0272-.1588-.0554-.2379-.0845l-.1087-.0408-.097-.0377c-.1021-.0397-.2037-.0813-.3048-.1247-.54-.2298-1.0607-.5025-1.5571-.8153-.03122-.0196-.0619-.0393-.09304-.0594l-.091-.0588c-.07242-.0478-.14486-.0961-.21626-.1459-.03169-.0216-.06337-.0437-.09456-.0659-.03772-.0266-.07494-.0533-.11266-.0804-.48911-.3551-.94894-.7488-1.37506-1.1775l-.04326-.0442c-.14083-.1474-.43053-.4688-.73682-.8123l-.01811-.0206c-.01709-.0211-.0342-.0423-.05029-.0634-.02866-.0362-.05784-.0724-.086-.1086-.02464-.0312-.04878-.0629-.07292-.0941-.01157-.0146-.02263-.0291-.03371-.0442.3224.2026.65234.3946.98982.5759 2.60547 1.3926 5.52767 2.0854 8.48107 2.0109 2.9533-.0746 5.8368-.9141 8.3687-2.4364.0301-.0182.0598-.0363.09-.0549z" fill="url(#c)" opacity=".65"/><path d="m24.0435 11.4198c-.8056 2.5997-1.5777 5.1997-2.3757 7.7994 1.1207.2714 2.1869.732 3.1527 1.3619.2424.1648.5.401.483.6782l.0001.0024c.0096.1356.0002.2718-.0279.4048-.0394.1112-.1024.2125-.1848.2969s-.1822.1499-.2924.1919c-.6578.2973-1.362.4789-2.0815.537-3.4434.2482-6.9027-.1576-10.1952-1.1957-1.3671-.3489-2.71005-.7865-4.02021-1.3101-.50631-.1845-.97666-.4557-1.39-.8014-.18736-.1486-.30981-.364-.3416-.6009l-.003-.0032c-.0082-.1659.00514-.3321.03967-.4945l.00161-.0044c.00985-.0349.02403-.0685.04223-.0999.01639-.03.03611-.058.05879-.0836l.0167-.0187.01812-.0189.01868-.0174.01961-.0175c.07014-.0573.148-.1044.23129-.1399.033-.0145.067-.0281.10145-.0408.05293-.0191.107-.0354.15973-.0497.01854-.0045.03659-.0094.0551-.0144l-.00091.0005c.50111-.113 1.0124-.1748 1.526-.1844.43556-.0191.87143-.028 1.30764-.0267l.0007-.0638.0014-.1365.0052-.4804c.001-.1049.0024-.2098.0034-.3142l.0004-.0168.0034-.2836c.0008-.0713.0019-.1427.0027-.2136.0027-.2275.0058-.4548.0091-.6817.0023-.182.0049-.3639.0078-.5457.0054-.3349.0113-.6695.0177-1.0039.0038-.2027.0079-.4057.0123-.6091.0037-.1812.0078-.3621.0122-.5426l.0023-.0983.0147-.5777c.0057-.1956.0108-.3917.0169-.5884.0062-.2172.013-.4346.0204-.6522l.0024-.0744c.0068-.1923.0137-.385.0208-.578.0068-.18475.0139-.36949.0213-.55424.0084-.2049.0171-.4103.026-.61621l.0009-.02351c.0088-.19776.018-.39603.0277-.59479-.0018-.02404-.0008-.0482.003-.072.0376-.21201.2815-.31486.4945-.37174.0218-.00566.0435-.01181.0653-.017 1.6059-.35152 3.2673-.36542 4.8789-.04084 2.2726.3697 4.4866 1.03759 6.5845 1.98637l.0964.04423.097.04563c.0326.01568.0655.03132.0981.048.0257.01227.0515.02549.0773.03872.0374.01918.0749.03888.1114.05908.0633.0343.1251.0706.1859.1082l.0232.0142.0564.0362c.0132.0083.0267.0176.0402.0271l.0129.0084c.0177.0123.0354.0246.0526.0374l.0326.0238.0114.0088.0301.023.0114.0089.0332.0271.0199.0165.0164.0138.0258.0223.013.0121.038.035c.0125.0117.025.0238.0371.0365.0125.0121.0246.0243.0362.037l.0288.0317.006.0063.0172.0195.0316.0378.0051.0068.001.0014c.0117.0141.0229.0278.0332.0424l.0222.0302c.1301.2108.1743.4635.1233.7059z" fill="#c66a00" opacity=".34"/><path d="m24.7532 21.2956c-.0402.1099-.1038.2099-.1863.2929-.0825.0831-.182.1474-.2917.1883-.6589.2931-1.3628.4722-2.0816.53-3.4407.248-6.8975-.1471-10.1935-1.1651-1.3657-.3414-2.70799-.7703-4.01857-1.2841-.5049-.1802-.97489-.4463-1.38926-.7864-.18655-.1447-.30897-.3567-.341-.5906l-.00289-.0031c-.00814-.1632.00544-.3268.04038-.4865-.02498.0909-.02165.1873.00811.2767.03695.1121.0962.2155.17419.304.01361.0163.028.0334.04244.0483.013.0141.02523.0274.0383.04l.02536.0251.03708.0347c.41461.3397.88457.6054 1.38931.7857 1.31055.5141 2.65285.9432 4.01855 1.2848 3.296 1.0176 6.7527 1.4127 10.1934 1.1651.7188-.0581 1.4226-.2373 2.0817-.53l.0508-.0255c.0119-.0059.0239-.0125.0359-.0199.0254-.0131.051-.0284.0759-.0446.01-.0056.0197-.0119.0289-.0188.0176-.0114.0345-.0236.0514-.0358l.0098-.0075c.0129-.0102.0259-.0205.0373-.0308.0124-.01.0241-.0208.0351-.0324.0437-.0414.0807-.0893.1097-.142.0205-.0391.0351-.0812.0431-.1247.0025-.0153.005-.0306.006-.046.0096.1334.0002.2675-.0279.3982z" fill="#5a3dff"/><path d="m6.5195 18.2996-.04848.2709c-.07799-.0885-.13725-.1919-.17419-.304-.02977-.0894-.03232-.1857-.00734-.2766l.00284-.0087c.05713-.1385.22717.3184.22717.3184z" fill="#d99800"/><g fill="#5a3dff"><path d="m24.7814 20.8933-.0004.0023c-.0012.0155-.0031.0308-.0059.046-.0081.0435-.0227.0854-.0432.1246-.0289.0527-.0658.1006-.1096.1418-.0114.0114-.0228.0224-.035.0326l-.0373.0307-.0098.0074c-.0161.0126-.0338.0248-.0515.0362-.0094.0067-.0191.013-.0291.0188-.0247.0161-.0495.0307-.0758.0444l-.0358.02c-.0176.0083-.0341.0169-.051.0256-.6591.2925-1.3628.4716-2.0815.5296-3.4406.2477-6.8973-.1473-10.1934-1.1649-1.3657-.3417-2.70803-.7708-4.01868-1.2847-.50466-.1804-.97457-.4462-1.3892-.7858-.01257-.011-.02475-.0228-.03693-.0346l-.02554-.0251c-.013-.013-.02592-.0259-.03811-.0401-.01453-.0157-.02907-.0314-.04282-.0475-.07801-.0886-.13695-.1928-.17404-.3049-.02981-.0894-.03227-.1857-.00707-.2766l.00275-.0086c.08093-.2652.3858-.4007.66513-.4746.51826-.1214 1.04794-.1873 1.58014-.1968 1.32477-.0579 2.65197-.0255 3.97237.097 1.9466.1811 3.8462.6317 5.7744.9319.9523.1485 1.9223.3092 2.8632.5531 1.1181.2645 2.1834.7161 3.1509 1.3358.2033.1152.3648.292.4612.5049.0173.0518.0249.1069.0216.1615z"/><path d="m23.5321 11.2203c-.2484.7861-.4944 1.5723-.7378 2.3584-.6538 2.1089-1.2976 4.2178-1.9645 6.3261-.0498.1544-.0986.3098-.1484.4653-1.9381.4066-3.939.4112-5.879.0135-1.8517-.3955-3.5647-1.2772-4.96256-2.5545.01408-1.3303.03018-2.6405.05584-3.9466.03671-1.8906.09299-3.7727.18962-5.695.0202.12968.0849.24829.1831.33547.4069.34607.8954.5827 1.4193.68755 1.7206.49188 8.8584 2.41418 10.7837 2.40818.3963-.001.8892-.0996 1.0607-.3984z"/><path d="m23.5916 11.0305c-.0202.0634-.0404.1269-.0599.1904-.1714.2984-.6642.3971-1.0604.3982-1.9255.0059-9.0632-1.91641-10.784-2.40802-.5237-.10501-1.0121-.34164-1.4191-.68758-.0984-.08705-.1632-.20573-.1832-.33552.0008-.02388.0015-.04712.003-.071.0374-.20854.2817-.30974.4947-.3663 1.6257-.36418 3.3095-.38529 4.9438-.062 2.2691.3605 4.4817 1.01484 6.582 1.94653.5311.18504.9985.51759 1.3475.95869.0924.1264.1401.2801.1356.4366z"/></g><path d="m10.0871 8.11719c-.0015.02416-.0022.04771-.0031.07195-.002-.02402-.001-.0482.0031-.07195z" fill="#ffc803"/><path d="m23.5911 11.0293c-.006.067-.0264.1319-.0599.1903.0196-.0634.0397-.1268.0599-.1903z" fill="#ffc803"/><path d="m19.3164 21.3598c1.0098.1915 2.0451.2074 3.0603.047.5384-.104 1.0495-.3187 1.5007-.6306.0061-.0054.011-.0122.0143-.0197s.005-.0157.0048-.0239c-.0001-.0083-.0021-.0164-.0057-.0238s-.0088-.0139-.0151-.0191c-.7915-.5559-1.6699-.9764-2.5992-1.2444.0892.1487.145.3149.1637.4873s-.0003.3467-.0555.511c-.2183.3374-.5302.6038-.8976.7665-.3673.1627-.7742.2148-1.1707.1497z" fill="#463893" opacity=".39"/><path d="m24.1997 21.4694c-.632.2638-1.3014.4271-1.9838.4842-3.4405.2475-6.8971-.1477-10.193-1.1654-1.3656-.3411-2.70776-.7699-4.01816-1.2838-.50503-.1806-.97522-.4467-1.38999-.7867-.11507-.0807-.20607-.191-.2633-.3194-.05723-.1283-.07853-.2697-.06164-.4092.077-.2701.38579-.4087.66825-.4829l.055-.014c-.12545.069-.22003.1831-.26463.3192-.01706.1396.00417.2812.0614.4096.05723.1285.14831.239.26351.3196.41448.34.88449.6059 1.38936.7861 1.31048.5138 2.6526.9428 4.0181 1.2845 3.2961 1.0178 6.7529 1.4127 10.1937 1.1647.5174-.0507 1.0283-.1534 1.5252-.3065z" fill="#7098ff"/><path d="m10.0888 8.22203c-.0369.77523-.0714 1.54415-.10345 2.30677.02745-.77585.06065-1.55627.09955-2.3413.0006.01158.0019.02311.0039.03453z" fill="#ffc803"/><path d="m23.5322 11.2207c-.9148 2.8945-1.787 5.7898-2.7024 8.6843-.0496.1548-.0985.3102-.148.4656-1.9381.4065-3.9391.4111-5.879.0133-1.8519-.3954-3.565-1.2771-4.96296-2.5544.00738-.6813.01561-1.3581.02467-2.0302.80899.6403 1.74459 1.1017 2.74499 1.3538 3.9853 1.0088 8.1512-1.4376 9.686-5.5381.0627.0027.1214.0044.1762.0039.3963-.0011.8891-.0997 1.0605-.3982z" fill="#463893" opacity=".39"/><path d="m23.5904 11.0316c-.0422.4483-.6497.5876-1.1203.5886-.0548.0005-.1135-.0013-.1762-.0039.1038-.2755.1949-.5583.2734-.8484.0729-.2697.1334-.5394.1816-.80892.2811.15482.5227.37242.7059.63602.0924.1264.1401.2801.1356.4366z" fill="#463893" opacity=".39"/><path d="m20.0408 20.5014c-1.7395.2683-3.5126.2284-5.2382-.1178-1.6851-.3515-3.2561-1.1173-4.5711-2.228-.0326-.026-.0656-.0539-.0982-.0806-.0385-.0314-.0766-.0629-.1143-.0943-.06012-.0495-.11984-.1006-.17916-.1516.00078-.1254.00276-.2503.00433-.3748.03378-3.1218.08406-6.1419.24123-9.2668.0202.12972.0849.24836.1831.33551.0353.03575.0719.06915.11.10136-.1462 3.05183-.1085 6.10603-.143 9.15443 1.3317 1.1402 2.9209 1.9391 4.6304 2.3278 1.6945.3962 3.4399.5294 5.1749.3948z" fill="#7098ff"/><path d="m23.3916 11.377c-.2752.1721-.5963.2562-.9205.2413-1.9255.0059-9.0632-1.91649-10.784-2.40797-.4723-.10241-.9181-.30204-1.3091-.58618-.0381-.03221-.0746-.06561-.11-.10136-.0981-.08716-.1629-.20579-.183-.33551.0008-.024.0015-.04715.0031-.07111.0373-.20863.2813-.30959.4946-.36617.0216-.00589.0428-.0114.0645-.0165 1.6062-.34737 3.2666-.36287 4.879-.04557 2.2692.3606 4.4818 1.01486 6.5822 1.94631.4725.17428.8985.45496 1.245.82036-.268-.1821-.5539-.3364-.8533-.46049-2.1002-.93175-4.3127-1.58615-6.5818-1.9467-1.6948-.38233-3.452-.39493-5.1521-.03693-.1274.03303-.2367.11471-.3045.22748.0277.04737.0611.09117.0994.13043.465.33672 1.0024.55981 1.5691.65139 1.7208.49189 8.8585 2.41422 10.784 2.40832.1605.0001.3205-.017.4774-.0511z" fill="#7098ff"/><path d="m23.5919 11.0315c-.0059.0671-.0264.1322-.0601.1905-.779 2.4649-1.5271 4.9306-2.2975 7.3959-.0424.1364-.0851.2728-.1281.4094-.0919.2927-.1841.5862-.2765.8789-.0495.1548-.0989.31-.1482.4655-.0734.0173-.1469.035-.2215.0507.9091-2.8798 1.894-6.2565 2.802-9.1292.0325-.0899.0547-.1833.066-.2782.0145-.1536.0294-.4734-.5776-1.05602.2813.15472.5229.37242.706.63602.0923.1265.1399.28.1355.4365z" fill="#7098ff" opacity=".59"/><path d="m22.6523 9.85863c-.0025-.00487-.0072-.00853 0 0z" fill="#ffc803"/><path d="m12.5333 13.9498c.0831-2.031-.1616-3.6903-.5466-3.7061-.3851-.0158-.7647 1.618-.8478 3.649-.0832 2.0311.1615 3.6904.5466 3.7062.385.0157.7646-1.618.8478-3.6491z" fill="#7098ff" opacity=".49"/><path d="m24.7597 20.7332c-1.0942-1.1558-3.6708-1.6529-3.6708-1.6529l.0167-.0541c.0142-.0444.0279-.0892.042-.1336 1.1181.2644 2.1834.716 3.1509 1.3358.2033.1152.3648.2919.4612.5048z" fill="#d194ff" opacity=".59"/><path d="m15.4436 24.0994c-.0649.0066-.1266.0316-.1778.0722-.0511.0405-.0896.0948-.1108.1566-.0164-.0547-.0365-.1081-.0603-.1599l-.0115-.0181c-.0479-.0426-.1004-.0798-.1564-.111.0616-.0175.1213-.0416.1778-.0719.0335-.0352.0626-.0744.0865-.1168l.0242-.04c.0175.0618.0416.1215.0719.1781.0479.0426.1004.0797.1564.1108z" fill="#fffcbe"/><path d="m19.0963 6.70508c-.0365.08916-.0631.18205-.0795.277.0174.09486.045.18754.0824.27641-.0797-.03126-.1616-.05695-.245-.07689-.0105-.00193-.0212-.00301-.032-.00323-.0948.01722-.1875.04475-.2764.0821.0365-.08919.0633-.18206.0798-.277-.0105-.07232-.0299-.14305-.0578-.21062l-.0248-.06579c.0892.03665.1822.06351.2772.08011.0948-.01714.1874-.04466.2761-.08209z" fill="#fffcbe"/><path d="m10.7712 22.2402c-.0525.0829-.0801.1791-.0796.2772s.0291.1939.0825.2763c-.0798-.0313-.1617-.057-.245-.0769-.0106-.002-.0213-.003-.032-.0033-.0949.0173-.1876.0448-.2765.0821.0365-.0892.0633-.182.0798-.277-.0105-.0723-.0299-.143-.0578-.2106l-.0248-.0658c.0892.0367.1822.0635.2772.0801.0948-.0171.1874-.0446.2762-.0821z" fill="#fffcbe"/><path d="m23.531 11.2203c-.2485.7861-.4944 1.5722-.7378 2.3583-1.9882 1.0192-4.181 1.5759-6.4146 1.6285-2.2335.0526-4.4501-.4002-6.48407-1.3246.03671-1.8906.093-3.7727.18957-5.695.0203.12968.085.24829.1831.33547.407.34607.8955.5827 1.4193.68755 1.7206.49188 8.8585 2.41418 10.7838 2.40818.3963-.0011.8892-.0997 1.0607-.3984z" fill="#6b4aff" opacity=".19"/></svg>