<svg fill="none" height="14" viewBox="0 0 14 14" width="14" xmlns="http://www.w3.org/2000/svg"><path clip-rule="evenodd" d="m13.6578 13.6111h-13.315578c-.186666 0-.342222-.1555-.342222-.3422v-.0933c0-.1867.155556-.3423.342222-.3423h13.315578c.1866 0 .3422.1556.3422.3423v.0933c0 .1867-.1556.3422-.3422.3422zm-.4356-1.6022v.0933c0 .1867-.1555.3422-.3422.3422h-11.76c-.186667 0-.342222-.1555-.342222-.3422v-.0933c0-.1867.155555-.3422.342222-.3422h11.76c.1867 0 .3422.1516.3422.3422zm-1.9911-6.94946h.8711c.1867 0 .3422.15556.3422.34223v5.53393c0 .1866-.1555.3422-.3422.3422h-10.20442c-.18667 0-.34222-.1556-.34222-.3422v-5.52616c0-.19055.15555-.34222.34222-.34222h.87111c.18667 0 .34222.15167.34222.34222v4.91946c0 .0933.07778.1711.17111.1711h.43556c.09333 0 .17111-.0778.17111-.1711v-4.91946c0-.19055.15555-.34222.34222-.34222h5.53778c.18667 0 .34221.15167.34221.34222v4.91946c0 .0933.0778.1711.1711.1711h.4356c.0933 0 .1711-.0778.1711-.1711v-4.92723c0-.19056.1555-.34223.3422-.34223zm-3.06443 2.11167c0-.09333-.07778-.17111-.17111-.17111h-1.99112c-.09333 0-.17111.07778-.17111.17111v3.15779c0 .0933.07778.1711.17111.1711h1.99112c.09333 0 .17111-.0778.17111-.1711zm5.10223-2.50444h-12.537789c-.186667 0-.342222-.15556-.342222-.34223v-.15555c0-.18278.073889-.34222.213889-.45889l4.285552-3.57c.11278-.0933333.23723-.14.385-.14h3.45334c.14777 0 .27222.0466667.385.14l4.28553 3.57c.14.11667.2139.27611.2139.45889v.15555c0 .18667-.1555.34223-.3422.34223zm-2.8078-1.47-2.19332-1.85889c-.12834-.11278-.27611-.16722-.44722-.16722h-1.63723c-.17111 0-.31889.05444-.44722.16722l-2.20111 1.86277c-.12056.105-.04667.29945.11278.29945h6.70052c.1595 0 .2334-.19833.1128-.29945z" fill="#7B6CB9" fill-rule="evenodd"/></svg>