<svg fill="none" height="14" viewBox="0 0 16 14" width="16" xmlns="http://www.w3.org/2000/svg"><path clip-rule="evenodd" d="m13.9994 12.6667h-11.99877c-1.100349 0-2.00063-.8728-2.00063-1.9394v-6.78791c0-1.06666.900281-1.93939 2.00063-1.93939h11.99877c1.1003 0 2.0006.87273 2.0006 1.93939v6.78791c0 1.0666-.9003 1.9394-2.0006 1.9394zm-10.73838-3.87397h-1.00031c-.41513 0-.75024.32485-.75024.72727s.33511.7273.75024.7273h1.00031c.41513 0 .75023-.32488.75023-.7273s-.3351-.72727-.75023-.72727zm3.50109 0h-1.00031c-.41513 0-.75023.32485-.75023.72727s.3351.7273.75023.7273h1.00031c.41513 0 .75024-.32488.75024-.7273s-.33511-.72727-.75024-.72727zm3.50109 0h-1.00031c-.41513 0-.75023.32485-.75023.72727s.3351.7273.75023.7273h1.00031c.4151 0 .7502-.32488.7502-.7273s-.3351-.72727-.7502-.72727zm4.2413-4.80485c0-.29576-.245-.53333-.5501-.53333h-1.9006c-.3051 0-.5502.23757-.5502.53333v1.84242c0 .29576.2451.53334.5502.53334h1.9006c.3051 0 .5501-.23758.5501-.53334zm-.7402 4.80485h-1.0003c-.4151 0-.7502.32485-.7502.72727s.3351.7273.7502.7273h1.0003c.4151 0 .7502-.32488.7502-.7273s-.3351-.72727-.7502-.72727z" fill="#7B6CB9" fill-rule="evenodd"/></svg>