<svg fill="none" height="106" viewBox="0 0 106 106" width="106" xmlns="http://www.w3.org/2000/svg"><path d="m52.75 105.39c-14.45 0-28.9 0-43.34999 0-4.33 0-7.86-2.72-8.770003-6.76-.23-1.04-.28-2.15-.28-3.22 0-7.62.06-15.24.06-22.86-.01-20.94-.04-41.89-.09-62.83 0-2.41.47-4.62 2.070003-6.5 1.94-2.3 4.47-3.22 7.41-3.22 11.69999.01 23.40999.01 35.10999.02h50.85c6.31 0 9.93 3.6 9.93 9.91 0 28.48 0 56.97.01 85.45 0 1.95-.25 3.82-1.24 5.53-1.86 3.21-4.77 4.49-8.35 4.49-12.2 0-24.4 0-36.61 0-2.25 0-4.5 0-6.75 0zm-40.75-26.92c0 4.79-.07 9.58.02 14.36.08 4.07 3.12 7.81 7.14 8.29 3.57.43 7.22.22 10.84.29.8.02.78-.55.78-1.12 0-7.87-.03-15.74 0-23.61 0-1.81-.81-3.1-2.23-4.08-2.5-1.72-5.02-3.42-7.54-5.12-.22-.15-.52-.16-.79-.24-.03.24-.1.48-.1.72.03 3.75.08 7.49.1 11.24 0 .66.22 1.65-.81 1.65-1.06 0-.63-1-.64-1.56-.04-5.08 0-10.16-.03-15.24-.01-2.15-1.46-3.46-3.61-3.41-1.88.04-3.13 1.41-3.13 3.45v14.37zm72.94-38.98c.07 0 .13-.01.2-.02 0-1 .02-2 0-3-.02-1.04-.05-2.08-.14-3.12-.21-2.32-1.63-3.8-3.91-3.62-1.95.15-3.94.58-5.78 1.24-2.75.98-4.22 3.13-4.43 6.06-.02.3.4.92.53.89 1.3-.23 2.65-.42 3.85-.93.41-.18.46-1.21.68-1.86.04-.12.06-.25.13-.35.65-.9 1.52-1.5 2.64-1.31.46.08 1.08.57 1.21 1 .32 1.07 0 2.06-1.03 2.69-.49.3-1.01.59-1.53.83-.9.42-1.83.79-2.74 1.19-3.15 1.39-4.7 3.67-4.6 6.74.09 2.66 1.58 4.55 3.93 4.65s4.42-.72 5.89-2.67c.34-.44.57-.83.9-.12.39.83.99.74 1.67.57.89-.22 1.79-.39 2.66-.67.24-.07.55-.46.54-.68-.18-2.52-.42-5.04-.64-7.56zm-27.67 4.17s-.03 0-.04 0c0-.54.04-1.08 0-1.62-.27-3.24-1.86-5.28-4.57-5.53-3.66-.33-8.36 1.27-9.92 6.09-1.04 3.24-1.18 6.53-.5 9.84.7 3.43 2.92 4.89 6.37 4.32.25-.04.5-.06.74-.1 3.9-.66 6.79-3.12 7.4-6.3.49-2.53.48-2.49-2.03-2-1.46.29-2.69.53-2.83 2.45-.09 1.16-1.55 1.93-2.77 1.83-1.32-.11-1.67-1.06-1.84-2.15-.06-.37-.04-.75-.13-1.11-.23-.9.17-1.27 1.03-1.46 2.67-.6 5.32-1.31 8-1.87.9-.19 1.21-.55 1.11-1.4-.04-.33 0-.66 0-1zm-28.73 9.58h-.02c0-1.12 0-2.25 0-3.37s.04-2.25-.03-3.37c-.17-2.84-1.98-4.22-4.7-3.69-1.82.36-3.36 1.16-4.53 2.64-.13.16-.5.14-.76.2-.08-1.22-.82-.97-1.6-.74-.72.21-1.45.41-2.18.5-1 .13-1.27.65-1.26 1.61.05 3.66.07 7.33 0 10.99-.02.98.18 1.15 1.15 1.1 1-.05 2.11.06 2.99.48 1.16.55 1.14.07 1.13-.81-.02-2.5-.03-5 .02-7.49.01-.69.16-1.41.42-2.06.53-1.34 1.85-2.15 2.91-1.85 1.36.39 1.15 1.59 1.16 2.59.04 3.71.05 7.41.01 11.12 0 .92.25 1.23 1.16.97 1-.28 2-.6 3.02-.75.93-.14 1.12-.63 1.11-1.46-.03-2.21-.01-4.41-.01-6.62zm64.08-16.85c-.06-.02-.12-.03-.18-.05.31-1.74.48-3.52.96-5.21.36-1.24 1.8-1.94 2.89-1.67 1.24.31 1.19 1.37 1.18 2.31 0 .82.34 1.04 1.07.86 1.09-.27 2.18-.51 3.26-.82.27-.08.61-.33.68-.58.74-2.57-1.41-5.45-4.09-5.56-2.16-.09-4.21.33-6.15 1.29-2.22 1.1-3.62 2.85-4.29 5.22-.92 3.25-.76 6.52-.11 9.76.67 3.31 2.91 4.69 6.26 4.13.29-.05.57-.09.86-.14 4.07-.72 6.79-3.29 7.46-7.04.46-2.56.24-2.78-2.2-2.15-.08.02-.16.07-.24.07-1.69.12-2.86.71-2.57 2.72.03.22-.12.48-.22.71-.47 1.12-1.35 1.69-2.53 1.67-1.2-.02-1.62-.95-1.77-1.92-.18-1.18-.2-2.4-.28-3.6zm-87.61999 14.94c0 4.7.02 9.4-.02 14.09 0 .89.27 1.11 1.09.9.92-.24 1.85-.48 2.8-.61 1.24999-.17 1.69999-.74 1.67999-2.06-.08-5.57-.03-11.14-.03-16.71 0-3.53-.02-7.07.01-10.6.01-1.04-.37-1.34-1.34999-1.06-1.04.29-2.08.56-3.14.77-.78.15-1.06.47-1.05 1.32.05 4.66.02 9.31.02 13.97zm27.38999.19s-.07 0-.11 0c.15 2.36.3 4.73.46 7.09.07 1.06.5 1.48 1.62 1.12 1.1-.35 2.25-.58 3.39-.79.75-.14.78-.45.61-1.13-.32-1.36-.63-2.75-.69-4.14-.11-2.58-.03-5.16-.03-7.74 0-2.24-.32-1.92 1.97-2.5 1.78-.44 1.78-.43 1.73-2.31-.0333-1.4-.74-1.89-2.12-1.47-1.06.3267-1.5933-.06-1.6-1.16 0-2.64 0-2.66-2.61-2.06-3.14.72-2.63.25-2.58 3.25.02 1.23-.34 1.82-1.49 1.93-.99.09-1.24.67-1.15 1.54.03.33.03.67.03 1 0 1.52.03 1.6 1.55 1.19.85-.23 1.03.03 1.01.81-.03 1.79 0 3.58 0 5.37zm26.69-7.07c0 2.79.04 5.57-.02 8.36-.02.89.33 1 1.02.84 1.01-.23 2.01-.54 3.03-.7.97-.15 1.27-.6 1.26-1.59-.03-3.41 0-6.81.1-10.22.05-1.81 1.11-2.99 2.76-3.66.81-.33 1.97-.44 2.35-1.04.42-.66.11-1.77.12-2.68 0-.12 0-.25 0-.37-.05-1.24-.34-1.43-1.57-1.06-1.61.48-2.68 1.61-3.57 2.95-.1.16-.26.27-.4.41-.05-.18-.17-.37-.15-.55.08-1.16-.41-1.38-1.44-1.01-.74.26-1.52.43-2.3.54-.94.14-1.21.64-1.2 1.55.04 2.74.02 5.49.02 8.23zm-48.57 25.05c0-.46-.05-.92 0-1.37.16-1.19-.37-1.35-1.37999-1.07-1.44.4-2.9.74-4.36 1.07-2.04.46-2.63 2.08-1.37 3.78 1.2 1.63 2.79 1.35 4.41.93 2.97999-.77 2.66999-.07 2.68999-3.35zm0 6.9c0-.46-.05-.92.01-1.37.17-1.15-.42-1.26-1.30999-1.04-1.49.37-2.98.74-4.47 1.09-2.01.47-2.57 2.1-1.3 3.78 1.22 1.61 2.77 1.31 4.4.88 2.67999-.71 2.68999-.69 2.66999-3.35zm0 7c0-.46-.05-.92.01-1.37.14-1.05-.3-1.35-1.26999-1.11-1.77.43-3.55.82-5.32 1.24-.91.22-1.08.97-1.12 1.73-.1 1.55 1.24 3.05 2.79 3.05.82 0 1.65-.16 2.44-.35 2.49999-.62 2.49999-.64 2.46999-3.19zm87.75-63.03c-.01.21-.04.34-.02.46.05.35.11.69.17 1.04.21-.24.38-.54.63-.7.23-.14.62-.26.83-.16.3.15.51.5.76.77-.06-.39-.17-.77-.18-1.16-.01-.31.13-.62.13-.93 0-.26-.11-.52-.17-.77-.17.11-.34.29-.52.31-.28.03-.71.07-.84-.09-.49-.58-.67-.28-.76.21-.07.36-.01.74-.01 1.02zm4.2.04c.03-2.24-1.33-3.37-3.74-3.13-.19.02-.37.1-.55.15.2.08.39.19.6.24.81.18 1.72.16 2.41.55.93.52.91 1.59.87 2.57-.01.29.06.59.09.88.11-.3.22-.59.31-.89.03-.11 0-.25 0-.37z" fill="#fdb912"/><g fill="#231f1f"><path d="m12 78.47c0-4.79 0-9.58 0-14.37 0-2.05 1.25-3.41 3.13-3.45 2.15-.05 3.59 1.26 3.61 3.41.03 5.08 0 10.16.03 15.24 0 .56-.42 1.56.64 1.56 1.03 0 .81-.99.81-1.65-.01-3.75-.06-7.49-.1-11.24 0-.24.06-.48.1-.72.26.08.57.09.79.24 2.52 1.69 5.04 3.39 7.54 5.12 1.42.98 2.23 2.27 2.23 4.08-.02 7.87 0 15.74 0 23.61 0 .57.02 1.14-.78 1.12-3.62-.07-7.27.14-10.84-.29-4.02-.48-7.05-4.22-7.14-8.29-.1-4.79-.02-9.57-.02-14.36z"/><path d="m84.94 39.49c.22 2.52.46 5.03.64 7.56.02.22-.3.6-.54.68-.87.27-1.77.45-2.66.67-.68.17-1.28.26-1.67-.57-.33-.71-.57-.32-.9.12-1.47 1.94-3.53 2.77-5.89 2.67-2.35-.1-3.85-1.99-3.93-4.65-.1-3.07 1.45-5.35 4.6-6.74.91-.4 1.84-.77 2.74-1.19.53-.24 1.04-.53 1.53-.83 1.02-.63 1.35-1.62 1.03-2.69-.13-.43-.75-.92-1.21-1-1.12-.19-1.99.41-2.64 1.31-.07.1-.09.23-.13.35-.22.64-.26 1.68-.68 1.86-1.2.51-2.55.7-3.85.93-.13.02-.55-.59-.53-.89.21-2.93 1.68-5.08 4.43-6.06 1.85-.66 3.83-1.09 5.78-1.24 2.28-.18 3.7 1.3 3.91 3.62.1 1.03.12 2.08.14 3.12.02 1 0 2 0 3-.07 0-.13.01-.2.02zm-4.97 2.44c0-.54.04-.96-.02-1.37-.02-.14-.38-.38-.44-.34-1.32.83-2.72 1.56-3.88 2.58-.78.68-.6 2.57 0 3.11.74.66 2.19.47 3.16-.46 1.05-1 1.24-2.29 1.18-3.52z"/><path d="m57.26 43.66c0 .33-.03.67 0 1 .1.85-.21 1.22-1.11 1.4-2.68.56-5.33 1.27-8 1.87-.86.19-1.25.55-1.03 1.46.09.36.07.74.13 1.11.18 1.09.52 2.04 1.84 2.15 1.22.1 2.68-.67 2.77-1.83.15-1.92 1.37-2.16 2.83-2.45 2.51-.49 2.52-.53 2.03 2-.62 3.18-3.5 5.64-7.4 6.3-.25.04-.5.06-.74.1-3.44.57-5.67-.89-6.37-4.32-.67-3.31-.54-6.61.5-9.84 1.55-4.83 6.26-6.42 9.92-6.09 2.71.24 4.3 2.28 4.57 5.53.04.54 0 1.08 0 1.62h.04zm-4.59-.78c-.65-1.03-.97-2.11-1.68-2.52-1-.58-2.18-.04-2.81.91-.51.76-.72 1.73-1.02 2.61-.3.86.03 1.17.9.94 1.08-.28 2.18-.5 3.23-.85.43-.15.76-.58 1.39-1.09z"/><path d="m28.53 53.24c0 2.21-.02 4.41.01 6.62.01.82-.17 1.32-1.11 1.46-1.02.15-2.03.46-3.02.75-.91.26-1.17-.05-1.16-.97.04-3.71.03-7.41-.01-11.12 0-1 .19-2.2-1.16-2.59-1.07-.31-2.39.51-2.91 1.85-.25.64-.4 1.37-.42 2.06-.05 2.5-.05 5-.02 7.49 0 .88.03 1.36-1.13.81-.88-.42-2-.53-2.99-.48-.97.05-1.17-.12-1.15-1.1.07-3.66.05-7.33 0-10.99-.01-.96.26-1.48 1.26-1.61.74-.09 1.47-.29 2.18-.5.78-.22 1.52-.48 1.6.74.26-.06.63-.04.76-.2 1.17-1.48 2.7-2.28 4.53-2.64 2.72-.54 4.54.85 4.7 3.69.07 1.12.03 2.25.03 3.37v3.37h.02z"/><path d="m92.61 36.4c.09 1.2.1 2.41.28 3.6.15.97.57 1.9 1.77 1.92 1.19.02 2.06-.55 2.53-1.67.1-.23.25-.49.22-.71-.29-2 .88-2.6 2.57-2.72.08 0 .16-.05.24-.07 2.44-.63 2.66-.41 2.2 2.15-.68 3.75-3.4 6.32-7.46 7.04-.29.05-.57.09-.86.14-3.35.56-5.59-.81-6.26-4.13-.65-3.24-.82-6.51.11-9.76.68-2.37 2.07-4.13 4.29-5.22 1.94-.96 3.99-1.37 6.15-1.29 2.68.11 4.83 2.99 4.09 5.56-.07.24-.42.5-.68.58-1.08.31-2.17.55-3.26.82-.73.18-1.08-.04-1.07-.86 0-.95.05-2.01-1.18-2.31-1.09-.27-2.53.42-2.89 1.67-.49 1.69-.66 3.47-.96 5.21.06.02.12.03.18.05z"/><path d="m5.00999 51.33c0-4.66.03-9.31-.02-13.97 0-.85.27-1.17 1.05-1.32 1.06-.2 2.11-.47 3.14-.77.98001-.28 1.36001.02 1.35001 1.06-.04 3.53-.01 7.07-.01 10.6 0 5.57-.04 11.14.03 16.71.02 1.32-.42 1.89-1.68001 2.06-.94.13-1.87.37-2.8.61-.82.21-1.1 0-1.09-.9.04-4.7.02-9.4.02-14.09z"/><path d="m32.39 51.52c0-1.79-.02-3.58 0-5.37.01-.77-.16-1.03-1.01-.81-1.52.41-1.55.33-1.55-1.19 0-.33 0-.67-.03-1-.09-.88.16-1.45 1.15-1.54 1.15-.11 1.51-.7 1.49-1.93-.05-3-.56-2.53 2.58-3.25 2.61-.6 2.61-.57 2.61 2.06 0 1.0933.5333 1.48 1.6 1.16 1.38-.42 2.0867.07 2.12 1.47.04 1.87.04 1.86-1.73 2.31-2.28.57-1.97.25-1.97 2.5 0 2.58-.07 5.17.03 7.74.06 1.39.36 2.78.69 4.14.16.68.13.99-.61 1.13-1.14.21-2.29.44-3.39.79-1.12.36-1.56-.06-1.62-1.12-.15-2.36-.3-4.73-.46-7.09h.11z"/><path d="m59.08 44.45c0-2.74.03-5.49-.02-8.23-.01-.9.26-1.41 1.2-1.55.78-.11 1.56-.28 2.3-.54 1.03-.37 1.52-.15 1.44 1.01-.01.18.1.37.15.55.13-.13.29-.25.4-.41.89-1.35 1.96-2.47 3.57-2.95 1.23-.37 1.52-.17 1.57 1.06v.37c0 .91.29 2.02-.12 2.68-.38.6-1.54.71-2.35 1.04-1.64.67-2.7 1.85-2.76 3.66-.1 3.41-.13 6.81-.1 10.22 0 .99-.28 1.44-1.26 1.59-1.02.16-2.02.47-3.03.7-.69.16-1.04.04-1.02-.84.07-2.78.02-5.57.02-8.36z"/><path d="m10.51 69.5c-.02 3.28.3 2.57-2.69003 3.35-1.63.42-3.21.7-4.41-.93-1.25-1.7-.66-3.32 1.37-3.78 1.46-.33 2.92-.67 4.36-1.07 1.01003-.28 1.54003-.12 1.38003 1.07-.06.45 0 .91 0 1.37z"/><path d="m10.51 76.4c.02 2.66.01 2.64-2.66997 3.35-1.63.43-3.18.73-4.4-.88-1.27-1.68-.71-3.31 1.3-3.78 1.49-.35 2.98-.72 4.47-1.09.89997-.22 1.47997-.11 1.30997 1.04-.07.45-.01.91 0 1.37z"/><path d="m10.51 83.4c.03 2.55.03 2.57-2.46999 3.19-.8.2-1.63.36-2.44.35-1.55 0-2.89-1.51-2.79-3.05.05-.76.21-1.51 1.12-1.73 1.77-.42 3.55-.82 5.32-1.24.96999-.23 1.41999.06 1.26999 1.11-.06.45-.01.91-.01 1.37z"/><path d="m98.26 20.37c0-.28-.05-.67.01-1.02.09-.49.27-.79.76-.21.13.16.56.12.84.09.18-.02.35-.2.52-.31.06.26.17.51.17.77 0 .31-.14.62-.13.93.01.39.11.78.18 1.16-.25-.27-.45-.62-.76-.77-.21-.1-.6.01-.83.16-.26.16-.43.46-.63.7-.06-.35-.12-.69-.17-1.04-.02-.12.01-.25.02-.46z"/><path d="m102.46 20.41c0 .12.03.26 0 .37-.09.3-.21.6-.31.89-.03-.29-.11-.59-.09-.88.04-.98.06-2.05-.87-2.57-.69-.39-1.6-.37-2.41-.55-.21-.05-.4-.16-.6-.24.18-.05.36-.14.55-.15 2.41-.24 3.77.89 3.74 3.13z"/></g><path d="m79.97 41.92c.05 1.23-.13 2.53-1.18 3.52-.97.92-2.43 1.12-3.16.46-.6-.54-.78-2.43 0-3.11 1.16-1.02 2.56-1.75 3.88-2.58.06-.04.42.2.44.34.06.4.02.82.02 1.37z" fill="#fdb912"/><path d="m52.67 42.88c-.62.5-.96.94-1.39 1.09-1.05.36-2.15.57-3.23.85-.88.23-1.2-.07-.9-.94.31-.89.51-1.86 1.02-2.61.64-.94 1.81-1.49 2.81-.91.71.41 1.03 1.5 1.68 2.52z" fill="#fdb912"/></svg>