<svg fill="none" height="111" viewBox="0 0 271 111" width="271" xmlns="http://www.w3.org/2000/svg"><g fill="#000"><path d="m160.68 51.77c0-11.32-.01-22.65 0-33.97 0-2.46-.12-2.03 2.07-1.42 4.74 1.3 9.18 3.4 13.66 5.39 6.11 2.72 12.05 5.77 18 8.82 5.01 2.56 9.98 5.2 14.92 7.92 6.59 3.62 13.29 7.06 19.65 11.09.17.11.36.19.53.28 1.12.58 1.13.54 1.2-.74.25-4.14.23-8.29.26-12.43.01-1.17.49-2.32 0-3.5-.07-.16-.07-.45.23-.47.28-.02.56-.1.81.16.55.57 1.14 1.09 1.69 1.65 2.53 2.53 4.99 5.14 7.59 7.6 4.86 4.58 9.61 9.29 14.44 13.9 2.34 2.23 4.65 4.5 6.95 6.77 2.32 2.3 4.72 4.52 7.16 6.68.46.41.57.81.03 1.18-1.19.79-2.14 1.84-3.14 2.84-2.54 2.53-5.13 5-7.59 7.6-7.86 8.32-16.11 16.25-24.15 24.38-1.26 1.27-2.59 2.47-3.68 3.91-.21.27-.46.69-.91.45-.36-.19-.16-.6-.16-.91-.01-5.83 0-11.66-.03-17.48 0-2.33-.22-2.55-2.52-2.27-4.19.52-8.41.54-12.62.56-2.22 0-4.44.04-6.65-.1-4.35-.28-8.69-.75-12.95-1.73-1.87-.43-3.78-.58-5.68-.79-4.75-.51-9.5-.51-14.26-.44-2.79.04-5.58.43-8.37.44-1.94 0-3.84.21-5.73.53-.81.13-.74-.39-.75-.91-.01-2.25-.05-4.5-.05-6.74 0-9.41 0-18.82 0-28.23h.02zm28.33-16.44c-1.72.01-3.28.1-4.83.38-2.97.53-5.72 1.51-8.1 3.5-3.36 2.81-4.63 6.62-5.33 10.7-.62 3.57-.77 7.23-.41 10.79.44 4.37 2.09 8.48 4.9 11.94 3.13 3.84 7.04 6.75 11.66 8.58 3.4 1.35 6.9 2.24 10.63 2.25 1.46 0 2.91-.08 4.37-.04 2.3.06 4.56-.09 6.79-.73 3.86-1.12 6.81-3.39 8.26-7.14 1.4-3.61 1.83-7.41 1.59-11.35-.22-3.51-1.26-6.69-2.73-9.79-2.59-5.47-6.42-9.97-11.29-13.52-4.64-3.38-9.67-5.88-15.51-5.57z"/><path d="m.349957 55.31c0-17.91-.000001-35.81-.020001-53.72 0-.640004.109999-.889988.800004-.889988 3.37.03 6.75.03 10.12004 0 .6 0 .79.159979.77.759978-.04 1.37-.01 2.74002-.01 4.11002v103.06999c0 1.76 0 1.74-1.78 1.74-2.87004 0-5.75004-.03-8.62004.06-1.040003.03-1.280003-.36-1.260003-1.28.04-1.66 0-3.33 0-5 0-16.28 0-32.56 0-48.85z"/><path d="m110.94 34.95c2.04 0 4.08.03 6.12-.02.7-.01.97.18.92.9-.05.83.01 1.67-.02 2.5-.04 1.05-.25 1.78-1.67 1.66-1.63-.14-2.11.43-2.13 2.12-.04 3.16-.06 6.33-.01 9.49.01.93-.23 1.31-1.18 1.17-.45-.06-.92-.06-1.37 0-1.31.16-2.19-.12-2.43-1.66-.15-.95-.88-.81-1.58-.37-2.36 1.46-5.04 2.13-7.7301 2.13-2.5 0-4.86-.89-6.98-2.42-3.06-2.21-4.94-5.23-5.94-8.74-.83-2.91-1.21-5.89-.74-9 .53-3.52 1.61-6.79 3.93-9.41 2.51-2.83 5.56-4.89 9.65-4.86 2.4001.02 4.6901.4 6.8701 1.37.7.31 1.18.18 1.28-.5.12-.82.57-.88 1.2-.85.46.02.93.07 1.37-.01.63-.11.86.32.94.73.54 2.64 1.05 5.29 1.53 7.95.12.68.39 1.33.61 1.95.34.92-.05 1.1-.72 1.43-.83.41-1.83.37-2.54 1.01-.22.2-.4.13-.49-.07-.37-.87-1.38-1.42-1.33-2.47.04-.86-.73-1.12-1.12-1.62-1.63-2.05-3.48-3.9-6.35-3.89-3.1401.02-5.0701 1.96-6.0401 4.64-2.04 5.64-1.9 11.2 1.44 16.42 1.62 2.53 4.5501 3.64 7.4001 2.85.5-.14 1.03-.24 1.48-.49 2.07-1.13 2.66-2.55 2.18-4.96-.06-.28-.03-.58-.01-.87.04-.64-.24-.94-.88-.88-.04 0-.08 0-.12 0-1.76-.0667-2.643-1.0067-2.65-2.82 0-1.6134.823-2.4233 2.47-2.43h4.62z"/><path d="m150.71 35.79c.34 3.01-.42 6.09-1.78 8.92-1.18 2.46-3.04 4.51-5.44 6-2.26 1.4-4.68 1.86-7.31 2.04-3.39.24-6.47-.49-9.13-2.44-3.37-2.47-5.34-5.98-6.28-10.03-1.12-4.79-.57-9.46 1.55-13.86.87-1.8 2.12-3.42 3.78-4.75 5.09-4.08 10.61-4.09 16.28-1.81 2.88 1.16 4.87 3.54 6.33 6.27 1.57 2.95 2.2 6.12 2.01 9.67zm-7.75-2.97c-.37-2.64-.88-5.31-2.84-7.3-1.52-1.54-3.33-2.51-5.7-1.87-2.2.6-3.62 2.02-4.61 3.91-1.53 2.92-1.95 6.09-1.83 9.36.11 2.95.84 5.69 2.54 8.13 1.27 1.82 4.13 2.95 5.99 2.51 4.01-.93 5.59-4.16 6.19-7.57.42-2.35.98-4.76.26-7.19z"/><path d="m34.28 18.35c2.29 0 4.58-.05 6.87.01 3.14.09 6.03.8 8.24 3.31 1.28 1.46 2.14 3.12 2.31 4.99.22 2.57.29 5.16-1.41 7.45-2.07 2.79-4.77 4.35-8.21 4.56-1.87.11-3.75.05-5.62 0-.76-.02-1.02.2-1.02.97-.01 1.95-.12 3.9-.15 5.85-.03 1.78.4 2.2 2.12 2.2.37 0 .75.02 1.12 0 .54-.04.73.17.72.72-.03 1.16-.03 2.33 0 3.5.01.58-.18.81-.79.8-4.16-.02-8.33-.02-12.49 0-.6 0-.79-.17-.77-.78.03-1.24.18-2.48-.13-3.71-.12-.48.2-.49.58-.53 2.2666-.2 3.4-1.44 3.4-3.72 0-3.75-.07-7.5.02-11.24.06-2.62-.36-5.2-.28-7.81.03-.92-.5-1.2-1.35-1.21-2.27-.04-2.27-.06-2.23-2.29 0-.5.04-1 0-1.5-.13-1.56-.11-1.58 1.48-1.58h7.62v.03zm3.59 15.34c.81.27 1.84-.18 2.9-.27 1.74-.15 3.43-2 3.5-3.7.1-2.44-.98-3.99-2.98-4.56-1.69-.48-3.44.05-5.12-.46-.66-.2-.72.35-.72.84-.01 1.96-.02 3.91-.04 5.87-.0134 1.5067.8066 2.2633 2.46 2.27z"/><path d="m76.6399 52.69c-2 0-4-.03-6 .02-.71.02-.98-.22-.93-.91.03-.37 0-.75 0-1.12 0-.87-.21-1.82.05-2.6.32-.97 1.42-.18 2.17-.56 1.27-.64 1.6-.89 1.33-2.24-.02-.12-.1-.22-.14-.34-.46-1.15-.41-2.72-1.34-3.4s-2.41-.13-3.65-.17c-1.37-.05-2.75-.03-4.12-.04-.67 0-1.15.11-1.31.96-.2 1.06-.55 2.11-.97 3.11-.61 1.45.17 2.28 1.65 2.26 1.1-.02 1.33.36 1.24 1.34-.08.95-.04 1.91 0 2.87.02.64-.19.86-.86.84-1.91-.04-3.83.04-5.74 0-1.2-.03-2.39.13-3.58.24-.97.09-1.5-.23-1.34-1.32.08-.57.12-1.18.02-1.74-.24-1.38-.15-2.35 1.63-2.49.89-.07 1.2-1.1 1.45-1.85 2.26-6.82 4.62-13.6 6.65-20.49.56-1.9 1.26-3.75 1.83-5.64.21-.69.51-1.05 1.27-1.04 1.71.02 3.41 0 5.12 0 .5 0 .81.19.97.74 1.73 5.84 3.41 11.69 5.27 17.49.96 2.99 1.75 6.05 3.01 8.94.51 1.17 1.4 2.01 2.73 2.14.51.05.64.26.63.7-.02 1.21-.06 2.41-.04 3.62 0 .66-.34.71-.87.71-2.04-.02-4.08 0-6.12 0zm-7.79-16.49c1.81 0 1.75.03 1.3-1.23-.75-2.12-1.43-4.27-1.89-6.47-.07-.35.09-.87-.36-.92-.37-.04-.51.43-.69.76-.13.23-.15.45-.23.67-.73 2.18-1.16 4.45-2.16 6.54-.31.65.12.86.73.91 1.24.09 2.45-.15 3.29-.26z"/><path d="m61.7399 80.08c0 1.33.04 2.66-.01 3.99-.03.73.25.94.93.87.45-.05.91 0 1.37 0 2.42 0 3.75-.97 4.49-3.28.26-.8.49-1.61.83-2.37.07-.16.07-.82.59-.51.23.14.39.32.38.77-.05 1.45-.4 2.83-.67 4.22-.51 2.65-.6 2.63-3.4 2.64-2.16 0-4.32 0-6.48.01-.69 0-1.37-.06-2.07.21-.41.16-1.09.21-1.16-.52-.05-.51-.29-1.24.71-1.2.22 0 .47-.24.68-.22 1.08.13 1.1-.53 1.1-1.31-.02-3.12 0-6.24 0-9.36 0-2.25-.07-4.5.03-6.74.05-1.08-.37-1.55-1.35-1.58-.75-.03-1.43-.39-1.33-1.06.11-.72.86-.82 1.6-.61 1.34.37 2.79.38 4.06.08 2.1-.49 4.1.33 6.14.08.43-.05.43.38.51.58.56 1.46 1.1 2.94 1.57 4.43.13.41.14 1.03-.39 1.17-.42.11-.69-.34-.84-.75-.12-.3-.25-.6-.37-.9-1.2-2.76-3.54-3.95-6.47-3.29-.52.12-.64.51-.63.9.05 2.36.13 4.72.21 7.08 0 .16.05.36.15.45.5.44 3.05-.45 3.14-1.13.07-.56.33-1.08.26-1.68-.05-.43.32-.85.73-.83.43.02.72.32.77.9.09 1.05-.27 2.04-.28 3.07 0 1.36.43 2.69.25 4.06-.05.4.19.95-.6.94-.73 0-.97-.34-.9-1 .05-.46-.11-.87-.23-1.31-.33-1.19-2.03-2.03-3.09-1.45-.34.18-.2.51-.2.78-.02 1.29 0 2.58 0 3.87z"/><path d="m29.02 80.12c0 1.21.08 2.42-.02 3.62-.09 1.04.3499 1.28 1.2599 1.19.49-.05 1-.05 1.5 0 2.26.23 3.3801-1.14 4.0101-2.86.28-.76.4999-1.54.7599-2.31.14-.42.22-1 .84-.79.54.18.5.73.39 1.18-.29 1.21-.6099 2.41-.9199 3.62-.01.04-.05.07-.05.11-.3734 1.6933-1.4301 2.54-3.1701 2.54-2.91 0-5.82 0-8.73 0-.48 0-1.0999.13-1.0999-.63 0-.62.3499-.87 1.0299-.89 1.33-.04 1.6401-.49 1.6501-2.15.02-2.46 0-4.91 0-7.37 0-2.58-.0001-5.16-.0101-7.74 0-1.06-.1599-2.01-1.5999-1.98-.37 0-.72-.2-.93-.64-.26-.57-.27-.85.45-.84.83.02 1.67.02 2.5 0 2.35-.07 4.7-.14 7.05-.23 1.26-.05 1.9899.44 2.4599 1.75.41 1.15.77 2.32 1.23 3.44.2.49.1901.83-.2899 1-.4.14-.8301.08-1.0501-.39-.05-.11-.0899-.23-.1299-.34-1.65-4.42-2.2-3.72-6.57-3.97-.59-.03-.56.3-.56.69 0 2.37.02 4.74 0 7.12 0 .54.15.68.7.7 2.37.1 2.7399-.22 2.8099-2.69.01-.5-.0599-1.06.6901-1.07.77-.01.7999.57.8099 1.11.02 2.33 0 4.66 0 6.99 0 .52-.1199.9-.7399.9-.61 0-.7901-.34-.7601-.88.01-.21 0-.42 0-.62 0-2.05-1.25-2.92-3.18-2.24-.49.17-.3099.53-.3099.82-.02 1.29 0 2.58 0 3.87z"/><path d="m140.14 86.43c-3.48.08-5.1-1.68-6.41-3.85-1.2-1.98-1.66-4.15-1.78-6.46-.16-2.98.35-5.75 1.83-8.34 1.21-2.13 2.94-3.64 5.43-3.77 2.76-.14 4.7 1.38 6 3.72 1.82 3.27 2.26 6.7 1.59 10.42-.47 2.61-1.35 4.82-3.28 6.62-1.26 1.18-2.33 1.66-3.39 1.66zm4.32-10.24c.11-4.8-.85-7.58-1.73-9.15-1.04-1.85-5.09-1.79-6.07-.06-1.09 1.92-1.67 3.89-1.99 6.07-.47 3.26-.06 6.36 1.22 9.32.52 1.21 1.42 2.35 2.92 2.54 1.62.21 2.94-.32 3.86-1.77 1.57-2.48 1.69-5.28 1.79-6.95z"/><path d="m44.01 75.05c0-2.62-.05-5.25.02-7.87.03-1.02-.42-1.45-1.33-1.5-.8-.04-1.36-.39-1.17-1.19.2-.83.89-.46 1.51-.41 2.15.16 4.3.13 6.46 0 1.41-.08 2.84.06 4.25.13.13 0 .36.18.36.29.03 1.28.9 2.36.88 3.64 0 .38.12.7.22 1.06.12.41.03.89-.49.98-.45.07-.95.04-.96-.64 0-.16-.02-.34-.08-.48-.51-1.08-.61-2.57-1.73-3.06-1.49-.65-3.2-.62-4.85-.55-.53.02-.55.44-.56.81v8.12c0 .53.22.79.83.83 1.9.11 2.45-.36 2.83-2.7.08-.47-.03-.87.69-.85.8.02.58.54.58.94.01 2.22.02 4.44 0 6.66 0 .33.29.84-.43.95-.7.1-.83-.33-.95-.8-.08-.31-.09-.65-.08-.98.01-.63.01-1.23-.7-1.54-.84-.37-1.71-.25-2.55-.12-.33.05-.21.5-.21.76.03 1.99.06 3.99-.03 5.98-.03.78.48 1.3 1.25 1.41.62.1 1.27.07 1.21.97-.07.96-1.1.78-1.38.72-1.78-.39-3.55-.1-5.32-.15-.54-.02-.91-.18-1-.64-.1-.47.32-.7.72-.87 1.32-.56 1.98-1.5667 1.98-3.02 0-2.29 0-4.58 0-6.87z"/><path d="m99.38 74.83v8.12c0 1.06.06 2.08 1.58 1.96.64-.05.81.4.8.99-.02.71-.53.47-.9.51-1.8.21-3.62-.27-5.43.23-.66.18-1.3-.29-1.38-.88-.1-.65.71-1.07 1.16-1.04 1.61.14 1.53-1.12 1.55-1.94.08-5.37.06-10.74.03-16.11 0-1.03-1.57-1.44-2.67-.75-1.07.67-1.38 1.82-1.89 2.85-.22.44-.31.92-.68 1.31-.18.19-.26.63-.55.52-.23-.09-.48-.5-.47-.75.04-.72.19-1.44.33-2.15.26-1.33.85-2.61.54-4.02-.09-.4.27-.59.53-.7.41-.18.91-.09 1.06.35.33.95 1.05.86 1.81.85 2.21-.02 4.42-.06 6.62.02.89.03 1.49-.18 1.82-1.01.14-.34.33-.58.73-.49.34.07.25.38.27.61.16 1.95.86 3.78 1.18 5.69.08.51.34 1.16-.35 1.39-.75.25-.82-.53-1.02-.97-.28-.62-.44-1.28-.76-1.9-.86-1.63-1.36-1.92-3.18-1.87-.62.02-.75.22-.75.8.03 2.79.01 5.58.01 8.37z"/><path d="m122.87 82.07c.66-3.5 1.85-6.68 2.77-9.93.46-1.63 1.06-3.22 1.53-4.85.2-.69.2-1.35-.75-1.64-.51-.16-1.17-.43-.91-1.22.26-.81.81-.3 1.3-.28 1.29.07 2.58.04 3.87.02.33 0 .58.09.74.34.13.2.01.42-.19.53-2.07 1.12-1.87 3.38-2.46 5.18-1.41 4.33-2.58 8.73-3.85 13.1-.24.81-.44 1.63-.74 2.42-.28.75-.88 1-1.67.94-.73-.06-.88-.64-1.03-1.15-1.03-3.49-2.03-6.99-3.04-10.49-.66-2.27-1.25-4.57-1.99-6.81-.34-1.03-.37-2.3-1.64-2.87-.26-.12-.73-.39-.51-.86.16-.34.53-.33.87-.32 1.25.01 2.5.02 3.75 0 .37 0 .68.07.77.44.09.34-.25.61-.46.66-1.92.46-1.33 1.79-.99 2.94 1.29 4.38 2.65 8.75 3.96 13.13.1.32.28.46.64.72z"/><path d="m76.7499 75.08c-.06 3.04.48 5.83 2.22 8.3 1.31 1.87 3.74 2.12 5.39.57.98-.92 1.8-1.97 2.57-3.06.23-.33.52-.65.91-.4.36.23.05.55-.06.86-.88 2.46-4.23 5.47-6.82 5.06-2.01-.31-3.56-1.38-4.67-2.99-1.7-2.47-2.3-5.35-2.24-8.29.06-3.19.87-6.2 2.93-8.78 1.69-2.11 4.59-2.86 7.01-1.67.84.41 1.67.21 2.17-.35.57-.65.76-.33.82.16.25 2.06.56 4.1 1.01 6.13.09.4-.16 1.02-.45.97-.55-.09-1.01-.44-1.3-1.09-.53-1.18-.57-2.53-1.54-3.56-1.84-1.97-4.8-1.84-6.3.92-1.24 2.28-1.7 4.72-1.63 7.2z"/><path d="m106.49 63.98c1.83.22 3.65.39 5.49 0 .38-.08.94.04 1.02.61.09.67-.36 1.1-.92 1.06-1.5-.1-1.62.91-1.56 1.9.31 5.39.2 10.78.22 16.17 0 .74.3 1.18 1.07 1.2.66.02 1.47-.06 1.39.89-.08 1-1.15.78-1.64.74-1.64-.15-3.25-.29-4.87.12-.62.15-1.09-.11-1.16-.72-.06-.6.17-1.09.97-1.04 1.17.07 1.52-.62 1.5-1.69-.06-4.03.17-8.06 0-12.09-.03-.85 0-1.7.21-2.57.35-1.48-.35-2.51-1.83-2.87-.82-.2-.59-.75-.64-1.25-.06-.63.39-.49.74-.46z"/><path d="m172.99 57.09c-.07-3.56.33-6.78 1.24-9.94 1.26-4.37 4.26-6.94 8.52-8.19 2.88-.85 5.86-1.03 8.79-.71 3.6.39 6.94 1.75 9.92 3.83 6.31 4.39 10.99 10.09 13.41 17.46 1.13 3.43 1.35 6.96.67 10.56-.28 1.48-.49 2.95-1.07 4.36-1.46 3.55-4.32 5.22-7.89 5.98-2.72.58-5.5.63-8.23.43-3.86-.29-7.62-1.22-11.24-2.67-3-1.2-5.63-2.96-7.88-5.19-2.75-2.73-4.58-6.04-5.53-9.86-.52-2.09-.78-4.17-.7-6.03zm11.49 6.6c.11.46.17.78.27 1.08.95 2.88 2.48 5.2 5.68 5.93.58.13.88.46.82 1.13-.07.79-.04 1.58 0 2.37.03.91.29 1.55 1.44 1.51 1.08-.04 1.35-.57 1.31-1.51-.03-.58.05-1.17-.02-1.75-.12-1.02.42-1.29 1.3-1.27.99.01 1.96 0 2.95-.22 2.79-.63 5-2.02 6.07-4.74 1.23-3.11.37-6.88-3.76-7.56-1.82-.3-3.61-.82-5.42-1.22-.78-.17-1.19-.55-1.15-1.43.07-1.33.05-2.67 0-4-.02-.66.21-.91.85-.84 1.54.17 3.06.35 4.18 1.65.62.72 4.14 1.33 4.33.76.45-1.29-.6-2.24-1.13-3.31-.02-.03-.06-.05-.09-.08-1.8-2.02-4.17-2.71-6.75-2.72-1.11 0-1.54-.32-1.39-1.41.03-.2-.02-.42 0-.62.14-1.01-.38-1.37-1.3-1.52-1.08-.17-1.19.66-1.43 1.3-.14.36-.05.83-.02 1.24.06.76-.05 1.25-1.03 1.27-.88.02-1.66.55-2.44.96-3.12 1.64-3.88 5.06-2.94 7.58.9 2.43 3.08 3.6 5.53 4.14.7.15 1.08.41 1.05 1.1-.06 1.8.17 3.61-.25 5.4-1-.35-1.12-.3-1.42-1.03-.82-1.96-2.26-2.57-4.25-2.2-.28.05-.58 0-1 0z"/><path d="m193.98 64.34c0-.33 0-.66 0-.99 0-2.45-.26-2.01 2.02-1.63.99.16 1.97.42 2.92.75.91.31 1.94.65 2.03 1.82.09 1.13-.8 1.84-1.6 2.31-1.51.88-3.25.93-4.97.84-.45-.02-.39-.33-.39-.61 0-.83 0-1.66 0-2.49z"/><path d="m191.23 53.46c0 .46-.06.92.02 1.36.07.41.19.85-.2 1.06-.4.22-.74-.2-1.09-.37-.07-.03-.11-.13-.17-.17-2.47-1.51-1.7-2.36.42-3.67.78-.48 1.11-.24 1.03.66-.04.37 0 .75 0 1.12z"/></g></svg>