<svg fill="none" height="101" viewBox="0 0 283 101" width="283" xmlns="http://www.w3.org/2000/svg"><path d="m.98999 49.44c.34-.24.85-.4 1-.73 1.58-3.41 4.42-5.77 6.95-8.39 1.99001-2.07 3.96001-4.15 6.04001-6.13.47-.45 1.31-.68 1.99-.69 1.9-.03 3.81.27 5.7.16 3.33-.2 5.67 1.56 7.83 3.68 4.34 4.26 8.63 8.57 12.94 12.86 3 2.99 6.54 2.49 9.22.09 3.93-3.5 7.49-7.41 11.26-11.1 1.5-1.47 3.12-2.83 4.74-4.18 1.52-1.27 3.41-1.37 5.27-1.53.41-.03.83 0 1.25 0 2.9467.0333 5.46 1.11 7.54 3.23 2.6 2.63 5.42 5.07 7.8 7.89 3.37 4 4.33 8.62 2.8 13.78-.85 2.89-2.59 5.05-4.59 7.09-2.45 2.48-5.13 4.75-7.41 7.37-1.35 1.55-2.75 2.03-4.64 1.85-1.93-.18-3.92-.05-5.78-.48-1.33-.31-2.7-1.12-3.71-2.07-4.23-4-8.31-8.17-12.5-12.21-1.38-1.33-2.54-2.98-4.58-3.48-2.23-.54-4.35-.57-6.11 1.15-4.67 4.57-9.34 9.13-13.96 13.75-2.29 2.29-4.91 3.56-8.22 3.37-1.52-.09-3.05.22-4.57.18-.72-.02-1.62-.26-2.1-.74-3.55-3.51-7.11001-7.02-10.45001-10.73-1.23-1.36-1.85-3.26-2.79-4.9-.23-.41-.6-.74-.9-1.1 0-2.67 0-5.33 0-8z" fill="#32bdac"/><path d="m44.23 100.43c-1.22-.52-2.56-.86-3.64-1.59-1.6-1.08-3.11-2.34-4.49-3.7-5.13-5.05-10.2-10.17-15.29-15.26-.27-.27-.46-.61-.57-.75 2.1-.31 4.15-.51 6.15-.93 2.84-.6 4.94-2.47 6.93-4.43 4.2-4.15 8.36-8.35 12.54-12.53 1.44-1.44 3.03-1.52 4.47-.1 4.4 4.37 8.79 8.75 13.14 13.17 2.89 2.94 6.29 4.56 10.46 4.39.33-.01.66 0 1.34 0-.86.97-1.5 1.76-2.21 2.47-4.82 4.84-9.62 9.69-14.5 14.47-1.25 1.22-2.75 2.19-4.17 3.23-.31.23-.78.35-1.17.32-1.16-.07-1.72.67-2.24 1.51h-6c-.25-.09-.5-.17-.76-.26z" fill="#32bdac"/><path d="m282.99 18.44c-1.08.88-2.33 1.03-3.68 1.02-2.07 0-4.15.06-6.21.24-2.59.22-4.74 1.47-6.55 3.27-5.61 5.58-11.18 11.2-16.8 16.78-2.05 2.03-4.52 3.05-7.35 2.13-1.29-.42-2.52-1.31-3.51-2.26-3.7-3.54-7.28-7.21-10.93-10.8-2.27-2.24-4.55-4.47-6.88-6.64-2.06-1.93-4.64-2.64-7.38-2.75-2.5-.1-5-.08-7.5-.05-1.19.01-1.8-.65-1.93-1.67-.14-1.08.55-1.78 1.59-1.84 2.12-.11 4.25.05 6.36-.13 3.82-.34 7.17 1 10.15 3.04 2.3 1.58 4.23 3.71 6.23 5.69 4.2 4.17 8.36 8.36 12.47 12.61 2.32 2.4 4.79 1.75 6.48.02 5.45-5.56 10.99-11.05 16.51-16.54 3.08-3.06 6.76-4.71 11.16-4.63 1.62.03 3.25.01 4.87-.01.38 0 .75-.14 1.07-.21.6.24 1.21.49 1.83.73z" fill="#95979a"/><path d="m282.99 69.19c-1.29.17-2.58.36-3.88.49-2.68.28-5.33.14-7.95-.6-2.49-.7-4.72-1.85-6.55-3.66-5.24-5.18-10.42-10.42-15.63-15.64-.53-.53-1.07-1.05-1.6-1.58-1.62-1.59-4.53-1.68-6.22.07-4.4 4.55-8.91 8.99-13.39 13.46-1.5 1.49-2.92 3.11-4.61 4.36-2.7 2-5.63 3.63-9.18 3.59-2.21-.03-4.41 0-6.62 0-2.53 0-2.74-.17-3.37-2.93 1.02-.2 2.03-.52 3.05-.58 2.49-.14 4.99-.07 7.47-.26 2.91-.22 5.47-1.33 7.57-3.44 5.5-5.51 11.03-10.99 16.54-16.5 3.46-3.46 7.62-3.56 11.14-.17 2.76 2.66 5.43 5.4 8.16 8.1 3.07 3.03 6.12 6.08 9.23 9.07 2.19 2.11 4.96 2.93 7.9 3.18 1.61.13 3.25.04 4.87-.01 1.17-.04 2.23.16 3.07 1.04v2z" fill="#95979a"/><path d="m193.24.690002c.35.519998.64 1.089998 1.06 1.539998.74.78 1.6 1.46 2.33 2.24.89.95.91 2.19.05 3.14-.95 1.05-1.92 2.06999-2.95 3.04-1.21 1.15-2.42 1.13-3.61-.01-1.05-1.01-2.1-2.01-3.04-3.11-.91-1.06-.82-1.91.15-2.94 1.05-1.11 2.12-2.20001 3.17-3.33001.11-.12.06-.379988.08-.569988h2.75z" fill="#32bdac"/><path d="m20.05 28.46c.51-.27 1.12-.44 1.52-.84 2.98-2.95 5.9-5.97 8.89-8.92 2.81-2.77 5.56-5.61 8.55-8.16 3.71-3.16001 8.09-3.63 12.67-2.26 3.32.99 5.87 3.2 8.26 5.58 4.6 4.58 9.16 9.2 13.71 13.82.4.41.66.95 1.17 1.7-1.61.16-2.87.22-4.11.42-3.34.56-5.75 2.67-8.05 4.95-4.05 4.01-8.19 7.94-12.11 12.07-1.69 1.78-3.29 1.73-5.09-.05-4.32-4.27-8.63-8.55-12.86-12.91-2.91-3.01-6.42-4.4-10.54-4.44-.51 0-1.03-.16-1.54-.24-.16-.24-.32-.48-.47-.72z" fill="#32bdac"/><g fill="#95979a"><path d="m115.24 64.34c0-9.75-.13-19.5.06-29.24.08-4.34 2.03-8.17 4.72-11.57 2.95-3.73 6.79-6.1 11.39-7.15 1.56-.36 3.2-.46 4.8-.47 5.66-.05 11.33-.11 16.99.03 7.49.19 13.43 3.29 17.32 9.86.74 1.26 1.23 2.67 1.86 3.99 2.01 4.26 1.26 8.8 1.4 13.25.08 2.57.29 5.17.04 7.71-.39 3.87-1.78 7.44-4.16 10.59-3.09 4.09-7.05 6.86-12.1 7.9-1.69.35-3.44.58-5.17.6-7.41.07-14.83.06-22.24 0-.86 0-1.86-.41-2.54-.96-.84-.67-.45-2.05.59-2.38.7-.22 1.47-.28 2.21-.28 7.96-.02 15.91.03 23.87-.06 1.96-.02 3.9-.46 5.6-1.66.81-.57 1.92-.71 2.72-1.28 4.13-2.9 7.07-6.67 7.34-11.87.28-5.35.55-10.74.19-16.07-.47-6.84-4.06-11.84-10.53-14.48-2.04-.83-4.17-1.21-6.46-1.16-4.87.1-9.74-.17-14.62-.17-2.14 0-4.35.03-6.4.53-7.09 1.73-11.44 6.31-13.09 13.41-.24 1.04-.29 2.14-.29 3.21 0 18.83.01 37.66 0 56.49 0 .65-.07 1.35-.31 1.94-.53 1.26-2.02 1.38-2.72.2-.33-.57-.46-1.33-.47-2.01-.03-9.62-.02-19.25-.02-28.87z"/><path d="m193.74 46.42v21.23c0 .97-.02 1.93-1.21 2.31-1.1.35-1.76.11-2.1-1-.18-.58-.19-1.23-.19-1.84 0-13.53-.01-27.06 0-40.59 0-1.98-.36-3.8-1.8-5.27-1.16-1.19-2.55-1.84-4.22-1.84-2.33 0-4.66.02-6.99-.01-1.43-.02-2.22-.62-2.22-1.62-.01-1.26.68-1.91 2.24-1.89 2.99.05 6.02-.13 8.94.33 4.49.71 7.53 4.64 7.55 9.21.03 6.99 0 13.99 0 20.98z"/><path d="m199 90.41c0-.58 0-1.16 0-1.75 0-1.77 0-1.79 1.82-1.71 1.07.05 2.15.07 3.2.25.45.08 1.13.5 1.18.83.2 1.5.26 3.03.26 4.55 0 .28-.49.76-.8.8-1.66.23-3.34.39-5.02.48-.19.01-.57-.54-.6-.85-.08-.87-.03-1.74-.03-2.62zm3.48.55c-.25 0-.5.02-.75 0-.66-.03-1.23-.04-1.26.91-.02.95.46 1.12 1.24 1.08.5-.03 1 0 1.49-.02.74-.02 1.3-.21 1.24-1.15-.07-.96-.72-.84-1.35-.82-.21 0-.42 0-.62 0zm1.2-2.68h-3.11c-.16 1.98-.07 2.02 3.11 1.5z"/><path d="m246.78 87.88c-1.28.13-2.5.19-3.7.38-1.38.23-1.7.74-1.61 2.28.07 1.32.72 2.07 1.95 2.14.79.04 1.58-.03 2.37-.03.38 0 .76.05 1.24.08-1.07 1.16-3.85 1.57-5.3.89-1.24-.58-1.9-1.97-1.74-3.67.13-1.41 1.29-2.64 2.8-2.96 1.72-.37 3.47-.05 3.99.9z"/><path d="m260.23 90.35c-.93-.16-1.7-.38-2.47-.38-.25 0-.68.52-.73.85-.12.76.02 1.55-.1 2.31-.04.29-.5.51-.76.76-.22-.25-.62-.5-.63-.76-.06-1.44-.03-2.88-.03-4.14 1.22-.1 2.27-.14 3.31-.28 1.71-.24 2.68.54 2.68 2.23 0 .71.04 1.42-.03 2.11-.03.3-.3.57-.46.85-.26-.3-.71-.58-.75-.9-.1-.89-.04-1.8-.04-2.65z"/><path d="m128.33 95.46c-.09-1.84-.24-3.67-.23-5.51 0-.8.46-1.36 1.46-1.23.69.09 1.41.05 2.11-.03 1.2-.14 1.95.37 2.34 1.48.47 1.33.25 2.72-.78 3.22-.92.45-2.06.76-3.05.64-.96-.12-1.33-.13-1.24.91.02.2-.13.41-.21.62-.14-.03-.27-.06-.41-.09zm2.71-6.05c-2.09.03-2.12-.44-2.09 1.71.03 2.22-.5 2.15 2.23 2.13 1.96-.02 2.67-1.04 2.14-2.91-.4-1.4-1.53-.75-2.27-.93z"/><path d="m213.22 93.96c-1.51 0-2.8.03-4.08-.01-.94-.03-1.53-.57-1.67-1.5-.15-1.02.67-1.27 1.37-1.44.63-.15 1.34 0 1.98-.13.32-.06.58-.44.86-.68-.29-.18-.57-.46-.88-.5-.61-.08-1.25.03-1.87-.03-.22-.02-.41-.31-.61-.47.24-.16.49-.45.73-.45.86 0 1.73.19 2.59.17 1.02-.03 1.48.55 1.56 1.4.1 1.15.02 2.31.02 3.65zm-1.23-.81c-.32-.66-.45-1.35-.7-1.39-.81-.13-1.67-.09-2.48.03-.21.03-.34.58-.5.89.31.16.6.42.92.45.78.07 1.57.02 2.76.02z"/><path d="m214.99 88.93c1.7 0 3.22-.03 4.73.01.78.02 1.27.44 1.29 1.32.02.86.16 1.72.15 2.58 0 .29-.34.56-.52.85-.22-.24-.6-.47-.64-.74-.09-.65-.04-1.33-.02-1.99.03-.74-.28-1.04-1.04-1.03-2.84.03-2.4-.25-2.49 2.34-.02.55.51 1.54-.55 1.6-1.14.07-.9-.93-.9-1.65-.01-1.03 0-2.07 0-3.29z"/><path d="m232.05 88.96c.54 0 1.1-.1 1.61.02 1.03.23 1.68 1.31 1.48 2.87-.08.63-.75 1.49-1.33 1.68-.96.31-2.09.31-3.1.16-1.45-.22-2.14-1.31-1.99-2.76.13-1.32.97-2 2.47-2.02h.87v.04zm1.68 2.33c0-1.41-.19-1.6-1.71-1.61-1.6-.01-2.24.4-2.27 1.47-.04 1.34.62 2.03 1.93 2.02 1.44 0 2.04-.56 2.05-1.88z"/><path d="m253.6 91.41c-1.08.1-2.19.16-3.28.32-.37.05-.71.34-1.06.52.37.3.71.8 1.12.87.81.14 1.65.03 2.49.04.19 0 .37.06.62.11-1.25 1.09-4.62.87-5.2-.25-.81-1.57-.71-2.44.42-3.7.62-.69 2.23-.9 3.44-.44 1.55.59 1.73.9 1.47 2.53zm-2.72-.26c.25 0 .52.07.73-.01.37-.14.71-.38 1.06-.57-.32-.36-.57-.88-.97-1.03-.46-.18-1.1-.18-1.57-.01-.42.15-.72.64-1.08.98.36.22.71.47 1.1.64.21.09.49.02.73.01z"/><path d="m175.92 88.73c.06-.76.11-1.32.16-1.89h.3v6.85c-1 .07-2.18.22-3.36.22-1.5 0-2.2-.79-2.23-2.38-.04-1.65.74-2.7 2.17-2.8.94-.06 1.89-.01 2.97-.01zm-.16.67c-1.05 0-1.88-.09-2.69.03-.48.07-1.04.36-1.32.73-.65.86-.39 2.68.56 2.93 1.01.27 2.18-.05 3.27-.16.08 0 .17-.36.17-.55.02-.94 0-1.89 0-3z"/><path d="m274.74 91.28c.47-1.25 2.32.24 2.51-1.58-.85 0-1.63.06-2.39-.02-.38-.04-.72-.33-1.08-.51.37-.1.73-.27 1.1-.29.66-.03 1.33.02 1.99.04.93.04 1.74.17 1.68 1.44-.04.77.12 1.55.2 2.33.09.89-.23 1.32-1.19 1.26-.87-.06-1.76.07-2.62-.03-.5-.06-.97-.42-1.31-.89h3.94c.05-2.29-1.77-1.33-2.83-1.76z"/><path d="m141.49 91.22c-.03 2.21-.74 2.93-2.88 2.93-1.89 0-3.5-1.24-3.32-2.75.24-1.97.26-2.79 3.83-2.68 1.57.05 2.6.3 2.36 2.5zm-5.32-.04c0 1.47.77 2.27 2.18 2.3 1.8.04 2.65-.63 2.66-2.1.01-1.38-.82-2.21-2.18-2.18-1.9.04-2.66.6-2.65 1.99z"/><path d="m151.57 88.94c-.63 1.57-1.26 3.13-1.88 4.7-.12.03-.25.06-.37.09-.7-1.25-1.39-2.5-2.18-3.9-.74 1.46-1.38 2.73-2.22 4.37-.82-1.89-1.52-3.49-2.21-5.08.16-.07.31-.15.47-.22.53 1.2 1.07 2.4 1.75 3.93.82-1.54 1.44-2.72 2.25-4.25.78 1.45 1.44 2.69 2.28 4.25.65-1.58 1.16-2.81 1.67-4.04.15.05.3.1.44.14z"/><path d="m182.38 86.81c.05.58.11 1.16.17 1.87 1 0 1.98-.02 2.96 0 1.44.04 2.3.92 2.34 2.35.04 1.66-.7 2.67-2.11 2.87-.49.07-1.01.33-1.44.22-2.13-.57-2.35.22-2.31-2.54.02-1.57 0-3.15 0-4.73.13-.01.26-.03.39-.04zm2.15 6.66c1.98-.25 2.22-.28 2.36-1.07.39-2.27.26-3.35-2.21-3.23-.41.02-.83-.04-1.24.01-.25.03-.69.19-.7.32-.11 1.09-.31 2.22-.11 3.27.07.34 1.24.47 1.9.69z"/><path d="m165.15 91.24c.93-.09 1.87-.15 2.79-.28.29-.04.77-.28.77-.43 0-.32-.17-.73-.41-.94-.71-.63-2.93-.71-3.37.05-.42.74-.45 1.81-.33 2.69.05.36.91.8 1.44.87 1.06.14 2.14.04 3.29.04-.07.22-.08.42-.13.43-1.44.32-2.92.66-4.32 0-1.45-.68-1.06-2.11-1.09-3.32-.03-1.08 1-1.4 1.67-1.53.97-.18 2.07-.04 3.04.23.85.24 1.22 1.15.9 1.93-.14.34-1.06.42-1.64.47-.85.08-1.72.02-2.58.02 0-.07 0-.15 0-.22z"/><path d="m152.92 90.43c-.07-.18-.15-.28-.12-.33.53-1.23 1.55-1.42 2.75-1.43 1.18-.01 2.13.21 2.67 1.37.37.78.22 1.33-.68 1.43-1.15.12-2.3.13-3.46.2-.2.01-.39.06-.68.11.04 1.43 1.07 1.41 2 1.46.89.04 1.78 0 2.87 0-1.01.87-3.14 1.02-4.33.54-1.43-.58-.77-1.78-.88-2.59 1.16 0 2.32.06 3.47-.03.42-.04.8-.46 1.2-.7-.32-.38-.57-.92-.98-1.12-1.26-.6-2.71-.16-3.83 1.08z"/><path d="m267.27 93.57c-2.91.53-3.44 0-3.56-2.64-.03-.62-.58-1.21-.88-1.79.3-.36.75-.9 1.38-1.66-.03 0 .54-.02.55.06.17 1.05.72 1.56 1.81 1.46.03 0 .17.34.12.41-.11.13-.33.28-.48.26-1.04-.12-1.34.39-1.25 1.32.09.85-.24 1.92 1.21 2 .37.02.73.38 1.09.58z"/><path d="m194.24 88.89c-.3.65-.59 1.32-.91 1.96-.64 1.3-1.27 2.61-1.95 3.9-.59 1.12-1.45 1.37-2.88.75.46-.13.75-.24 1.04-.28 1.37-.2 1.81-1.01 1.19-2.29-.53-1.08-1.12-2.12-1.66-3.19-.11-.21-.12-.47-.18-.71.11-.05.22-.1.33-.14.72 1.29 1.43 2.58 2.32 4.18.85-1.66 1.54-3.02 2.23-4.38.16.07.31.14.47.2z"/><path d="m227.43 89.33c-1.09.42-2.78-.43-3.16 1.37-.18.88-.15 1.91 1.02 2.19.77.19 1.58.18 2.55.28-1.9 1.09-3.76.97-4.66-.18-.7-.9-.59-2.6.23-3.45.74-.78 3.02-.92 4.02-.22z"/><path d="m268.5 89.05c1.07-.13 2.01-.27 2.95-.33.25-.01.51.24.77.38-.16.2-.32.57-.49.58-2.36.06-1.98 1.75-2.03 3.25 0 .33-.42.65-.64.97-.19-.3-.52-.6-.53-.91-.06-1.28-.03-2.57-.03-3.94z"/><path d="m281.16 86.73c.55 2.28.34 4.6.1 6.93-.73-2.27-.4-4.59-.1-6.93z"/><path d="m163.32 89.1c-4-.26-2.5 2.66-3.24 4.45 0-1.46-.04-2.93.05-4.39 0-.16.69-.37 1.07-.41.6-.07 1.21-.02 1.82-.02.1.12.2.24.3.37z"/></g></svg>