<svg fill="none" height="34" viewBox="0 0 101 34" width="101" xmlns="http://www.w3.org/2000/svg"><path d="m.98999 22.18c2.76-.17 5.51-.33 8.27-.51.77001-.05 1.05001.14 1.29001 1.02.91 3.33 3.75 5.05 6.92 3.96.91-.31 1.77-1.05 2.39-1.8.76-.93.23-2.78-1.02-3.34-1.71-.76-3.54-1.3-5.35-1.82-3.32-.94-6.69001-1.81-9.11001-4.51-3.47-3.88-3.04-9.01001 1.15-12.28001 2.53-1.969995 5.39001-2.8799857 8.62001-2.739986 2.2.09 4.45-.1900003 6.61.14 1.35.21 2.63 1.159996 3.86 1.919996 1.72 1.06 2.94 2.58999 3.55 4.53999.25.81.44 1.64002.54 2.48002.02.2-.42.62999-.67.64999-2.58.22-5.17.34-7.75.56-.88.08-1.05-.48-1.2-1.08-.79-3.15-4.06-3.43999-6.34-2.62999-.64.23-1.42 1.22999-1.39 1.83999.04.64.86 1.55 1.53 1.79 2.08.74 4.25 1.22 6.38 1.81 2.82.77 5.63 1.56 7.83 3.69 1.62 1.57 2.53 3.38 2.67 5.66.14 2.32-.33 4.5-1.49 6.45-1.22 2.06-3.16 3.37-5.38 4.22-3.53 1.34-7.16 1.38-10.87 1.01-2.93001-.29-5.56001-1.19-7.64001-3.3-1.41-1.42-2.55-3.06-2.7-5.2-.03-.36-.45-.69-.69-1.03 0-.5 0-1 0-1.5z" fill="#002972"/><path d="m100.99 29.93c-.05-.06-.1-.12-.15-.18.05-.02.1-.05.15-.07z" fill="#f19700"/><path d="m59.77.769998c.21-.05.29-.090012.37-.090012 8.27-.08 16.55-.149994 24.82-.259994.94-.01 1.28.370001 1.28 1.219998v4.87c0 .86-.37 1.2-1.29 1.19-4.66-.06-9.33-.03-13.99-.11-1.16-.02-1.63.34-1.48 1.5.05.41 0 .83 0 1.25001 0 2.42 0 2.38 2.36 2.36 3.91-.03 7.83.02 11.74-.03 1-.01 1.36.48 1.39 1.31.05 1.5.01 3 .02 4.5 0 .99-.71.96-1.38.96-3.58-.01-7.16-.04-10.74-.06-1.08 0-2.15 0-3.38 0 0 1.89-.05 3.62.05 5.35.02.26.74.67 1.14.68 4.66.04 9.33.02 13.99.01 1.88 0 1.89.06 1.83 1.89-.04 1.4.06 2.8.16 4.2.08 1.1-.53 1.67-1.61 1.44-.32-.07-.66-.06-.99-.06-7.25 0-14.49 0-21.74.03-.64 0-1.28.17-2.18.29-.1-.35-.36-.87-.36-1.39-.03-10.12-.03-20.24-.04-30.37001 0-.2.02-.4.03-.660003z" fill="#f19700"/><path d="m30.99 11.8c0-3.28.04-6.56-.02-9.84-.02-1.219998.49-1.600001 1.63-1.550001 1.8.07 3.59.050002 5.39.080002 3.57.06 7.14.049991 10.71.209991 3.76.16 6.9 1.550008 8.72 5.100008.94 1.83.7 3.84.73 5.8 0 .15-.14.3-.16.45-.59 5.67-4.52 8.19-8.55 8.61-2.29.24-4.62.25-6.93.26-1.13 0-1.63.28-1.56 1.53.16 2.98.17 5.96.29 8.94.04 1.12-.27 1.63-1.53 1.57-2.41-.1-4.83-.06-7.24-.01-.94.02-1.35-.23-1.34-1.25.01-2.11-.13-4.21-.14-6.32-.02-4.53 0-9.05 0-13.58zm10.12 2.36c1.42 0 2.83.09 4.22-.02 1.61-.14 3.07-1.64 3.16-3.05.11-1.61001-.83-3.02001-2.66-3.41001-1.53-.32-3.15-.24999-4.72-.34999v6.82z" fill="#002972"/><path d="m94.24 19.18v6.78c.5-.42.85-.61 1.04-.9 1.19-1.89 2.32-3.81 3.51-5.69.36-.57.77-1.23 1.71-.83-.16 1.33-.41 2.65-.45 3.97-.08 2.33-.05 4.66 0 6.99.01.58.2 1.17.4 1.73.36.98-.16 1.67-1.41 1.69-2.33.03-4.66 0-6.99.02-.44 0-.87.08-1.53.15-.07-.42-.24-.95-.25-1.48-.02-3.2 0-6.41 0-9.61 0-.37.03-.75-.03-1.12-.25-1.7-.26-1.7 1.52-1.7h2.49z" fill="#002972"/><path d="m99.87 13.69c-2.09-2.68-3.08-5.70999-5.64-7.82999 0 2.06-.06 3.73999.02 5.41999.06 1.1-.29 1.52-1.4 1.42-.82-.08-1.65-.02-2.64-.02.07-1.31.17-2.5.18-3.68.02-2.42.01-4.82999-.02-7.24999-.01-.990005.32-1.390007 1.4-1.330007 2.16.11 4.33.040008 6.49.070008 1.98.03 2.01.269989 1.86 2.269989-.18 2.36-.09 4.75001-.04 7.12001.02.79999.34 1.58999.36 2.38999.01.41-.33.83-.58 1.42z" fill="#f19700"/></svg>