<svg fill="none" height="100" viewBox="0 0 180 100" width="180" xmlns="http://www.w3.org/2000/svg"><path d="m10.84 49.88c-1.35-3.63-2.16-7.42-3.32-11.1-1.78-5.66-3.51-11.33-5.04-17.07-.7-2.64-1.61-5.22-2.48-8h7.82c.49 0 .6.32.73.79.48 1.69 1.09 3.36 1.52 5.03.48 1.9.92 3.83 1.43 5.73.87 3.26 1.69 6.53 2.55 9.79.29 1.09.66 2.16.95 3.24.07.27.19.55.4.55.19 0 .35-.27.37-.55.21-2.26 1.05-4.36 1.59-6.54 1.31-5.27 2.76-10.5 4.15-15.74.18-.69.47-1.14 1.34-1.1 1.58.08 3.17.11 4.74 0 1.08-.08 1.44.44 1.66 1.32 1.04 4.34 2.28 8.62 3.49 12.91.92 3.25 1.75 6.52 2.68 9.98.97-1.38 1.2-2.87 1.53-4.25 1.63-6.86 3.53-13.65 5.28-20.49.15-.6.43-.7.94-.7 2.21 0 4.41.02 6.62 0 .93-.01.98.34.72 1.12-.86 2.65-1.66 5.32-2.48 7.98-.03.1.04.23.1.58 4.24-6.94 9.83-10.99 18.27-10.49 8.32.49 13.74 4.63 17.14 12.23.34-.91.45-1.74.45-2.6 0-6.87.01-13.73996-.03-20.60996 0-.950002.19-1.270013 1.2-1.230013 2.25.09 4.5.07 6.74 0 .86-.02 1.11.180007 1.1 1.070003-.05 5.16-.02 10.32997-.02 15.48997v.8c1.1-1.03 1.92-2.07 3.04-2.79 3.75-2.41 7.8-2.94 12.15-2.34 3.37.46 6.35 1.66 9.03 3.77 2.16 1.7 3.62 3.86 4.77 6.28 1.34 2.83 2.05 5.85 1.96 8.95-.13 4.55-1.08 8.93-3.99 12.62-1.51 1.92-3.36 3.48-5.51 4.66-.49.23-.97.47-1.23.99-.67-.1-1.28.14-1.9.33-2.04.62-4.06 1.21-6.23 1.21-.55 0-.87-.48-1.4-.37-1.5.29-2.91-.15-4.29-.65-2.55-.93-4.67-2.43-6.23-4.69-.15-.21-.35-.36-.63-.32-.46.08-.29.46-.27.69.07.93.18 1.87.28 2.8-.19.28-.38.5-.78.51-2.59 0-5.19-.1-7.77.21 0-4.04 0-8.07 0-12.11 0-2.68 0-2.7-2.63-2.71-8.49-.01-16.98 0-25.46-.02-.7 0-.98.14-.91.88.25 2.67 1.69 4.67 3.72 6.22 3.04 2.32 6.58 2.49 10.13 1.68 1.82-.42 3.5-1.36 4.67-3.01.45-.63.71-1.62 1.75-1.61 1.95 0 3.91-.05 5.85.14.66.06 1.75-.39 1.98.45.15.52-.48 1.31-.86 1.92-2.06 3.32-4.7 6.03-8.25 7.77-.63.28-1.25.03-1.87-.08-1.02-.19-2.03-.5-3.06-.64-1.86-.26-3.7.1-5.5.45-.8.15-1.69-.18-2.4.42-.69.58-1.52.76-2.38.86-8.73-3.66-12.85-10.33-12.86-19.76-.29.14-.35.33-.43.59-1.07 3.66-2.16 7.32-3.24 10.98-.77 2.62-1.53 5.25-2.29 7.87-2.7-1.16-5.62-1.1-8.45-1.56-.83-3.3-1.63-6.61-2.51-9.9-1.05-3.93-2.17-7.84-3.24-11.76-.09-.34-.12-.72-.5-.73-.48-.02-.08.59-.42.77-.09.05-.06.3-.1.46-1.37 5.15-2.77 10.3-4.1 15.46-.6 2.33-1.37 4.62-1.68 7.02-2.71-.36-5.42-.24-8.13-.07zm91.03-29.18c-2.39.05-5.28 1.66-7.44 4.68-1.88 2.62-2.23 5.61-1.88 8.65.3 2.63 1.53 5.04 3.52 6.77 2.52 2.18 5.5 3.15 8.97 2.69 2.87-.38 5.09-1.68 7.03-3.71 2.27-2.37 2.84-5.37 2.86-8.43.01-1.6-.55-3.23-1.34-4.71-2.22-4.13-5.76-5.96-11.71-5.95zm-34.76 7.8c3.18 0 5.59-.05 8 .02 1.01.03.96-.34.76-1.09-.71-2.58-2.43-4.33-4.59-5.73-1.37-.88-2.95-1.45-4.45-1.63-1.08-.13-2.39.1-3.59.33-3.79.71-6.53 2.64-7.96 6.27-.63 1.61-.32 2.04 1.43 2.02 3.73-.04 7.46-.35 10.42-.19z" fill="#000"/><path d="m31.52 48.63c2.83.46 5.75.4 8.45 1.56 2.01 1.02 3.83 2.26 5.42 3.9 1.64 1.69 2.62 3.77 3.86 5.69.2.31.19 1.01.71.87.41-.11.59-.67.81-1.11 1.27-2.56 2.84-4.86 5.1-6.72.96-.79 2.25-1.18 2.92-2.32.86-.1 1.69-.28 2.38-.86.71-.6 1.6-.27 2.4-.42 1.81-.35 3.65-.7 5.5-.45 1.03.14 2.03.45 3.06.64.61.12 1.23.36 1.87.08.08.67.7.71 1.14.97 1.53.9 2.9 1.98 3.97 3.42.17.23.18.76.63.6.38-.13.26-.56.26-.88 0-.91-.06-1.83.04-2.73.06-.53.07-1.42 1.02-1.12.99.31 1.96.12 2.94.15 2.58-.31 5.18-.2 7.77-.21.4 0 .59-.23.78-.51.25.44.63.56 1.11.51 1.26-.13 2.06.27 2.39 1.67.33 1.42.93 2.78 1.46 4.14 2.34 6 4.32 12.13 6.84 18.23.16-.81.86-1.01 1.08-1.62 1.08-2.98 2.09-5.99 3.25-8.95 1.67-4.26 3.04-8.65 4.54-12.98.25-.52.74-.76 1.23-.99 1.13.66 2.37.48 3.59.49 1.33.01 2.67.04 4-.01.94-.04 1.16.28.68 1.06-1.49 2.41-2.37 5.11-3.37 7.72-1.3 3.42-2.73 6.79-3.96 10.24-1.08 3.03-2.42 5.95-3.45 9-.71 2.11-1.83 4.0701-2.65 6.1501-1.14 2.85-2.13 5.7699-3.28 8.6099-.57 1.4-1.01 2.86-1.78 4.18-.44.75-.28 1.71-.88 2.5-.3.39-.48.53-.91.53-2.54 0-5.08-.01-7.62 0-.88 0-1.04-.38-.63-1.05 1.85-3.01 2.68-6.48 4.42-9.56 1.47-2.6 1.09-5.28-.21-8.04-1.06-2.25-2.04-4.57-2.72-7.01-.55-1.96-1.69-3.75-2.33-5.69-.5-1.49-1.17-2.91-1.66-4.41-.46-1.4-1.25-2.71-1.76-4.13-.17-.49-.06-1.1-.57-1.48-.57.3-.33.85-.33 1.29-.02 8.58-.03 17.15.01 25.73 0 1.08-.23 1.42-1.36 1.36-2.16-.11-4.33-.05-6.49 0-.85.02-1.22-.2499-1.18-1.1399.06-1.16.01-2.3301.01-3.4701-.47-.26-.67.12-.84.35-1.4 1.97-3.28 3.44-5.52 4.13-6.94 2.16-13.34 1.39-18.79-3.92-1.65-1.61-2.95-3.41-3.89-5.49-.22-.49-.63-1.03-1.11-1.08-.4-.04-.58.62-.78 1.02-.96 1.87-2.05 3.65-3.5 5.19-2.86 3.04-6.44 4.59-10.48 5.47-3.61.79-6.93.04-10.11-1.4-1.55-.7-2.95-1.88-4.13-3.2-.22-.25-.41-.74-.84-.55-.41.19-.26.67-.23 1.02.37 4.86.09 9.72.26 14.58.04 1.21-.27 1.56-1.48 1.5-2.08-.11-4.16-.08-6.24 0-1.01.04-1.32-.2099-1.32-1.2799.04-10.32.03-20.6501.03-30.9801 0-5.25 0-10.49 0-15.74 0-.61-.11-1.21-.16-1.82 2.71-.17 5.42-.29 8.13.07.21 1.32.09 2.65.09 3.97 0 .23-.11.52.2.65.25.1.44.02.65-.19.85-.89 1.92-1.55 2.78-2.4 1.44-1.41 3.15-2.07 5.01-2.54 1.26-.32 2.54-.55 3.82-.82zm-12 19.5201c-.33 6.42 5.48 11.0999 10.22 11.5499 6.85.65 12.16-5.0699 12.31-11.2399.15-6.34-5.2-11.3901-12.02-11.4201-4.85-.02-11.05 5.51-10.52 11.12zm50.78-11.0901c-3.94.08-6.79.43-9.12 2.99-3.98 4.37-4.53 9.39-1.58 14.07 1.27 2.01 2.8 3.88 5.29 4.64 2.26.69 4.58 1.06 6.82.5 5.61-1.38 8.06-5.97 8.52-11.07.36-3.99-1.94-6.83-4.74-9.2-1.66-1.41-3.78-2.05-5.18-1.92z" fill="#fea717"/><g fill="#fe0004"><path d="m126.98 64.2701c0-4.16.03-8.3301-.02-12.4901-.01-.92.27-1.54.92-2.15 1.47-1.4 2.98-2.75 4.42-4.17 4.79-4.69 9.46-9.5 14.25-14.19 1.3-1.27 2.67-2.4599 3.94-3.7599.76-.78 1.41-.79 2.2 0 6.34 6.28 12.69 12.5399 19.05 18.7999 2.31 2.27 4.67 4.5 7 6.76 1.34 1.3 1.32 1.42 0 2.74-6.28 6.26-12.55 12.5201-18.84 18.7701-1.05 1.05-2.15 2.0499-3.26 3.0299-.75.66-1.62 1.06-2.66 1.06-8.54 0-17.07-.01-25.61 0-1.01 0-1.4-.42-1.39-1.42.02-4.33.01-8.6599.01-12.9899zm16.69-8.4401c-.5-.15-.67-.5399-.82-.9099-1.32-3.42-7.04-4.0001-9.02-1.4801-.13.17-.28.4801-.57.3501-.24-.1-.3-.3601-.28-.6401.06-.97-.61-1.19-1.35-1.18-.84 0-.64.73-.64 1.22-.02 4.87 0 9.73-.03 14.6 0 .7.18.98.89.89.62-.08 1.41.2201 1.38-.8999-.03-1.16 0-2.3301.06-3.4901.03-.53-.67-1.15-.16-1.48.61-.4.88.51 1.34.78 2.85 1.67 6.42.91 8.48-1.87.17-.23.27-.6.58-.48.2.08.35.4301.42.6801.06.22-.05.4799-.06.7299-.02.58 0 1.12.83 1.04.6-.06 1.3.28 1.28-.89-.07-4.74-.05-9.48 0-14.22 0-.87-.37-.89-1.03-.9-.7-.01-1.01.08-1.02.92-.03 2.41.3 4.84-.28 7.25zm15.31 2.7101c0-1.54-.05-3.08.02-4.62.05-1.01-.33-1.2601-1.3-1.2901-1.04-.03-1.01.51-1 1.21.02 1.75-.01 3.5.02 5.24.04 2.46-2.61 4.1-4.46 3.33-1.05-.44-2.01-1.87-2.02-3.33-.02-1.83-.02-3.66.01-5.49.02-1.06-.7-.89-1.36-.94-.68-.05-.94.13-.92.87.05 2.2-.02 4.41.03 6.61.05 2.67 2.34 4.9101 4.92 4.5101.9-.14 1.83-.3801 2.64-.7901.67-.34 1.08-.32 1.52.25.37.47.94.44 1.35.2.34-.21.67-.49.61-1.15-.15-1.53-.05-3.0699-.05-4.6099zm5.17-6.62c-.96-.24-1.83.36-2.63.87-1.78 1.13-1.66 3.7499.08 4.9499 1.02.7 2.16 1.05 3.27 1.51 1.33.54 1.96 1.61 1.43 2.43-.67 1.04-2.6 1.65-3.51.13-.22-.37-.44-.71-.78-.93-.6-.38-1.4-.4-1.88-.06s.07.94.26 1.43c.45 1.17 1.5 1.63 2.47 2.22 1.08.66 4.79-.24 5.39-1.57 1.28-2.84.37-4.7999-2.7-5.6999-.83-.24-1.65-.47-2.28-1.03-.38-.34-1.03-.7401-.68-1.4001.73-1.35 2.44-1.53 3.16-.44.13.2.24.43.4.61.48.53 1.91.66 2.22.13.31-.54-.08-1.11-.41-1.54-.91-1.21-2.2-1.63-3.78-1.6z"/><path d="m133.23 58c0-2.31 1.7-4.04 3.98-4.06 2.54-.02 4.17 1.73 4.29 4.31.12 2.53-2.23 4.2-4.07 4.19-2.38-.01-4.21-1.94-4.2-4.43z"/></g></svg>