<svg fill="none" height="13" viewBox="0 0 12 13" width="12" xmlns="http://www.w3.org/2000/svg" xmlns:xlink="http://www.w3.org/1999/xlink"><filter id="a" color-interpolation-filters="sRGB" filterUnits="userSpaceOnUse" height="13" width="12" x="0" y="0"><feFlood flood-opacity="0" result="BackgroundImageFix"/><feColorMatrix in="SourceAlpha" result="hardAlpha" type="matrix" values="0 0 0 0 0 0 0 0 0 0 0 0 0 0 0 0 0 0 127 0"/><feOffset dy="1"/><feComposite in2="hardAlpha" operator="out"/><feColorMatrix type="matrix" values="0 0 0 0 0.772549 0 0 0 0 0.415686 0 0 0 0 0.0941176 0 0 0 1 0"/><feBlend in2="BackgroundImageFix" mode="normal" result="effect1_dropShadow_375_12912"/><feBlend in="SourceGraphic" in2="effect1_dropShadow_375_12912" mode="normal" result="shape"/></filter><g filter="url(#a)"><path clip-rule="evenodd" d="m5.54545 1c-.50207 0-.90909.40701-.90909.90909v2.72727h-2.72727c-.50208 0-.90909.40702-.90909.90909v.9091c0 .50207.40701.90909.90909.90909h2.72727v2.72726c0 .5021.40702.9091.90909.9091h.9091c.50207 0 .90909-.407.90909-.9091v-2.72726h2.72726c.5021 0 .9091-.40702.9091-.90909v-.9091c0-.50207-.407-.90909-.9091-.90909h-2.72726v-2.72727c0-.50208-.40702-.90909-.90909-.90909z" fill="#fff" fill-rule="evenodd"/><path d="m5.54545.5c-.77821 0-1.40909.63087-1.40909 1.40909v2.22727h-2.22727c-.77822 0-1.40909.63087-1.40909 1.40909v.9091c0 .77821.63087 1.40909 1.40909 1.40909h2.22727v2.22726c0 .7782.63087 1.4091 1.40909 1.4091h.9091c.77822 0 1.40909-.6309 1.40909-1.4091v-2.22726h2.22726c.7782 0 1.4091-.63087 1.4091-1.40909v-.9091c0-.77822-.6309-1.40909-1.4091-1.40909h-2.22726v-2.22727c0-.77822-.63088-1.40909-1.40909-1.40909z" stroke="#c56a18" stroke-linejoin="round"/></g></svg>