<svg width="17" height="16" viewBox="0 0 17 16" fill="none" xmlns="http://www.w3.org/2000/svg">
<g id="Open in New Icon">
<path id="Vector" d="M3.63167 13.9856C3.23477 13.9856 2.89666 13.8459 2.61732 13.5666C2.33799 13.2872 2.19832 12.9491 2.19832 12.5522V3.44788C2.19832 3.05098 2.33799 2.71286 2.61732 2.43353C2.89666 2.15419 3.23477 2.01453 3.63167 2.01453H8.13384V3.44788H3.63167V12.5522H12.736V8.05004H14.1694V12.5522C14.1694 12.9491 14.0297 13.2872 13.7504 13.5666C13.471 13.8459 13.1329 13.9856 12.736 13.9856H3.63167ZM6.79906 10.3834L5.80051 9.38483L11.7375 3.44788H9.38384V2.01453H14.1694V6.80004H12.736V4.44643L6.79906 10.3834Z" fill="white"/>
</g>
</svg>
