<svg fill="none" height="32" viewBox="0 0 32 32" width="32" xmlns="http://www.w3.org/2000/svg"><rect fill="#6bade4" height="32" rx="16" width="32"/><g fill="#fff"><path clip-rule="evenodd" d="m23.1923 11v.87c-.4753.0474-.9599.1494-1.3848.354-.3496.1683-.6868.4193-.9344.7914-.2512.3777-.3731.825-.3731 1.3179 0 .493.1219.9402.3731 1.3179.2476.3722.5848.6231.9344.7915.4249.2045.9095.3065 1.3848.3539v1.5791c-.553-.1639-1.0436-.4643-1.3135-.7427l-1.1422 1.1785c.538.5551 1.4511 1.0804 2.4557 1.2754v.9131h1.6154v-.87c.4753-.0474.96-.1494 1.3848-.354.3496-.1683.6868-.4193.9344-.7914.2512-.3777.3731-.825.3731-1.3179 0-.4895-.1185-.9354-.3663-1.3134-.2448-.3733-.5798-.6256-.9293-.7951-.4266-.2067-.9151-.3088-1.3967-.3558v-1.5781c.553.1639 1.0436.4643 1.3135.7427l1.1422-1.1785c-.538-.5551-1.4511-1.0804-2.4557-1.2754v-.9131zm-.7017 2.7343c.1825-.0878.4197-.1492.7017-.1871v1.5722c-.282-.0378-.5192-.0992-.7017-.1871-.1552-.0747-.2387-.1536-.2856-.2241-.0432-.0651-.0896-.1734-.0896-.3749s.0464-.3098.0896-.3748c.0469-.0705.1304-.1494.2856-.2242zm2.3171 4.7185v-1.5737c.2884.0377.5277.0994.7098.1877.152.0736.2327.1511.2782.2205.0425.0647.0889.1744.0889.3794 0 .2015-.0464.3098-.0896.3748-.0469.0705-.1304.1494-.2856.2242-.1825.0878-.4197.1492-.7017.1871z" fill-rule="evenodd"/><path d="m5.26278 20h-1.97727l3.01279-8.7273h2.37784l3.00856 8.7273h-1.97731l-2.18608-6.733h-.06819zm-.12358-3.4304h4.67046v1.4403h-4.67046z"/><path d="m12.7351 20v-8.7273h3.4432c.6591 0 1.2216.1179 1.6875.3537.4687.233.8253.5639 1.0696.9929.2471.4261.3707.9276.3707 1.5043 0 .5795-.125 1.0781-.375 1.4957-.25.4148-.6122.733-1.0866.9545-.4716.2216-1.0427.3324-1.7131.3324h-2.3054v-1.4829h2.0071c.3523 0 .6449-.0483.8778-.1449.233-.0966.4063-.2415.5199-.4347.1165-.1932.1747-.4332.1747-.7201 0-.2898-.0582-.5341-.1747-.733-.1136-.1989-.2883-.3494-.5241-.4517-.233-.1051-.527-.1577-.8821-.1577h-1.2443v7.2188zm4.7131-3.9716 2.169 3.9716h-2.0369l-2.1222-3.9716z"/></g></svg>