<svg fill="none" height="25" viewBox="0 0 24 25" width="24" xmlns="http://www.w3.org/2000/svg"><rect fill="#ffbd00" height="24" rx="12" width="24" y=".5"/><path clip-rule="evenodd" d="m14.6381 7.25v.91352c-.4951.04977-.9999.1569-1.4425.37169-.3641.17674-.7154.44023-.9732.83101-.2617.39657-.3887.86618-.3887 1.38378s.127.9872.3887 1.3838c.2578.3908.6091.6543.9732.831.4426.2148.9474.3219 1.4425.3717v1.658c-.5761-.1722-1.0871-.4875-1.3682-.7799l-1.1897 1.2375c.5604.5828 1.5115 1.1344 2.5579 1.3391v.9588h1.6826v-.9135c.495-.0498.9999-.1569 1.4424-.3717.3642-.1767.7154-.4402.9733-.831.2616-.3966.3886-.8662.3886-1.3838 0-.514-.1234-.9821-.3816-1.379-.255-.3919-.6038-.657-.9679-.8348-.4443-.2171-.9532-.3244-1.4548-.3737v-1.657c.576.1722 1.087.4875 1.3681.7799l1.1898-1.23745c-.5604-.58285-1.5116-1.13449-2.5579-1.33919v-.95876zm-.7309 2.871c.19-.0922.4371-.15669.7309-.19642v1.65082c-.2938-.0397-.5409-.1042-.7309-.1964-.1617-.0785-.2486-.1614-.2975-.2354-.045-.0683-.0934-.182-.0934-.3936s.0484-.3253.0934-.3936c.0489-.074.1358-.1569.2975-.2354zm2.4135 4.9544v-1.6523c.3004.0395.5496.1043.7394.197.1582.0773.2423.1587.2897.2315.0442.068.0926.1832.0926.3984 0 .2116-.0483.3253-.0934.3936-.0488.074-.1357.1569-.2974.2354-.1901.0922-.4372.1567-.7309.1964zm-8.39189-6.7754h-3.05381v8.4h1.78093v-3.0346h1.16992l1.45231 3.0346h1.90654v-.0865l-1.69484-3.4127c.22018-.1082.41912-.236.59684-.3835.2586-.2115.4589-.4788.6009-.8019s.2131-.7154.2131-1.1769c0-.5539-.1202-1.01927-.3606-1.39619-.2404-.37693-.58453-.66154-1.03249-.85385-.44433-.19231-.97059-.28846-1.5788-.28846zm-1.27288 3.9058h1.27834c.26586 0 .4862-.05.66102-.15.17481-.1.30593-.2404.39333-.4212.09105-.1846.13658-.4.13658-.6461 0-.2539-.04553-.4731-.13658-.6577s-.2258-.325-.40426-.42118c-.17481-.1-.39333-.15-.65555-.15h-1.27288z" fill="#0b4d22" fill-rule="evenodd"/></svg>