<svg fill="none" height="25" viewBox="0 0 24 25" width="24" xmlns="http://www.w3.org/2000/svg"><rect fill="#26ff70" height="24" rx="12" width="24" y=".5"/><path clip-rule="evenodd" d="m10.9167 6.30503v-1.30503h2.5v1.36966c1.5546.29242 2.9679 1.08048 3.8005 1.91312l-1.7677 1.76772c-.4177-.41761-1.177-.86813-2.0328-1.11403v2.36713c.7453.0704 1.5014.2237 2.1615.5338.541.2541 1.0593.6327 1.4382 1.1926.3836.567.5669 1.2357.5669 1.97 0 .7394-.1886 1.4103-.5774 1.9768-.3831.5583-.905.9347-1.446 1.1872-.6576.3068-1.4076.4599-2.1432.531v1.305h-2.5v-1.3697c-1.55471-.2924-2.96794-1.0804-3.80058-1.9131l1.76776-1.7678c.41767.4177 1.17692.8682 2.03282 1.1141v-2.3685c-.7356-.0711-1.48568-.2242-2.14322-.531-.54103-.2525-1.06293-.6289-1.44605-1.1872-.3888-.5665-.57743-1.2374-.57743-1.9768 0-.73943.18863-1.41029.57743-1.97683.38312-.55826.90502-.93467 1.44605-1.18715.65754-.30685 1.40762-.45989 2.14322-.53099zm0 2.5158c-.4365.05676-.8036.14885-1.08601.28065-.24023.1121-.36936.23048-.44198.33629-.06692.09752-.13871.26-.13871.56223 0 .3022.07179.4647.13871.5622.07262.1058.20175.2242.44198.3363.28241.1318.64951.2239 1.08601.2807zm2.5 4.99787v2.3605c.4364-.0568.8035-.1489 1.0859-.2807.2403-.1121.3694-.2305.442-.3363.0669-.0975.1387-.26.1387-.5622 0-.3074-.0718-.472-.1375-.5691-.0705-.1041-.1954-.2203-.4306-.3308-.2819-.1324-.6522-.2249-1.0985-.2814z" fill="#0a0a1a" fill-rule="evenodd"/></svg>