<svg fill="none" height="25" viewBox="0 0 24 25" width="24" xmlns="http://www.w3.org/2000/svg"><rect fill="#074a80" height="24" rx="12" width="24" y=".5"/><path clip-rule="evenodd" d="m9.13371 8.51561c.85113-1.27669 2.27599-2.01561 4.32219-2.01561 1.7423 0 3.0589.85559 3.5722 1.36895l-1.4974 1.4974c-.1925-.19253-.9936-.7487-2.0748-.7487-1.4714 0-2.1649.48846-2.5509 1.05882h2.9038v2.11763h-3.5058c-.016.226-.0236.4617-.0236.7059s.0076.4799.0236.7059h3.5058v2.1176h-2.9038c.386.5704 1.0795 1.0589 2.5509 1.0589 1.0812 0 1.8823-.5562 2.0748-.7487l1.4974 1.4974c-.5133.5133-1.8299 1.3689-3.5722 1.3689-2.0462 0-3.47106-.7389-4.32219-2.0156-.24233-.3635-.42724-.7552-.56723-1.1609h-1.81648v-2.1176h1.43094c-.0136-.2397-.01918-.4759-.01918-.7059s.00558-.4662.01918-.7059h-1.43094v-2.11763h1.81648c.13999-.40567.3249-.79736.56723-1.16086z" fill="#fff" fill-rule="evenodd"/></svg>