<svg fill="none" height="25" viewBox="0 0 24 25" width="24" xmlns="http://www.w3.org/2000/svg"><rect fill="#fff" height="24" rx="12" width="24" y=".5"/><g fill="#4d0b0f"><path d="m6.51511 8v9h-2.01511v-9zm5.37779 0-3.52339 4.5-2.0522 2.2253-.3647-1.873 1.35371-1.9409 2.11401-2.9114zm-2.33658 9-2.48489-4.1106 1.53297-1.193 3.3379 5.3036z"/><path d="m12.6213 8h3.4554c.6882 0 1.2836.10302 1.7864.30907.5069.20604.8963.51098 1.1683.91483.2719.40385.4079.9025.4079 1.4959 0 .4945-.0803.9148-.241 1.261-.1608.3461-.3874.6325-.68.8592-.2885.2266-.6264.41-1.0137.5501l-.6552.3585h-2.9424l-.0123-1.5638h2.1882c.3008 0 .5501-.0536.7479-.1608.1978-.1071.3462-.2575.4451-.4512.103-.1978.1545-.4286.1545-.6923 0-.272-.0515-.5069-.1545-.7047-.1031-.19778-.2555-.34819-.4575-.45121-.1978-.10714-.445-.16072-.7417-.16072h-1.4403v7.43613h-2.0151zm4.9822 9-2.0213-3.9993 2.1264-.0062 2.0522 3.9128v.0927z"/></g></svg>