<svg fill="none" height="25" viewBox="0 0 24 25" width="24" xmlns="http://www.w3.org/2000/svg"><rect fill="#fff" height="24" rx="12" width="24" y=".5"/><path clip-rule="evenodd" d="m8.16667 5h2.50003c1.1589 0 2.7743.21129 4.143 1.05048.7335.44981 1.369 1.06544 1.8188 1.86619h1.9548v2.50003h-1.2615c.0076.1359.0115.2748.0115.4166s-.0039.2807-.0115.4167h1.2615v2.5h-1.9548c-.4498.8008-1.0853 1.4164-1.8188 1.8662-1.3687.8392-2.9841 1.0505-4.143 1.0505h-1.25003v3.3333h-2.5v-6.25h-1.66667v-2.5h1.66667v-.8333h-1.66667v-2.50003h1.66667v-2.91667zm1.25 5.4167v.8333h5.39913c.0115-.1321.0175-.2708.0175-.4167 0-.1458-.006-.2846-.0175-.4166zm3.56223-2.50003h-3.56223v-.41667h1.25003c.7384 0 1.5843.11462 2.3122.41667zm0 5.83333h-3.56223v.4167h1.25003c.7384 0 1.5843-.1147 2.3122-.4167z" fill="#ff2633" fill-rule="evenodd"/></svg>