<svg fill="none" height="25" viewBox="0 0 24 25" width="24" xmlns="http://www.w3.org/2000/svg"><rect fill="#cfeaff" height="24" rx="12" width="24" y=".5"/><path d="m13.193 14.7871h-7.943v-2.6065h7.84c.6112 0 1.0954-.0927 1.4526-.2781.3571-.1923.6147-.4533.7726-.783.158-.3365.237-.7177.237-1.14354 0-.42582-.0859-.81731-.2576-1.17445s-.4326-.64217-.7829-.85508c-.3434-.21978-.7796-.32967-1.3084-.32967h-2.5446v12.38324h-3.34826v-15h5.88256c1.1882 0 2.2115.21635 3.0701.64904.8585.42582 1.5178 1.00961 1.978 1.75137.467.74176.7005 1.59341.7005 2.55495 0 1.00964-.2404 1.87504-.7211 2.59614-.4739.7212-1.1401 1.2741-1.9987 1.6587-.8585.3846-1.8681.5769-3.0288.5769zm.7211.7005v2.5962h-8.6641v-2.5962z" fill="#ff2633"/></svg>