<svg fill="none" height="25" viewBox="0 0 24 25" width="24" xmlns="http://www.w3.org/2000/svg"><rect fill="#8b75ff" height="24" rx="12" width="24" y=".5"/><path clip-rule="evenodd" d="m13.9428 8.64775h-6.38497v2.18865h6.38497c-.0603.1543-.1316.2839-.2073.3937-.2157.3132-.5196.5413-.8853.7075-.7675.3489-1.6475.3579-2.0094.3579h-1.82326-2.64254l7.7045 7.7045 1.5476-1.5476-3.9977-3.9977c.5793-.0489 1.366-.179 2.1265-.5246.6374-.2898 1.291-.7456 1.782-1.4584.3208-.4656.5508-1.0101.6732-1.6353h1.5604v-2.18865h-1.5604c-.1073-.54798-.2972-1.03389-.5585-1.4591h2.1184l.0005-2.18864h-6.8734c-.0143-.00001-.0277-.00001-.0402-.00001-.0059.00001-.0116.00001-.0171.00001h-3.2824l-.00055 2.18864h3.28295c.3619 0 1.2419.00901 2.0094.35788.3657.16623.6696.39436.8853.70751.0757.10984.147.23944.2073.39371z" fill="#fff" fill-rule="evenodd"/></svg>