<svg fill="none" height="25" viewBox="0 0 24 25" width="24" xmlns="http://www.w3.org/2000/svg"><rect fill="#0a0a1a" height="24" rx="12" width="24" y=".5"/><g fill="#ffbd00"><path d="m4.51172 7.88281h3.45536c.68818 0 1.28365.10302 1.7864.30907.50682.20604.89632.51099 1.16822.91483.272.40385.408.90249.408 1.49589 0 .4945-.0803.9148-.2411 1.261-.1607.3461-.3873.6325-.6799.8592-.2885.2266-.62638.41-1.01374.5501l-.65522.3585h-2.94231l-.01236-1.5638h2.18819c.30082 0 .55013-.0536.74794-.1607.1978-.1072.34615-.2576.44505-.4513.10302-.1978.15453-.4286.15453-.6923 0-.272-.05151-.5069-.15453-.7047-.10302-.19777-.25549-.34818-.45742-.4512-.1978-.10714-.44505-.16071-.74175-.16071h-1.44025v7.43611h-2.01511zm4.98214 8.99999-2.02129-3.9993 2.12637-.0062 2.05216 3.9128v.0927z"/><path d="m16.2924 13.7551h-2.2624v-1.5639h2.2624c.3338 0 .6016-.0556.8036-.1669.206-.1113.3564-.2637.4512-.4574.0989-.1978.1483-.4204.1483-.6676 0-.2555-.0494-.4924-.1483-.7109-.0948-.22248-.2452-.40174-.4512-.53773-.202-.13599-.4698-.20398-.8036-.20398h-1.533v7.43611h-2.0151v-8.99999h3.5481c.717 0 1.331.12981 1.842.38943.5151.25961.9087.61607 1.1807 1.06936.2761.44918.4141.9643.4141 1.5453 0 .5811-.138 1.0859-.4141 1.5145-.272.4285-.6656.7623-1.1807 1.0013-.511.2349-1.125.3524-1.842.3524z"/></g></svg>