<svg fill="none" height="32" viewBox="0 0 32 32" width="32" xmlns="http://www.w3.org/2000/svg"><rect fill="#f11f5e" height="32" rx="16" width="32"/><path d="m25.7692 16c0 1.9896-.4858 3.8281-1.4576 5.5156s-2.2906 3.0235-3.9564 4.0078c-1.6659.9844-3.4809 1.4766-5.4449 1.4766h-2.468c-.144 0-.2622-.0469-.3548-.1406-.0925-.0938-.1388-.2136-.1388-.3594v-9.5469l-3.31629 1.0313c-.03085.0104-.07712.0156-.13882.0156-.10283 0-.20052-.0312-.29307-.0937-.13368-.1042-.20052-.2396-.20052-.4063v-2c0-.2396.11826-.401.35477-.4844l3.59393-1.1094v-1.4531l-3.31629 1.0313c-.03085.0104-.07712.0156-.13882.0156-.10283 0-.20052-.0312-.29307-.0937-.13368-.1042-.20052-.2396-.20052-.4063v-2c0-.2396.11826-.401.35477-.4844l3.59393-1.10935v-3.90625c0-.14583.0463-.26562.1388-.35938.0926-.09375.2108-.14062.3548-.14062h2.468c.1439 0 .2622.04687.3547.14062.0926.09376.1388.21355.1388.35938v2.82813l5.7843-1.8125c.1542-.05209.2982-.02605.4319.07812s.2005.23958.2005.40625v2c0 .23958-.1182.40104-.3548.48438l-6.0619 1.89062v1.4531l5.7843-1.8125c.1542-.0521.2982-.026.4319.0782.1337.1041.2005.2395.2005.4062v2c0 .2396-.1182.401-.3548.4844l-6.0619 1.8906v7.6094c1.9333-.1354 3.5683-.9219 4.9051-2.3594s2.0052-3.1458 2.0052-5.125c0-.1458.0463-.2656.1388-.3594.0926-.0937.2108-.1406.3548-.1406h2.4679c.144 0 .2623.0469.3548.1406.0926.0938.1388.2136.1388.3594z" fill="#fff"/></svg>