<svg fill="none" height="18" viewBox="0 0 18 18" width="18" xmlns="http://www.w3.org/2000/svg"><path clip-rule="evenodd" d="m16.1526 17.4408h-14.41576c-.957893 0-1.73684-.76-1.73684-1.6946v-12.01106c0-.9346.778947-1.6946 1.73684-1.6946h4.05263v6.52162c0 .9346.77895 1.69464 1.73685 1.69464h2.84208c.9579 0 1.7369-.76004 1.7369-1.69464v-6.52162h4.0526c.9579 0 1.7368.76 1.7368 1.6946v12.01626c0 .9345-.7789 1.6945-1.7368 1.6945zm-6.26313-8.21621h-1.89473c-.63685 0-1.1579-.50837-1.1579-1.12973v-6.46513c0-.62135.52105-1.12973 1.1579-1.12973h1.89473c.63683 0 1.15793.50838 1.15793 1.12973v6.47027c0 .62135-.5211 1.12973-1.15793 1.12973zm-.94736-3.33783c-.47895 0-.87369.38-.87369.85243s.38948.85243.87369.85243.87368-.38.87368-.85243-.38947-.85243-.87368-.85243z" fill="#fff" fill-rule="evenodd"/></svg>