<svg fill="none" height="20" viewBox="0 0 20 20" width="20" xmlns="http://www.w3.org/2000/svg"><path d="m4.98046 15.0473c-.47153 0-.81377.3417-.81377.8097s.34224.8096.81377.8096h10.02394c.4791 0 .829-.3416.829-.8096s-.3499-.8097-.829-.8097h-4.8295c.175-.0371.3271-.1262.4564-.2525l4.8446-4.6797c.1825-.17826.2738-.38624.2738-.60166 0-.46796-.3499-.80965-.8138-.80965-.2434 0-.4563.09656-.6084.24512l-1.5591 1.50049-2.0002 2.1393.076-1.5599v-6.85612c0-.50511-.3422-.83937-.8442-.83937-.50194 0-.85178.33426-.85178.83937v6.85612l.08366 1.5673-2.00022-2.1467-1.5515-1.50049c-.15971-.14856-.37266-.24512-.60843-.24512-.47154 0-.81378.34169-.81378.80965 0 .21542.09127.4234.2738.60166l4.83702 4.6797c.12929.1263.2814.2154.44872.2525z" fill="#fff"/></svg>