<?xml version="1.0" encoding="UTF-8"?>
<svg width="506px" height="486px" viewBox="0 0 506 486" version="1.1" xmlns="http://www.w3.org/2000/svg" xmlns:xlink="http://www.w3.org/1999/xlink">
    <!-- Generator: Sketch 51.2 (57519) - http://www.bohemiancoding.com/sketch -->
    <title>bomb (1)</title>
    <desc>Created with Sketch.</desc>
    <defs></defs>
    <g id="Page-1" stroke="none" stroke-width="1" fill="none" fill-rule="evenodd">
        <g id="bomb-(1)" fill-rule="nonzero">
            <path d="M455.263,129.222 C469.073,135.523 485.375,132.121 495.511,120.822 C495.511,120.822 502.679,131.105 482.425,151.36 C462.171,171.615 419.813,179.858 381.83,146.943 C343.847,114.028 374.948,40.273 407.864,42.807 C426.491,44.671 444.133,34.086 451.254,16.773 C455.844,33.198 451.613,50.829 440.068,63.382 C490.713,63.382 488.179,0.076 488.179,0.076 C488.179,0.076 543.883,70.975 455.263,129.222" id="Shape" fill="#DDB43F"></path>
            <circle id="Oval" fill="#44474E" cx="190.915" cy="294.467" r="190.915"></circle>
            <g id="Group" transform="translate(29.000000, 127.000000)" fill="#5C5F68">
                <path d="M161.915,332.349 C157.122,332.349 153.237,328.464 153.237,323.671 C153.237,318.878 157.122,314.993 161.915,314.993 C227.53,314.747 285.183,271.408 303.652,208.445 C305.03,203.899 309.807,201.305 314.37,202.626 C318.933,203.947 321.586,208.691 320.323,213.27 C299.676,283.634 235.246,332.068 161.915,332.349 Z" id="Shape"></path>
                <path d="M317.893,184.823 L317.407,184.823 C315.107,184.698 312.952,183.663 311.415,181.948 C309.878,180.232 309.087,177.976 309.215,175.677 C309.365,172.958 309.441,170.221 309.441,167.468 C309.441,162.675 313.326,158.79 318.119,158.79 C322.912,158.79 326.797,162.675 326.797,167.468 C326.797,170.54 326.713,173.592 326.545,176.623 C326.292,181.218 322.495,184.816 317.893,184.823 Z" id="Shape"></path>
                <ellipse id="Oval" transform="translate(108.881602, 111.835119) rotate(-139.655981) translate(-108.881602, -111.835119) " cx="108.881602" cy="111.835119" rx="63.9334165" ry="92.3374902"></ellipse>
            </g>
            <ellipse id="Oval" fill="#8B8E98" transform="translate(96.380714, 381.931294) rotate(-120.000728) translate(-96.380714, -381.931294) " cx="96.380714" cy="381.931294" rx="26.7884106" ry="17.3556182"></ellipse>
            <path d="M295.051,217.841 C290.921,217.836 287.366,214.921 286.553,210.872 C285.74,206.823 287.893,202.761 291.701,201.162 C324.108,188.661 352.859,168.228 375.322,141.735 C378.349,138.101 383.729,137.561 387.418,140.52 C391.108,143.479 391.749,148.847 388.859,152.591 C364.587,181.34 333.482,203.532 298.4,217.129 C297.343,217.588 296.204,217.83 295.051,217.841 Z" id="Shape" fill="#805333"></path>
            <path d="M307.2,233.722 C305.266,233.721 303.387,233.073 301.863,231.882 C288.078,222.27 279.235,207.067 277.695,190.332 C277.695,185.539 281.58,181.654 286.373,181.654 C291.112,181.653 294.975,185.455 295.051,190.193 C296.634,201.596 303,211.784 312.554,218.205 C315.474,220.487 316.623,224.371 315.415,227.874 C314.206,231.378 310.906,233.727 307.2,233.722 Z" id="Shape" fill="#2C2F38"></path>
        </g>
    </g>
</svg>