<svg height="25" viewBox="0 0 32 25" width="32" xmlns="http://www.w3.org/2000/svg"><g fill="none"><path d="m3.9663863 21.6180992-3.9476998-14.7771988c-.1139-.4263.3143135-.7929001.7066-.6052008l9.7817135 4.6800004c.2603865.1246004.5701866.0044003.683486-.2650995l4.3421001-10.336401c.1759996-.4189.7587996-.4189.9348001 0l4.3421001 10.336401c.1133004.2694997.4230996.3896999.6835137.2650995l9.7816849-4.6800003c.3923149-.1876993.8204994.1789007.7066002.6052008l-3.9476986 14.7771988c-.0603008.2255001-.2612.382-.4905872.382h-23.0859995c-.2294135 0-.4303136-.1565-.4906135-.3820001z" fill="#f2c446"/><path d="m16 0v22h-11.54c-.23 0-.4299998-.1599998-.49-.3799992l-3.95-14.7800006c-.12-.4300003.31-.79.71-.6000004l9.7800007 4.6800003c.2600002.1199999.5699997 0 .6799994-.2700005l4.3400002-10.3400002c.0899996-.2099995.2800001-.3099994.4699997-.3099994z" fill="#ffd752"/><g fill="#e49832"><path d="m21 17c0 .5499992-.4500008 1-1 1s-1-.4500008-1-1c0-.1800003.0499992-.3500004.1399994-.5.1700001-.2999992.4899998-.5.8600006-.5s.6900005.2000008.8600006.5c.0900002.1499996.1399994.3199997.1399994.5z"/><path d="m25 17c0 .5499992-.4500008 1-1 1s-1-.4500008-1-1c0-.1800003.0499992-.3500004.1399994-.5.1700001-.2999992.4899998-.5.8600006-.5s.6900005.2000008.8600006.5c.0900002.1499996.1399994.3199997.1399994.5z"/><path d="m13 17c0 .5499992-.4499998 1-1 1s-1-.4500008-1-1c0-.1800003.0500002-.3500004.1400003-.5.1700001-.2999992.4899998-.5.8599997-.5s.6899996.2000008.8599997.5c.0900001.1499996.1400003.3199997.1400003.5z"/><path d="m9 17c0 .5499992-.4499998 1-1 1s-1-.4500008-1-1c0-.1800003.0500002-.3500004.1399999-.5.17-.2999992.4900002-.5.8600001-.5s.6899996.2000008.8599997.5c.0900001.1499996.1400003.3199997.1400003.5z"/><circle cx="16" cy="17" r="1"/></g><path d="m31 23c0 .5499992-.2199993 1.0499992-.5900002 1.4099998-.3600006.3700009-.8600006.5900002-1.4099998.5900002h-26c-1.1 0-2-.8999996-2-2 0-.1700001.02-.3400002.0700001-.5.0799999-.3500004.2699999-.6599998.5199999-.9099998.36-.3700009.86-.5900002 1.41-.5900002h26c.9300003 0 1.7099991.6399994 1.9300003 1.5.0499992.1599998.0699997.3299999.0699997.5z" fill="#e99630"/><path d="m30.9300003 22.5c-.0799999.3500004-.2700005.6599998-.5200005.9099998-.3600006.3700009-.8600006.5900002-1.4099998.5900002h-26c-.9299999 0-1.71-.6399994-1.9299999-1.5.0799999-.3500004.2699999-.6599998.5199999-.9099998.36-.3700009.86-.5900002 1.41-.5900002h26c.9300003 0 1.7099991.6399994 1.9300003 1.5z" fill="#ffad40"/><path d="m16 16v2c-.5500002 0-1-.4500008-1-1s.4499998-1 1-1z" fill="#eda442"/></g></svg>