<svg fill="none" height="24" viewBox="0 0 24 24" width="24" xmlns="http://www.w3.org/2000/svg"><path d="m22.5001 12.4805c0-.7379-.0594-1.4757-.1781-2.1985h-10.078v4.1711h5.7737c-.2375 1.3402-1.0093 2.5448-2.1373 3.2977v2.7105h3.4434c2.0186-1.8823 3.1763-4.668 3.1763-7.9808z" fill="#4285f4"/><path d="m12.2444 23.0815c2.8795 0 5.3136-.9637 7.0799-2.6201l-3.4435-2.7105c-.9647.6626-2.1967 1.039-3.6364 1.039-2.79034 0-5.15028-1.9124-5.99629-4.4723h-3.54733v2.8009c1.81077 3.6591 5.50652 5.963 9.54362 5.963z" fill="#34a853"/><path d="m6.24833 14.3178c-.44534-1.3402-.44534-2.8008 0-4.1561v-2.78572h-3.54789c-1.52901 3.05682-1.52901 6.67082 0 9.72762z" fill="#fbbc04"/><path d="m12.2444 5.68921c1.5288-.03012 2.9982.55715 4.0965 1.62629l3.0576-3.10199c-1.9444-1.8371-4.4973-2.846-7.1541-2.81588-4.0371 0-7.73285 2.31896-9.54362 5.9781l3.54733 2.80087c.84601-2.575 3.20595-4.48739 5.99629-4.48739z" fill="#ea4335"/></svg>