<svg height="24" viewBox="0 0 42 24" width="42" xmlns="http://www.w3.org/2000/svg"><g fill="none"><path d="m42 20v-16c-2.209 0-4-1.791-4-4h-34c0 2.209-1.791 4-4 4v16c2.209 0 4 1.791 4 4h34c0-2.209 1.791-4 4-4z" fill="#ffb74d"/><path d="m9 6h23v12h-23z" fill="#ffcc80"/><g fill="#bf8020"><path d="m36 24h-2c0-.552.448-1 1-1s1 .448 1 1z"/><circle cx="35" cy="21" r="1"/><circle cx="35" cy="18" r="1"/><circle cx="35" cy="15" r="1"/><circle cx="35" cy="12" r="1"/><circle cx="35" cy="9" r="1"/><circle cx="35" cy="6" r="1"/><circle cx="35" cy="3" r="1"/><path d="m36 0c0 .552-.448 1-1 1s-1-.448-1-1z"/></g></g></svg>