<svg fill="none" height="44" viewBox="0 0 44 44" width="44" xmlns="http://www.w3.org/2000/svg" xmlns:xlink="http://www.w3.org/1999/xlink"><filter id="a" color-interpolation-filters="sRGB" filterUnits="userSpaceOnUse" height="44.1602" width="40.54" x="1.53174" y="-.160156"><feFlood flood-opacity="0" result="BackgroundImageFix"/><feColorMatrix in="SourceAlpha" result="hardAlpha" type="matrix" values="0 0 0 0 0 0 0 0 0 0 0 0 0 0 0 0 0 0 127 0"/><feOffset dy="2"/><feComposite in2="hardAlpha" operator="out"/><feColorMatrix type="matrix" values="0 0 0 0 0.0313726 0 0 0 0 0.0431373 0 0 0 0 0.0980392 0 0 0 1 0"/><feBlend in2="BackgroundImageFix" mode="normal" result="effect1_dropShadow_574_139459"/><feBlend in="SourceGraphic" in2="effect1_dropShadow_574_139459" mode="normal" result="shape"/></filter><filter id="b" color-interpolation-filters="sRGB" filterUnits="userSpaceOnUse" height="19.3945" width="16.5894" x="10.7852" y="11.4941"><feFlood flood-opacity="0" result="BackgroundImageFix"/><feColorMatrix in="SourceAlpha" result="hardAlpha" type="matrix" values="0 0 0 0 0 0 0 0 0 0 0 0 0 0 0 0 0 0 127 0"/><feOffset dy="1"/><feComposite in2="hardAlpha" operator="out"/><feColorMatrix type="matrix" values="0 0 0 0 1 0 0 0 0 0.799563 0 0 0 0 0.655062 0 0 0 1 0"/><feBlend in2="BackgroundImageFix" mode="normal" result="effect1_dropShadow_574_139459"/><feBlend in="SourceGraphic" in2="effect1_dropShadow_574_139459" mode="normal" result="shape"/></filter><clipPath id="c"><path d="m0 0h44v44h-44z"/></clipPath><mask id="d" fill="#000" height="44" maskUnits="userSpaceOnUse" width="41" x="1.53125" y="-1.03711"><path d="m1.53125-1.03711h41v44h-41z" fill="#fff"/><path clip-rule="evenodd" d="m22.1852 39.4834c-.1798.0179-.3603.0285-.5408.0328h.0163c.1827 0 .3576-.0113.5245-.0328zm-1.3226.0089c.0177.0021.0357.0038.0538.0053l4.7796.4683c.1135.0112.2287.0208.3438.0255.2655.0144.531.0112.7949-.0047 3.1045-.1994 6.0858-2.4049 7.5492-5.9996l4.8142-11.798-.0032.0032c2.0889-5.124.3423-11.2112-3.8817-13.51886l-9.7164-5.32493c-.8557-.47364-1.7993-.76548-2.7734-.86276l-4.4815-.44016v.00586c-.0126-.00215-.0255-.00398-.0383-.00582-.014-.00199-.028-.00398-.0416-.00638-3.6083-.53424-7.3429 1.76541-9.04306 5.93731l-4.80301 11.80124c-1.6106 3.9471-.94525 8.4571 1.37229 11.3803l.11676.1451c.04157.0478.08154.0957.12151.1435h.00004c.02046.0238.04137.0476.0625.0717.01851.021.03718.0423.05586.0639.0259.0296.05181.0576.07771.0855.01728.0186.03456.0373.05184.0564.58698.6268 1.26193 1.1626 2.01685 1.5756l9.72121 5.3202c.6045.3317 1.2299.5661 1.8617.7128.0048.0016.0112.0032.0176.0048.1135.0255.2287.0495.3438.0702.0088.0016.0176.0028.0264.004s.0176.0024.0264.004c.1024.0175.2047.0319.3071.0446.0288.0048.056.008.0864.0112.0184.0024.0364.0052.0544.008s.036.0055.0543.0079h.0288c.0144.0032.0288.0048.0432.0048z" fill="#000" fill-rule="evenodd"/></mask><g clip-path="url(#c)"><g filter="url(#a)"><path clip-rule="evenodd" d="m22.1852 39.4834c-.1798.0179-.3603.0285-.5408.0328h.0163c.1827 0 .3576-.0113.5245-.0328zm-1.3226.0089c.0177.0021.0357.0038.0538.0053l4.7796.4683c.1135.0112.2287.0208.3438.0255.2655.0144.531.0112.7949-.0047 3.1045-.1994 6.0858-2.4049 7.5492-5.9996l4.8142-11.798-.0032.0032c2.0889-5.124.3423-11.2112-3.8817-13.51886l-9.7164-5.32493c-.8557-.47364-1.7993-.76548-2.7734-.86276l-4.4815-.44016v.00586c-.0126-.00215-.0255-.00398-.0383-.00582-.014-.00199-.028-.00398-.0416-.00638-3.6083-.53424-7.3429 1.76541-9.04306 5.93731l-4.80301 11.80124c-1.6106 3.9471-.94525 8.4571 1.37229 11.3803l.11676.1451c.04157.0478.08154.0957.12151.1435h.00004c.02046.0238.04137.0476.0625.0717.01851.021.03718.0423.05586.0639.0259.0296.05181.0576.07771.0855.01728.0186.03456.0373.05184.0564.58698.6268 1.26193 1.1626 2.01685 1.5756l9.72121 5.3202c.6045.3317 1.2299.5661 1.8617.7128.0048.0016.0112.0032.0176.0048.1135.0255.2287.0495.3438.0702.0088.0016.0176.0028.0264.004s.0176.0024.0264.004c.1024.0175.2047.0319.3071.0446.0288.0048.056.008.0864.0112.0184.0024.0364.0052.0544.008s.036.0055.0543.0079h.0288c.0144.0032.0288.0048.0432.0048z" fill="#d46b21" fill-rule="evenodd"/><path d="m22.1852 39.4834.2563 1.9835-.4549-3.9736zm-.5408.0328-.0475-1.9994.0475 3.9994zm-.728-.0186.1951-1.9905-.0175-.0017-.0175-.0014zm-.0538-.0053.2287-1.9869-.1139-.0131h-.1148zm4.8334.4736.1956-1.9904h-.0006zm.3438.0255.108-1.997-.0125-.0007-.0124-.0005zm.7949-.0047.1207 1.9963.0075-.0005zm7.5492-5.9996-1.8517-.7556-.0006.0015zm4.8142-11.798 1.8518.7556-3.2647-2.1711zm-.0032.0032-1.852-.755 3.265 2.1704zm-3.8817-13.51886-.9612 1.75386.0023.0013zm-9.7164-5.32493-.9686 1.74984.0074.00405zm-2.7734-.86276.1988-1.990107-.0033-.000321zm-4.4815-.44016.1955-1.9904228-2.1955-.2156312v2.206054zm0 .00586-.3366 1.97148 2.3366.39891v-2.37039zm-.0383-.00582-.2821 1.98001v.00001zm-.0416-.00638.3466-1.9697351-.0268-.0047115-.0269-.0039819zm-9.04306 5.93731-1.85211-.75478-.00034.00085zm-4.80301 11.80124 1.85177.7556.00068-.0016zm1.37229 11.3803-1.56722 1.2425.00444.0056.00449.0056zm.11676.1451-1.55829 1.2537.02383.0296.02494.0287zm.12151.1435-1.53461 1.2826.02097.025.02177.0244zm.00004 0 1.51667-1.3037-.01227-.0143-.01253-.014zm.0625.0717-1.50242 1.3201h.00003zm.05586.0639-1.51296 1.3081.00671.0076zm.07771.0855 1.4665-1.3599h-.00001zm.05184.0564-1.4847 1.34.01234.0137.0126.0135zm2.01685 1.5756.96016-1.7544-.00018-.0001zm9.72121 5.3202.962-1.7534-.0019-.0011zm1.8617.7128.6308-1.8979-.088-.0292-.0904-.021zm.0176.0048-.4837 1.9407.0225.0056.0227.0051zm.3438.0702.3568-1.9679-.0024-.0005zm.0528.008-.3567 1.9679.0094.0017.0095.0016zm.3071.0446.3278-1.9729-.0401-.0067-.0403-.005zm.0864.0112.258-1.9833-.0246-.0032-.0247-.0026zm.0544.008.3066-1.9764h-.0002zm.0543.0079-.2581 1.9833.1285.0167h.1296zm.0288 0 .4326-1.9526-.2137-.0474h-.2189zm1.1672-1.9942c-.1257.0125-.2556.0203-.3897.0235l.095 3.9988c.227-.0054.458-.0188.6919-.0421zm-.3422 4.0229h.0163v-4h-.0163zm.0163 0c.2649 0 .5255-.0163.7808-.0493l-.5125-3.967c-.0786.0101-.1678.0163-.2683.0163zm-.5842-4.0122c.0038.0003.0087.0007.0148.0014l-.4574 3.9738c.0415.0048.0824.0087.1225.0119zm4.8145.4715-4.7795-.4684-.3901 3.9809 4.7795.4684zm.2319.0177c-.0622-.0026-.1358-.0083-.2313-.0177l-.3913 3.9808c.1317.013.2883.0264.4565.0334zm.5912-.0029c-.1998.0121-.3881.0137-.5663.0041l-.2159 3.9941c.3528.0191.6955.0143 1.0235-.0055zm5.8175-4.7573c-1.2205 2.9978-3.6009 4.615-5.825 4.7578l.2563 3.9917c3.9847-.2558 7.567-3.0498 9.2734-7.2412zm4.8148-11.7995-4.8142 11.798 3.7035 1.5113 4.8142-11.7981zm3.2615 2.1742.0032-.0031-2.8259-2.831-.0032.0032zm-6.2536-13.1791c3.1427 1.7169 4.7803 6.6135 2.9886 11.0087l3.7041 1.51c2.3859-5.8528.5304-13.13065-4.7749-16.02902zm-9.7187-5.3262 9.7164 5.3249 1.9224-3.50775-9.7164-5.32492zm-2.0109-.62656c.7075.07066 1.3887.28218 2.0035.62249l1.9372-3.49963c-1.0966-.606981-2.3026-.979153-3.5432-1.103054zm-4.4783-.43983 4.4816.44016.3909-3.980848-4.4815-.4401548zm2.1955-1.98456v-.00586h-4v.00586zm-2.3204 1.9742c.0035.0005.0051.00072.0063.0009.0011.00015.0008.00011-.0004-.00007-.0022-.00032-.0103-.00155-.0221-.00355l.6732-3.9429546c-.0445-.0075902-.085-.0132279-.0929-.0143588zm-.1061-.01666c.0513.00904.0981.01551.1061.01665l.5641-3.9600202c-.0038-.0005456-.0053-.0007627-.0065-.000934-.001-.0001403-.0003-.0000391.0014.0002214.0032.0004682.0135.0020436.0281.0046077zm-6.8444 4.72236c1.4241-3.49447 4.3766-5.08699 6.898-4.71367l.5859-3.9568585c-4.6951-.6951695-9.21182 2.3116185-11.18807 7.1609585zm-4.80262 11.80045 4.80302-11.8013-3.70491-1.50787-4.80301 11.80127zm1.08706 9.3838c-1.84255-2.3241-2.44197-6.0634-1.08774-9.3822l-3.70354-1.5112c-1.866975 4.5753-1.13569 9.8561 1.65684 13.3784zm.10782.1339-.11675-.1451-3.11658 2.5074.11676.1451zm.09784.1146c-.03806-.0455-.09028-.1081-.14661-.1729l-3.01903 2.624c.02682.0309.05454.0639.09642.1141zm-.0427-.0494h-.00003l-2.98375 2.664.00003.0001zm.07305.0835c-.02246-.0255-.0361-.0411-.04825-.0552l-3.03334 2.6075c.02877.0334.05696.0655.07675.088zm.06637.076c-.02478-.0286-.04874-.0559-.06639-.076l-3.00479 2.6403c.01936.0221.03275.0373.04531.0519zm.03127.0337c-.01378-.0149-.02157-.0233-.02854-.0309-.00633-.007-.00892-.0099-.00942-.0105l-3.01249 2.6315c.04855.0556.09443.1049.11747.1297zm.07004.0763c-.0278-.0308-.05424-.0593-.07003-.0763l-2.933 2.7198c.01877.0203.02689.0291.03364.0365zm1.49214 1.1611c-.55543-.3039-1.06425-.7047-1.51707-1.1882l-2.91952 2.7343c.72114.77 1.56221 1.4408 2.51663 1.963zm9.72133 5.3202-9.72115-5.3201-1.92033 3.5089 9.72118 5.3201zm1.354.5192c-.4566-.1061-.9102-.2757-1.3521-.5181l-1.9241 3.5068c.7673.421 1.5645.7202 2.3713.9076zm.0489.0123c-.0065-.0016.0059.0014.0207.0054.0086.0023.0222.0059.039.0108.0163.0047.0405.012.0698.0217l-1.2617 3.7958c.0588.0196.1065.0324.1252.0374.0118.0031.0216.0056.0276.0072.0058.0014.011.0027.012.003zm.2145.0424c-.0806-.0145-.1669-.0323-.2598-.0531l-.8769 3.9027c.1343.0301.2782.0602.428.0872zm-.059-.0094c-.0058-.0008.0008 0 .0094.0013.0097.0014.0282.0043.052.0086l-.7135 3.9358c.0594.0108.1116.0176.1141.0179zm.1141.0178c-.0594-.0107-.1115-.0175-.1141-.0178l-.538 3.9636c.0059.0008-.0007-.0001-.0093-.0013-.0098-.0015-.0283-.0043-.052-.0086zm.1978.028c-.0829-.0103-.1534-.0204-.2166-.0313l-.6757 3.9425c.1414.0243.2756.0429.3975.0581zm.0477.0067c-.0176-.0018.002-.0001.0327.005l-.6556 3.9459c.0882.0146.1623.0227.2054.0273zm.1521.0207c-.0143-.0022-.0562-.0088-.1028-.0149l-.5161 3.9666c-.0064-.0009-.0099-.0014-.0087-.0012.0005.0001.0018.0003.0044.0006.0027.0005.0057.0009.0104.0017zm.0061.0011c.0064.0008.01.0014.0089.0012-.0006-.0001-.0018-.0003-.0044-.0007-.0027-.0004-.0056-.0009-.0104-.0016l-.6132 3.9527c.0143.0022.0562.0088.1028.0149zm-.2294-.0168h-.0288v4h.0288zm.0432.0048c.1346 0 .2652.0151.3894.0426l-.8652 3.9053c.153.0339.3124.0521.4758.0521z" fill="#090c1d" mask="url(#d)"/></g><path d="m34.2944 21.7091-2.244 5.5003-.1775.4338-2.3911 5.864c-.048.118-.0976.2344-.1487.3492-.0512.1117-.1024.2217-.1536.3301-.0016.0048-.0032.0064-.0048.0096-.0528.11-.1087.2201-.1647.3285-.3711.7049-.8045 1.3428-1.2875 1.909-.0368.0446-.0752.0861-.112.1307-.0016.0016-.0048.0048-.008.008-.0656.0718-.1296.1451-.1967.2153-.0864.0925-.1728.1818-.2623.2695-.1184.118-.2399.2328-.3647.3429-.1231.11-.2495.2169-.3791.3205-.0863.067-.1711.1324-.2591.1978-.0447.0319-.0863.0638-.1311.0941-.0896.0638-.1775.1244-.2671.1834-.0672.0446-.1344.0861-.2031.1292-.0672.0414-.136.0829-.2048.1212-.0048.0031-.0128.0063-.0176.0111-.1327.0766-.2655.1499-.4014.2185-.0064.0016-.0128.0048-.016.008-.2015.1004-.4062.1945-.6126.2775-.1327.0542-.2671.1036-.403.1499-.0048 0-.0096.0032-.0144.0048-.1328.0462-.2655.0877-.4015.1243-.0064.0016-.0128.0032-.0208.0048-.0703.0208-.1423.0399-.2127.0558-.0719.0176-.1423.0335-.2127.0495-.1423.0319-.2863.0574-.4302.0797-.0752.0128-.152.0223-.2272.0319-.0095 0-.0191.0032-.0303.0048-.2591.0319-.5198.0478-.7806.051-.1471 0-.2942-.0032-.443-.0127.0112 0 .0224.0016.0336.0016-.0336 0-.0688-.0016-.1024-.0048-.0112 0-.0208 0-.0319 0-.0064 0-.0128 0-.0192 0-.0432-.0016-.0864-.0048-.128-.0096-.0144 0-.0288-.0016-.0432-.0048h-.0288c-.0368-.0048-.0719-.0111-.1087-.0159-.0304-.0032-.0576-.0064-.0864-.0112-.1024-.0127-.2047-.0271-.3071-.0446-.0176-.0032-.0352-.0048-.0528-.008-.1151-.0207-.2303-.0447-.3438-.0702-.0064-.0016-.0128-.0032-.0176-.0048-.6318-.1467-1.2572-.3811-1.8617-.7128l-9.72121-5.3202c-.75492-.413-1.42987-.9488-2.01685-1.5756-.04319-.0478-.08637-.0925-.12955-.1419-.03999-.0463-.07997-.0909-.11836-.1356-.03999-.0478-.07997-.0957-.12155-.1435-.03839-.0478-.07838-.0973-.11676-.1451-2.31754-2.9232-2.98289-7.4332-1.37229-11.3803l4.80301-11.80124c1.70016-4.1719 5.43476-6.47155 9.04306-5.93731.0272.00479.056.00798.0831.01276.7981.12758 1.5915.39391 2.3512.81014l9.7164 5.32811c4.224 2.30764 5.9657 8.39484 3.8817 13.51884z" fill="#ffa15e"/><path clip-rule="evenodd" d="m30.4349 31.1681c-2.3471 1.0194-4.9371 1.5845-7.6592 1.5845-8.5132 0-15.73539-5.5279-18.27278-13.1901l-.08699.2137c-1.6106 3.9471-.94525 8.4571 1.37229 11.3803l.11676.1451c.04158.0479.08156.0957.12155.1435.02046.0238.04137.0476.0625.0717.01851.021.03718.0423.05586.0639.02591.0297.05182.0576.07773.0855.01727.0187.03454.0373.05182.0564.58698.6268 1.26193 1.1626 2.01685 1.5757l9.72121 5.3201c.6045.3317 1.2299.5661 1.8617.7129.0048.0015.0112.0031.0176.0047.1135.0256.2287.0495.3438.0702.0088.0016.0176.0028.0264.004s.0176.0024.0264.004c.1024.0175.2047.0319.3071.0446.0288.0048.056.008.0864.0112.0184.0024.0364.0052.0543.008.018.0028.036.0056.0544.0079h.0288c.0144.0032.0288.0048.0432.0048.0416.0048.0848.008.128.0096h.0192.0319c.0308.0029.063.0045.094.0047.1402.0084.279.0112.4178.0112.2608-.0031.5215-.0191.7806-.051.0042-.0006.0082-.0014.012-.0022.0064-.0013.0124-.0026.0183-.0026l.0129-.0016c.0711-.009.1434-.0182.2143-.0303.1439-.0223.2879-.0478.4302-.0797.0704-.016.1408-.0319.2127-.0494.0704-.016.1424-.0351.2127-.0559.008-.0016.0144-.0031.0208-.0047.136-.0367.2687-.0782.4015-.1244.0016-.0006.0032-.0013.0048-.002.0032-.0014.0064-.0028.0096-.0028.1359-.0463.2703-.0957.403-.1499.2064-.083.4111-.177.6126-.2775.0032-.0032.0096-.0064.016-.008.1359-.0686.2687-.1419.4014-.2185.0048-.0048.0128-.0079.0176-.0111.0688-.0383.1376-.0798.2048-.1212.0108-.0068.0215-.0135.0322-.0202.0576-.036.1143-.0714.1709-.109.0896-.059.1775-.1196.2671-.1834.0281-.019.0549-.0386.082-.0585.0162-.0118.0324-.0237.0491-.0356.088-.0654.1728-.1308.2591-.1978.1296-.1036.256-.2105.3791-.3205.1248-.11.2463-.2249.3647-.3429.0895-.0877.1759-.177.2623-.2695.0448-.0468.0881-.095.1315-.1431.0217-.0242.0433-.0483.0652-.0722l.008-.008c.0184-.0223.0372-.0438.056-.0654.0188-.0215.0376-.043.056-.0653.483-.5662.9164-1.2041 1.2875-1.909.056-.1084.1119-.2184.1647-.3285.0005-.001.0011-.0019.0016-.0028.0011-.0018.0021-.0036.0032-.0068.0512-.1084.1024-.2184.1536-.3301.0511-.1148.1007-.2312.1487-.3492z" fill="#d46b21" fill-opacity=".3" fill-rule="evenodd"/><g filter="url(#b)"><path d="m20.8544 11.8647c.9432-.8201 2.4169-.1946 2.4822 1.0536l.2146 4.103 3.2367 2.4839c.8463.6494.7633 1.9497-.1586 2.4864l-4.0823 2.3761-1.4713 4.4871c-.3693 1.1262-1.8374 1.3994-2.5871.4814l-2.3594-2.8889-3.7171.3096c-1.1812.0984-2.0045-1.1475-1.4509-2.1955l2.2056-4.1753-1.1264-4.5872c-.2544-1.0359.6233-1.9989 1.6783-1.8413l4.0352.6029z" fill="#d46b21"/></g><path d="m15.2897 5.28185c1.8598-.92811 3.0521-2.26275 2.663-2.98099-.3891-.71825-2.2122-.54813-4.072.37998s-3.0521 2.26274-2.663 2.98099c.389.71825 2.2121.54813 4.072-.37998z" fill="#ffcca7"/><path d="m14.9497 4.35967c.7734-.46355 1.2435-1.08105 1.0501-1.37925-.1934-.29819-.9771-.16414-1.7505.2994-.7733.46354-1.2434 1.08105-1.05 1.37924.1934.2982.9771.16415 1.7504-.29939z" fill="#fff"/></g></svg>