<svg fill="none" height="44" viewBox="0 0 44 44" width="44" xmlns="http://www.w3.org/2000/svg" xmlns:xlink="http://www.w3.org/1999/xlink"><filter id="a" color-interpolation-filters="sRGB" filterUnits="userSpaceOnUse" height="44" width="41.9116" x="1.04102" y="0"><feFlood flood-opacity="0" result="BackgroundImageFix"/><feColorMatrix in="SourceAlpha" result="hardAlpha" type="matrix" values="0 0 0 0 0 0 0 0 0 0 0 0 0 0 0 0 0 0 127 0"/><feOffset dy="2"/><feComposite in2="hardAlpha" operator="out"/><feColorMatrix type="matrix" values="0 0 0 0 0.0352941 0 0 0 0 0.0470588 0 0 0 0 0.113725 0 0 0 1 0"/><feBlend in2="BackgroundImageFix" mode="normal" result="effect1_dropShadow_574_139382"/><feBlend in="SourceGraphic" in2="effect1_dropShadow_574_139382" mode="normal" result="shape"/></filter><filter id="b" color-interpolation-filters="sRGB" filterUnits="userSpaceOnUse" height="19.1172" width="16.3501" x="11.1221" y="12.3848"><feFlood flood-opacity="0" result="BackgroundImageFix"/><feColorMatrix in="SourceAlpha" result="hardAlpha" type="matrix" values="0 0 0 0 0 0 0 0 0 0 0 0 0 0 0 0 0 0 127 0"/><feOffset dy="1"/><feComposite in2="hardAlpha" operator="out"/><feColorMatrix type="matrix" values="0 0 0 0 1 0 0 0 0 0.882353 0 0 0 0 0 0 0 0 1 0"/><feBlend in2="BackgroundImageFix" mode="normal" result="effect1_dropShadow_574_139382"/><feBlend in="SourceGraphic" in2="effect1_dropShadow_574_139382" mode="normal" result="shape"/></filter><mask id="c" fill="#000" height="42" maskUnits="userSpaceOnUse" width="42" x="1.04102" y="0"><path d="m1.04102 0h42v42h-42z" fill="#fff"/><path clip-rule="evenodd" d="m19.0806 2h5.8325.4302c.0903 0 .1793.00599.2665.0176 8.5352.43213 15.3428 8.7655 15.3428 18.9824s-6.8076 18.5503-15.3428 18.9824c-.0872.0116-.1762.0176-.2665.0176h-.4302-5.8325-.4303c-.0904 0-.1794-.006-.2666-.0176-8.5351-.4322-15.34268-8.7656-15.34268-18.9824s6.80757-18.55019 15.34268-18.98239c.0872-.01161.1762-.01761.2666-.01761z" fill="#000" fill-rule="evenodd"/></mask><g filter="url(#a)"><path clip-rule="evenodd" d="m19.0806 2h5.8325.4302c.0903 0 .1793.00599.2665.0176 8.5352.43213 15.3428 8.7655 15.3428 18.9824s-6.8076 18.5503-15.3428 18.9824c-.0872.0116-.1762.0176-.2665.0176h-.4302-5.8325-.4303c-.0904 0-.1794-.006-.2666-.0176-8.5351-.4322-15.34268-8.7656-15.34268-18.9824s6.80757-18.55019 15.34268-18.98239c.0872-.01161.1762-.01761.2666-.01761z" fill="#ffb800" fill-rule="evenodd"/><path d="m25.6098 2.0176-.264 1.9825.0811.01081.0818.00414zm0 37.9648-.1011-1.9974-.0818.0041-.0811.0108zm-7.2261 0 .2641-1.9825-.0812-.0108-.0818-.0041zm0-37.96479.1011 1.99744.0818-.00414.0811-.01081zm6.5294-2.01761h-5.8325v4h5.8325zm.4302 0h-.4302v4h.4302zm.5305.0351048c-.1745-.0232338-.3516-.0351048-.5305-.0351048v4c.0018 0 .0026.00012.0025.0001zm17.0788 20.9648952c0-10.9807-7.3655-20.479813-17.2417-20.9798375l-.2022 3.9948875c7.1941.36423 13.4439 7.53185 13.4439 16.98495zm-17.2417 20.9798c9.8762-.5 17.2417-9.9991 17.2417-20.9798h-4c0 9.4531-6.2498 16.6207-13.4439 16.985zm-.3676.0202c.1789 0 .356-.0119.5305-.0351l-.528-3.965s-.0001 0-.0002 0c0 0-.0002 0-.0004 0-.0003.0001-.001.0001-.0019.0001zm-.4302 0h.4302v-4h-.4302zm-5.8325 0h5.8325v-4h-5.8325zm-.4303 0h.4303v-4h-.4303zm-.5307-.0351c.1746.0232.3518.0351.5307.0351v-4c-.0019 0-.0027-.0001-.0025-.0001zm.3652-3.9799c-7.1941-.3643-13.44378-7.532-13.44378-16.985h-4c0 10.9806 7.36544 20.4797 17.24158 20.9798zm-13.44378-16.985c0-9.453 6.24968-16.62066 13.44378-16.98495l-.2023-3.9948809c-9.87605.5001029-17.24148 9.9992309-17.24148 20.9798309zm13.60928-21c-.179 0-.3562.011875-.5307.0351156l.5281 3.9649844h.0001s0-.00001.0001-.00001c0-.00001.0002-.00002.0004-.00003.0003-.00003.001-.00006.002-.00006zm.4303 0h-.4303v4h.4303z" fill="#090c1d" mask="url(#c)"/></g><path clip-rule="evenodd" d="m25.6098 39.9824c8.5352-.4321 15.3428-8.7655 15.3428-18.9824s-6.8076-18.55028-15.3428-18.9824c-.0872-.01161-.1762-.0176-.2665-.0176h-.4302-6.2628c-1.1046 0-2 .89543-2 2v.71181c-4.6599 3.32419-7.77676 9.37499-7.77676 16.28819s3.11686 12.964 7.77676 16.2882v.7118c0 1.1046.8954 2 2 2h6.2628.4302c.0903 0 .1793-.006.2665-.0176z" fill="#ee7304" fill-rule="evenodd"/><ellipse cx="19.0806" cy="21" fill="#ffb800" rx="16.0395" ry="19"/><path clip-rule="evenodd" d="m32.165 31.9184c-2.7301 1.5178-5.8733 2.3822-9.2184 2.3822-10.4934 0-19.00003-8.5066-19.00003-19 0-.2721.00572-.543.01705-.8123-.62568 2.0314-.96704 4.2248-.96704 6.5126 0 10.4934 7.18112 19 16.03952 19 5.4283 0 10.2267-3.1942 13.1289-8.0825z" fill="#ee7304" fill-opacity=".2" fill-rule="evenodd"/><path d="m14.9169 5.74277c1.9454-.52447 3.3439-1.57509 3.1236-2.34663-.2202-.77153-1.9759-.97182-3.9213-.44734-1.9454.52447-3.344 1.57509-3.1237 2.34663.2203.77153 1.9759.97181 3.9214.44734z" fill="#ffe100"/><path d="m14.7846 4.78523c.8248-.29306 1.3949-.79547 1.2734-1.12216s-.8887-.35395-1.7135-.06089-1.3949.79547-1.2734 1.12216c.1216.32669.8887.35395 1.7135.06089z" fill="#fff"/><g filter="url(#b)"><path d="m21.02 12.7543c.9432-.8201 2.4169-.1946 2.4822 1.0536l.2098 4.0118 3.1731 2.4351c.8462.6494.7633 1.9497-.1586 2.4863l-4.0059 2.3317-1.4418 4.397c-.3693 1.1262-1.8374 1.3994-2.5871.4814l-2.3074-2.8253-3.6352.3028c-1.1811.0984-2.0044-1.1474-1.4508-2.1954l2.1613-4.0916-1.1054-4.5013c-.2544-1.0359.6233-1.9988 1.6784-1.8412l3.9558.591z" fill="#ee7304"/></g></svg>