<svg fill="none" height="44" viewBox="0 0 44 44" width="44" xmlns="http://www.w3.org/2000/svg" xmlns:xlink="http://www.w3.org/1999/xlink"><filter id="a" color-interpolation-filters="sRGB" filterUnits="userSpaceOnUse" height="43.8691" width="40.5552" x="1.41553" y=".041016"><feFlood flood-opacity="0" result="BackgroundImageFix"/><feColorMatrix in="SourceAlpha" result="hardAlpha" type="matrix" values="0 0 0 0 0 0 0 0 0 0 0 0 0 0 0 0 0 0 127 0"/><feOffset dy="2"/><feComposite in2="hardAlpha" operator="out"/><feColorMatrix type="matrix" values="0 0 0 0 0.0352941 0 0 0 0 0.0470588 0 0 0 0 0.113725 0 0 0 1 0"/><feBlend in2="BackgroundImageFix" mode="normal" result="effect1_dropShadow_574_139422"/><feBlend in="SourceGraphic" in2="effect1_dropShadow_574_139422" mode="normal" result="shape"/></filter><filter id="b" color-interpolation-filters="sRGB" filterUnits="userSpaceOnUse" height="19.4434" width="17.1826" x="10.3901" y="11.918"><feFlood flood-opacity="0" result="BackgroundImageFix"/><feColorMatrix in="SourceAlpha" result="hardAlpha" type="matrix" values="0 0 0 0 0 0 0 0 0 0 0 0 0 0 0 0 0 0 127 0"/><feOffset dy="1"/><feComposite in2="hardAlpha" operator="out"/><feColorMatrix type="matrix" values="0 0 0 0 0.94902 0 0 0 0 0.933333 0 0 0 0 1 0 0 0 1 0"/><feBlend in2="BackgroundImageFix" mode="normal" result="effect1_dropShadow_574_139422"/><feBlend in="SourceGraphic" in2="effect1_dropShadow_574_139422" mode="normal" result="shape"/></filter><mask id="c" fill="#000" height="42" maskUnits="userSpaceOnUse" width="41" x="1.41553" y=".041016"><path d="m1.41553.041016h41v42h-41z" fill="#fff"/><path clip-rule="evenodd" d="m18.4287 2.15462c.2084-.07357.4325-.1136.6661-.1136h5.4675c.287 0 .5599.06046.8067.16936.7775.13288 1.5347.4201 2.2242.86165l8.692 5.56706c2.2963 1.47071 3.6853 4.00981 3.6853 6.73671v11.2473c0 2.7269-1.389 5.266-3.6853 6.7367l-8.692 5.567c-.7518.4815-1.5842.7795-2.4357.894-.188.0585-.3879.09-.5952.09h-5.4675c-.1504 0-.2969-.0166-.4378-.048-.9994-.062-1.9866-.374-2.8641-.936l-9.6134-6.1571c-1.72222-1.1031-2.76397-3.0074-2.76397-5.0525v-13.4355c0-2.0452 1.04175-3.9495 2.76397-5.05252l9.6134-6.15715c.8106-.51915 1.7148-.82496 2.6358-.91741z" fill="#000" fill-rule="evenodd"/></mask><g filter="url(#a)"><path clip-rule="evenodd" d="m18.4287 2.15462c.2084-.07357.4325-.1136.6661-.1136h5.4675c.287 0 .5599.06046.8067.16936.7775.13288 1.5347.4201 2.2242.86165l8.692 5.56706c2.2963 1.47071 3.6853 4.00981 3.6853 6.73671v11.2473c0 2.7269-1.389 5.266-3.6853 6.7367l-8.692 5.567c-.7518.4815-1.5842.7795-2.4357.894-.188.0585-.3879.09-.5952.09h-5.4675c-.1504 0-.2969-.0166-.4378-.048-.9994-.062-1.9866-.374-2.8641-.936l-9.6134-6.1571c-1.72222-1.1031-2.76397-3.0074-2.76397-5.0525v-13.4355c0-2.0452 1.04175-3.9495 2.76397-5.05252l9.6134-6.15715c.8106-.51915 1.7148-.82496 2.6358-.91741z" fill="#9789cd" fill-rule="evenodd"/><path d="m18.4287 2.15462.1998 1.98999.2393-.02402.2268-.08009zm6.9403.05576-.8075 1.82974.2265.09997.2441.04171zm2.2242.86165-1.0787 1.68418zm8.692 5.56706 1.0787-1.68418zm0 24.72071 1.0787 1.6842zm-8.692 5.567 1.0786 1.6842zm-2.4357.894-.2664-1.9822-.1671.0224-.161.0502zm-6.5005.042.4359-1.952-.1543-.0344-.1578-.0098zm-2.8641-.936 1.0787-1.6841zm-9.6134-6.1571 1.07867-1.6842zm0-23.54052-1.07868-1.68418zm9.6134-6.15715 1.0787 1.68418zm3.3019-3.0310144c-.4635 0-.9127.0796684-1.332.2277184l1.3318 3.771766.0002.00052zm5.4675 0h-5.4675v4.0000044h5.4675zm1.6141.3396184c-.4962-.219011-1.0438-.3396184-1.6141-.3396184v4.0000044c.0027 0 .0031.00024.002.00001-.001-.00021-.002-.00055-.0028-.00091zm2.4954 1.007216c-.9187-.588399-1.9288-.971651-2.9659-1.148893l-.6738 3.942843c.518.08852 1.0222.27971 1.4824.57441zm8.6921 5.56706-8.6921-5.56706-2.1573 3.36836 8.6921 5.56709zm4.6066 8.42089c0-3.4086-1.7362-6.58249-4.6066-8.42089l-2.1573 3.36839c1.7222 1.103 2.7639 3.0073 2.7639 5.0525zm0 11.2473v-11.2473h-4v11.2473zm-4.6066 8.4209c2.8704-1.8384 4.6066-5.0123 4.6066-8.4209h-4c0 2.0451-1.0417 3.9495-2.764 5.0525zm-8.6921 5.567 8.6921-5.567-2.1574-3.3684-8.692 5.5671zm-3.2478 1.1919c1.1355-.1526 2.2459-.5502 3.2478-1.1919l-2.1573-3.3683c-.5017.3212-1.056.5196-1.6234.5959zm-.8617.1079c.4111 0 .8114-.0627 1.1897-.1804l-1.189-3.8192-.0007-.0004zm-5.4675 0h5.4675v-4h-5.4675zm-.8736-.0961c.283.0632.5756.0961.8736.0961v-4c-.0028 0-.0032-.0002-.0019 0zm.5596-3.9481c-.6665-.0413-1.324-.2491-1.9092-.6239l-2.1574 3.3683c1.1697.7492 2.4868 1.1653 3.8191 1.2479zm-1.9092-.6239-9.61343-6.1572-2.15735 3.3684 9.61338 6.1571zm-9.61343-6.1572c-1.14814-.7353-1.84264-2.0049-1.84264-3.3683h-4c0 2.7269 1.389 5.2659 3.68529 6.7367zm-1.84264-3.3683v-13.4355h-4v13.4355zm0-13.4355c0-1.3634.6945-2.633 1.84265-3.3683l-2.15736-3.3684c-2.29629 1.47072-3.68529 4.0098-3.68529 6.7367zm1.84265-3.3683 9.61342-6.15719-2.1574-3.36836-9.61338 6.15715zm9.61342-6.15719c.5407-.34634 1.1429-.54996 1.7569-.6116l-.3996-3.97999c-1.228.123277-2.4343.531269-3.5147 1.22323z" fill="#000" mask="url(#c)"/></g><path d="m14.7141 3.76346c2.6299-1.68438 5.9995-1.68438 8.6294 0l7.6134 4.8762c2.2963 1.47074 3.6853 4.00984 3.6853 6.73674v11.2472c0 2.7269-1.389 5.266-3.6853 6.7367l-7.6134 4.8762c-2.6299 1.6844-5.9995 1.6844-8.6294 0l-7.6134-4.8762c-2.2963-1.4707-3.6853-4.0098-3.6853-6.7367v-11.2472c0-2.7269 1.389-5.266 3.6853-6.73674z" fill="#d9d1f4"/><path clip-rule="evenodd" d="m33.8898 30.6269c-3.1214 2.2668-6.9618 3.6036-11.1145 3.6036-10.4575 0-18.93495-8.4774-18.93495-18.9349 0-1.4218.15672-2.8071.45382-4.1394-.56596.9274-.87864 2.0056-.87864 3.126v13.4355c0 2.0451 1.04175 3.9495 2.76397 5.0525l9.6134 6.1572c1.9724 1.2632 4.4996 1.2632 6.472 0l9.6134-6.1572c.8513-.5452 1.5364-1.2862 2.0115-2.1433z" fill="#b4a6e2" fill-opacity=".5" fill-rule="evenodd"/><g filter="url(#b)"><path d="m20.7427 12.2606c.936-.769 2.3502-.1686 2.4473 1.0388l.3446 4.2863 3.4319 2.5456c.8828.6548.7849 2.0052-.183 2.5258l-4.11 2.2107-1.4301 4.4522c-.358 1.1143-1.7973 1.4076-2.5628.5223l-2.6539-3.0694-4.0515.2231c-1.1686.0644-1.9574-1.1748-1.4045-2.2063l2.2091-4.1215-1.2648-4.4921c-.2978-1.0579.6056-2.0664 1.6898-1.8863l4.2152.7004z" fill="#9789cd"/></g><path d="m16.3559 6.25337c1.8299-.91318 3.003-2.22635 2.6202-2.93304-.3828-.7067-2.1766-.53931-4.0065.37387s-3.003 2.22635-2.6202 2.93304c.3828.7067 2.1766.53931 4.0065-.37387z" fill="#f2eeff"/><path d="m16.0214 5.34799c.7609-.45609 1.2234-1.06367 1.0331-1.35706-.1902-.2934-.9613-.16151-1.7222.29458s-1.2234 1.06366-1.0331 1.35706c.1903.29339.9613.1615 1.7222-.29458z" fill="#fff"/></svg>